/* XPM */
static char *result[] = {
/* columns rows colors chars-per-pixel */
"64 64 224 2 ",
"   c #373330",
".  c #413D3A",
"X  c #585350",
"o  c #625B55",
"O  c #7C6147",
"+  c #716E6B",
"@  c #7A7775",
"#  c #8C5C1A",
"$  c #B97A1C",
"%  c #8C6120",
"&  c #996B27",
"*  c #83613D",
"=  c #AD762B",
"-  c #A37028",
";  c #B57921",
":  c #B1792C",
">  c #B07726",
",  c #B67F37",
"<  c #AF7C38",
"1  c #987758",
"2  c #997047",
"3  c #A67B49",
"4  c #A27D5A",
"5  c #887768",
"6  c #847C75",
"7  c #947860",
"8  c #BF8329",
"9  c #DB940D",
"0  c #C1811D",
"q  c #D18E16",
"w  c #D89519",
"e  c #E39C0B",
"r  c #E99E04",
"t  c #ECA50A",
"y  c #F4A602",
"u  c #F5AB03",
"i  c #F2AB0D",
"p  c #F6B106",
"a  c #F8B305",
"s  c #F9BB06",
"d  c #F6B409",
"f  c #F6B90A",
"g  c #EDAE14",
"h  c #EAA919",
"j  c #F5AE12",
"k  c #F0AC19",
"l  c #EFB01A",
"z  c #F4B414",
"x  c #F2B51A",
"c  c #F4BC1E",
"v  c #C58623",
"b  c #D89821",
"n  c #C58E38",
"m  c #CD9435",
"M  c #D29737",
"N  c #DDA235",
"B  c #E7AA29",
"V  c #EEB32A",
"C  c #F5BE29",
"Z  c #E9B43F",
"A  c #FBC306",
"S  c #FCCB06",
"D  c #FCCC08",
"F  c #F8C30C",
"G  c #F8C21A",
"H  c #FDCC23",
"J  c #F6C63D",
"K  c #FCD537",
"L  c #FDD12D",
"P  c #AC8047",
"I  c #B78646",
"U  c #AD8454",
"Y  c #B68B54",
"T  c #BF955B",
"R  c #938578",
"E  c #A88968",
"W  c #B18E6A",
"Q  c #B8956B",
"!  c #A58D76",
"~  c #B89A78",
"^  c #CF9B41",
"/  c #D49E43",
"(  c #C79A56",
")  c #D6A347",
"_  c #D5A554",
"`  c #D3A55B",
"'  c #D9AC5D",
"]  c #D7A958",
"[  c #E9B549",
"{  c #F2BE41",
"}  c #E9B859",
"|  c #E2AE4C",
" . c #D8AC68",
".. c #CCA777",
"X. c #DCB275",
"o. c #CFA870",
"O. c #E7BA64",
"+. c #E4BB77",
"@. c #F2C44D",
"#. c #F8CB46",
"$. c #FCD246",
"%. c #FDDB44",
"&. c #FDD54A",
"*. c #EFC453",
"=. c #FBD354",
"-. c #FED956",
";. c #FED95B",
":. c #FCD758",
">. c #F5C953",
",. c #FDDC6C",
"<. c #F9D566",
"1. c #F4CE76",
"2. c #FCDE74",
"3. c #FCDE7A",
"4. c #E8C273",
"5. c #FEE37C",
"6. c #FEE073",
"7. c #9A8E84",
"8. c #93918F",
"9. c #9D9792",
"0. c #8B8782",
"q. c #A69687",
"w. c #A59D96",
"e. c #B19B80",
"r. c #AFA18D",
"t. c #BBA48D",
"y. c #B7A18B",
"u. c #B8A796",
"i. c #A8A19A",
"p. c #A6A4A2",
"a. c #A9A6A3",
"s. c #ADA9A5",
"d. c #B4AAA3",
"f. c #B1ADAA",
"g. c #B8AFA8",
"h. c #B4B1AD",
"j. c #BDB2A8",
"k. c #BBB6B3",
"l. c #BBB8B5",
"z. c #C6A987",
"x. c #D3B28A",
"c. c #DBB988",
"v. c #C2AA93",
"b. c #C6AE96",
"n. c #CAB39C",
"m. c #D3B694",
"M. c #DEBD92",
"N. c #D6BA9A",
"B. c #E2BE88",
"V. c #E1BE91",
"C. c #C3B3A4",
"Z. c #CBBCAC",
"A. c #C5B6A9",
"S. c #D8BEA2",
"D. c #C3BBB3",
"F. c #C3BEBB",
"G. c #CEBFB1",
"H. c #DDC19E",
"J. c #ECC886",
"K. c #F2CF80",
"L. c #E3C395",
"P. c #E5C79B",
"I. c #F5DA97",
"U. c #FEE382",
"Y. c #FEE78A",
"T. c #FDE999",
"R. c #DDC4A6",
"E. c #DDC6AC",
"W. c #C4C0BC",
"Q. c #CBC3BC",
"!. c #CDC2B6",
"~. c #DAC6B3",
"^. c #DECAB5",
"/. c #D5C9BC",
"(. c #DBCCBD",
"). c #D3C6BA",
"_. c #E2C7A1",
"`. c #E4CCAC",
"'. c #E5CDA2",
"]. c #E2CDB5",
"[. c #E1CEBA",
"{. c #E6D5BE",
"}. c #E6D1A9",
"|. c #F9E7AE",
" X c #C5C3C2",
".X c #CBC6C2",
"XX c #CAC8C7",
"oX c #CDCBCA",
"OX c #D3CBC4",
"+X c #DBCEC2",
"@X c #D2CECB",
"#X c #D8CFC8",
"$X c #D5D1CD",
"%X c #DBD3CC",
"&X c #D5D3D3",
"*X c #DCD6D2",
"=X c #DED9D5",
"-X c #DDDCDC",
";X c #E1D3C4",
":X c #E2D5C9",
">X c #E4D9CA",
",X c #E2DBD5",
"<X c #E3DEDA",
"1X c #E0D7D1",
"2X c #FBEFCD",
"3X c #EEE5D6",
"4X c #E6E1DE",
"5X c #EBE4DC",
"6X c #F8EDD4",
"7X c #FBF2DC",
"8X c #E5E4E2",
"9X c #E9E6E3",
"0X c #ECE9E6",
"qX c #EDEDED",
"wX c #F2EEE7",
"eX c #F0EEEB",
"rX c #F3F1ED",
"tX c #FBF6E8",
"yX c #F3F3F3",
"uX c #F8F7F5",
"iX c #FAF8F6",
"pX c #F7F7F8",
"aX c #F9F9F9",
"sX c #F8F8F8",
/* pixels */
"aXqXsXqXpXqXpXyXyXyXqXaXqXaXqXaXqXsXqXsXqXpXyXyXyXqXpXqXsXqXsXqXsXqXsXeXsXqXpXqXyXyXqXpXqXsXqXaXqXaXqXpXqXpXyXyXyXqXuXqXpXqXaX0X",
"aXyXsXqXyXqXyXyXyXyXqXsXyXyXqXyXqXyXqXpXyXyXqXyXyXyXpXqXpXqXpXeXpXqXyXyXyXyXyXyXyXpXyXyXqXpXeXyXqXpXqXyXqXyXyXyXyXyXyXyXsXqXpXqX",
"0XpXqXsXqXsXyXyXyXqXpXqXpXqXaXqXpXeXsXqXpXqXyXyXyXyXeXpXqXsXqXsXqXsXqXsXeXyXqXpXyXqXpXqXpXqXpXqXpXqXaXqXpXqXyXyXyXpXqXpXqXpXqXaX",
"yXrXyXyXyXyXyXqXqXyXyXyXyXyXyXyXyXyXyXpXyXyXyXyXyXyXyXyXyXyXyXyXyXyXyXqXyXyXyXyXeXyXyXyXyXyXyXyXqXyXyXpXyXyXyXyXyXqXyXyXyXyXyXyX",
"aXqXaXqXpXqXyXyXyXpXqXpXqXaXqXaXqXsXqXsXqXpXqXyXyXqXyXeXsXqXsXqXaXqXsXqXsXqXpXyXyXyXqXpXqXaXqXaXqXaXqXpXqXyXyXyXyXyXsXqXpXqXaXqX",
"qXpXqXyXqXsXyXyXyXqXsXrXyXqXpXqXpXeXpXqXyXyXyXyXyXpXyXpXeXpXeXsXeXsXqXpXqXpXqXyXyXyXyXyXyXqXpXeXpXqXpXyXpXqXyXyXeXsXqXsXqXpXqXsX",
"qXpXqXpXqXsXqXyXyXqXpXqXpXqXpXqXsXqXpXqXpXqXpXyXqXyXqXrX8X9X8XeX8XqX9XeX9XyXyXyXyXqXpXqXpXeXpXqXpXqXpXqXpXqXuXyXyXyXqXpXqXsXqXaX",
"aXqXpXqXpXyXyXyXyXyXqXpXqXaXqXaXqXsXqXpXqXpXqXyXpXqXeX<X,X8X9X9X0X9X4X9X9X9XyXqXyXpXqXpXqXsXeXsXqXpXeXpXqXpXqXyXyXyXyXqXsXqXsXqX",
"pXqXrXyXyXyXyXyXyXyXrXyXyXyXqXpXqXpXyXyXyXyXyXyXeXeX0X4X4X9X9XeXyXqXeXyXrXrXwXeXyXyXyXyXqXpXqXuXqXyXyXyXqXsXyXyXyXyXyXqXsXyXyXqX",
"0XaXqXpXqXpXqXyXyXqXpXqXpXqXpXqXpXeXpXqXpXqXpXyX8X9X9X1X1X1X<X9X0X0XrXuXuXuXeXwXyXeXpXqXsXqXaXqXaXqXpXqXpXqXyXyXyXyXqXsXqXpXqXaX",
"yXyXyXyXyXyXyXyXyXyXyXyXrXyXqXpXyXyXyXyXyXyXyXqX<X*XOXQ..X#X1X1X<X0XeXrXrXeXqX9XqXyXyXyXqXuXyXyXyXsXrXyXyXyXyXyXyXyXyXyXsXqXsXyX",
"aXqXpXqXpXqXyXyXyXyXqXpXqXpXqXaXqXpXqXpXqXpXeX0X1X.Xd.d.D.).OX+X1X1X<X0X9X9X9X9XqXyXqXpXqXsXqXaXqXpXqXpXqXsXqXyXyXqXsXqXpXqXpX0X",
"qXpXqXpXyXyXyXyXyXyXyXyXpXqXpXqXpXqXpXqXyXyXyXeX#XC.q.q.d.A.G.OX+X#X#X%X,X<X4X4X<XyXyXqXsXqXsXqXpXqXpXqXsXqXyXyXyXyXqXsXqXpXqXaX",
"qXpXqXpXqXyXqXyXyXrXyXqXpXqXaXqXpXqXyXyXyXqXyXeXOXw.6 ! r.C.A.G.OX#X#X+X1X1X,X<X,XqXpXqXsXqXsXqXpXqXpXqXsXqXyXyXyXsXqXyXqXpXqXaX",
"aXqXpXqXpXqXpXqXyXyXqXpXqXpXqXaX0XpXqXpXqXpXyX4XG.q.7 4 y.C.A.Z.).#X#X%X1X<X<X,X8XyXqXpXqXsXqXsXqXaXqXaXqXsXyXyXyXqXsXqXaXqXaXqX",
"yXyXyXyXyXyXyXyXyXyXyXyXyXyXyXyXyXyXyXyXyXyXyX9XD.7.7 e.t.v.n.z.n.~.+X/.~.,X,X#X9XyXyXpXyXyXyXyXqXyXrXyXyXyXqXyXyXyXyXyXyXqXsXqX",
"0XpXqXpXqXyXyXyXyXqXpXqXpXqXpXqXaXqXaXqXuXqXpX0XC.! 1 W z.b.x.x.x.~.~.N.x.1X%X).$XqXyX9XuXqXpXqXaXqXpXqXpXqXuXyXyXyXqXaXqXaXqXaX",
"pXqXyXyXyXyXyXyXyXyXyXyXyXyXyXyXqXyXyXyXqXuXyX9Xv.! 4 Y n x.N.N.N.].+X[.(.:X;Xz.r.yX0X$X-XyXqXpXyXpXyXyXyXyXyXyXyXyXyXyXyXyXpXqX",
"aXqXaXqXyXyXyXyXyXyXyXpXqXpXqXaXqXaXqXaXqXpXyX4XQ W 4 Q m  .N.`._.`.;X;X+X:XR.3 q.aXiX6X3X0XqXaXqXpXqXpXqXpXqXyXyXyXyXqXpXqXaXqX",
"qXpXqXpXqXyXqXyXyXqXuXqXpXqXpXqXpXqXpXqXpXqXpX4X2 Y 4 ~ / X.~.N.L.*.}.%X].].O.# 5 W.*X>X{.5XpXqXpXqXpXqXpXqXyXyXqXyXyXyXqXpXqXaX",
"qXpXqXyXyXyXyXyXyXyXyXqXpXqXuXqXpXqXpXqXyXyXyX9X2 , 3 ~ ..m.~.`.M.4.'.+X[.L.N # ! -X-X X/.3XyXqXpXqXpXqXpXrXpXyXyXyXyXpXqXuXqXaX",
"aXqXaXqXpXqXyXyXyXyXqXpXqXpXqXpXqXaXqXpXqXpXqX0X3 v , W b.m.+.>X{.[.;XP.L.[ t %  XaXyXqXW.3X5XaXqXaXqXpXqXpXqXyXyXyXyXqXaXqXpXqX",
"yXyXyXyXyXyXyXyXyXyXyXyXyXyXyXyXyXyXyXyXyXyXyX0XY w v U z.m.| _.:X`.>XP.c.Z g & oXyXyXyXoX3X0XqXrXyXyXyXyXyXyXyXyXyXyXyXyXyXyXyX",
"0XaXqXaXqXyXqXyXyXqXyXqXuXqXaXqXpXqXpXqXpXqXuXqX( B q I ~ S.c.`.^.>X>X`.O.J g & oXyXpXqX&X5XwXqXaXqXpXqXpXqXyXyXyXyXqXyXqXaXqXaX",
"pXqXpXqXyXyXyXyXyXyXqXyXyXyXqXpXqXuXqXuXyXyXyXqX( g 9 8 ~ N.^.[.^.R.[.P.[ #.i - $XyXyXyXXX<X0XuXqXyXyXyXyXyXyXyXyXyXyXyXyXyXyXqX",
"aXqXaXqXpXqXyXyXyXyXqXpXqXuXqXaXqXpXqXpXqXpXyX0X` x g 8 T o.m.N.~.R._.P.{ #.j - *XpXyXuX X*XwXpXqXaXqXpXqXyXyXyXyXqXpXqXpXqXpXqX",
"qXpXqXpXqXyXqXyXyXyXpXqXpXqXaXqXpXqXpXqXpXqXyXwX_ z i q ( ..x.~.[.:X[.+.#.$.g = %XyXyXyX&X@XwXqXaXqXaXqXyXyXyXqXyXyXqXyXqXaXqXaX",
"qXpXqXpXyXyXyXyXyXyXyXyXyXyXyXqXuXyXpXqXpXqXyXqX` z p e n ..N.S.M._.`.*.#.$.l = %XyXyXyX&XQ.wXqXyXyXyXyXyXqXyXyXyXyXyXyXyXyXyXyX",
"aXqXaXqXpXqXyXyXyXyXqXaXqXaXqXaXqXpXqXpXqXuXyXqX .f p t b ` X.c.c.V.P.} :.$.l = =XuXqXaXoXF.wXpXqXpXqXyXqXpXyXyXyXqXpXqXuXqXpX0X",
"yXyXyXyXyXyXyXyXyXyXyXyXyXyXyXyXyXqXyXyXyXyXyXqX' z u y t M  .M.`.`.J.@.,.$.z = %XyXyXyX-Xl.wXyXyXyXyXyXyXyXyXyXyXyXyXyXyXyXyXyX",
"0XaXqXaXqXyXyXyXyXyXyXqXpXqXaXqXaXqXpXqXuXqXpXqX' z u y p f [ X.V.+.O.=.6.&.x = #XyXpXqX8Xh.wX0XaXqXaXqXyXqXyXyXyXyXqXpXqXpXqXaX",
"pXqXpXqXpXyXyXyXqXyXyXyXqXpXqXpXqXpXqXpXqXyXyXqX' z u y p A F | +.+.{ ,.5.-.z = #XyXyXpX-Xf.wXyXqXpXqXyXyXyXqXyXyXyXyXyXyXqXpXqX",
"aXqXpXqXpXqXyXyXyXsXqXsXqXpXqXpXqXpXqXpXeXpXqXqX .d y y p S D c } } #.U.U.-.z = #XyXqXaX-Xs.wXyXqXpXqXpXqXpXyXyXyXqXyXqXpXqXaXqX",
"qXaXqXpXqXpXqXyXyXqXsXqXpXqXaXqXaXqXaXeXpXqXpXqX] j u y u S D D Z [ K T.Y.-.z : /.yXpXqXqXs.0X8XaXqXaXqXyXyXyXyXyXyXyXpXqXaXqXaX",
"qXyXyXyXyXyXyXyXyXqXyXyXsXyXyXqXpXyXyXeXyXyXyXqX] d y y t A D D x V %.T.Y.-.z > .XsXyXyX8Xp.qX9XyXyXuXqXyXyXyXyXyXyXyXyXyXyXyXyX",
"aXqXaXqXpXqXyXyXyXsXqXsXqXpXqXpXqXpXqXpXeXpXrXqX] j y y a A D S G c %.T.Y.;.z > /.pXqXpX-Xp.rXqXqXaXqXaXqXpXqXyXyXqXyXqXpXqXaX0X",
"yXyXrXyXyXyXqXyXyXyXyXyXyXyXyXrXyXeXpXqXyXyXyX0X] j y y d A D D D S %.T.Y.;.c ; Q.uXyXyX8Xa.qX8XyXyXyXrXyXyXyXyXyXyXyXyXyXyXyXyX",
"qXpXqXpXqXpXyXyXyXqXsXqXpXqXaXqXpXqXaXqXpXeXyXqX_ j u y a A D D S S %.T.U.;.z ; Z.rXpXqX9Xp.rX4XpXqXaXqXpXqXyXqXyXyXqXyXqXpXqXaX",
"aXqXpXqXyXrXyXyXyXyXqXyXqXsXqXsXqXpXqXpXrXpXyX0X| j y u a A A D S S K U.U.;.x ; !.uXyXpXoXa.pXqXqXpXqXuXyXyXyXyXyXyXyXyXpXqXpXqX",
"aXqXpXqXsXqXyXyXyXyXqXsXqXsXqXsXqXpXqXpXqXuXrX0X_ j y u a f A A D S K 5.5.<.x $ A.pXqXpXW.&XpXyXqXpXqXpXqXpXyXyXyXyXyXyXpXqXyXqX",
"qXaXqXpXqXpXqXyXyXqXsXqXsXqXpXqXaXqXpXqXpXqXpX9X/ j y u p d A A S A L 6.5.,.V $ t.sXsX*X%XaXiX0XaX0XpXqXpXqXyXqXqXyXqXaXqXaXqXaX",
"yXyXrXyXyXyXyXyXyXyXyXyXyXeXsXyXyXyXyXyXyXyXyX8X/ j y y p d s A S A L ,.5.2.l $ y.yX4X%XrXaXyXyXyXyXyXyXyXyXyXyXyXyXyXyXyXyXyXyX",
"aXqXaXqXpXqXpXyXyXyXqXpXqXaXqXaXqXaXqXaXeXpXrX<X/ i y y a s s A A S H ,.3.3.h 0 1 k.@XyXuXyXqXaXqXpXqXaXqXyXyXyXyXqXyXqXpXqXaX0X",
"qXpXqXpXrXpXqXyXyXyXsXyXyXqXsXqXyXeXpXqXyXqXuX<Xm i y y a a A A A S G ,.U.U.V 8 * g.uXyXrXqXpXqXyXyXyXyXyXyXyXqXyXyXyXyXyXyXqXpX",
"qXaXqXpXqXpXyXyXyXqXsXqXpXqXpXqXaXqXaXqXpXqXpX,Xm t y y p s s A A A H ,.3.U.V 0 O *XaXqXrXqXpXqXaXqXpXqXpXyXyXyXyXyXyXpXqXaXqXaX",
"aXqXpXqXpXqXyXyXyXyXqXpXqXpXeXpXqXpXqXpXqXuXyX%Xn t t y u a s s A s G ,.2.3.V $ O Q.qXqXqXpXqXpXqXpXqXpXqXyXyXyXyXyXyXqXpXqXpXqX",
"pXqXpXqXyXyXyXyXyXyXqXyXyXsXqXpXqXpXqXpXqXyXyX%XI 9 t y u p f s s s G <.2.2.B 3 6 9.9XsXrXsXqXsXyXpXqXyXyXyXqXyXyXqXyXyXyXyXyXqX",
"0XaXqXaXqXpXqXyXyXyXuXqXsXqXaXqXaXqXaXqXaXqXpX:X3 0 9 9 t p d f a s c ;.<.1.^ 1 6 $XpXqXpXqXpXqXaXqXaXqXyXyXyXyXyXyXqXpXqXaXqXaX",
"yXyXyXyXyXyXyXyXyXqXyXyXyXyXyXyXyXyXyXyXyXyXpX.X~ ` m w e g d d d f H 1.1.1...7.6 8XyXyXyXyXyXyXyXyXyXyXyXyXyXyXqXyXyXyXyXyXyXyX",
"aXqXaXqXpXqXyXyXyXyXqXpXqXaX0XpXqXaX0XpXqXyXyXh.9.r.o.M b w g x x V { K.I.P.!.i.+ &XqXuXqXaXqXaX0XpXqXpXqXyXyXyXyXyXpXqXpXqXaX8X",
"qXpXqXpXyXyXyXyXyXyXyXyXyXyXpXqXyXyXyXyXyXyXyX8.X h.).H.4.*.*.*.@.>.<.I.|.*X!.w..  XpXyXyXyXyXqXyXyXyXqXyXyXyXyXyXyXyXyXyXyXqXpX",
"qXpXqXpXyXyXqXyXyXyXyXqXpXqXpXqXpXqXpXqXpXqXqX@ X W.*X-X0XtX7X2X2X6X7XtXyXqX=Xk.  h.pXqXpXqXaXqXaXqXaXqXpXqXyXyXqXyXqXpXqXaXqXaX",
"aXqXaXqXpXqXyXyXyXyXqXpXqXaXqXpXqXaXqXpXqXpX8X+ R D.Q.=X9XrXuXpXaXuXaXiXwX<X.Xj.o p.yXpXqXpXqXpXqXpXqXpXqXuXqXyXyXyXyXqXpXqXpX0X",
"yXyXyXqXyXyXyXyXyXyXyXyXqXpXyXyXqXyXyXyXyXpX8X0.D.W.j.k.d.r.t.t.v.t.t.C.W.Q.D.k.8.f.yXyXqXyXyXyXyXyXqXyXyXyXyXyXyXyXyXyXyXyXpXqX",
"0XaXqXpXqXpXqXyXyXqXpXqXpXqXaX0XpXqXpXqXpXqXyXl.s.W.Q.Q.j.~ W Y P Y Q n.(.=XXXs.w.-XpXqXuXqXaXqXaXqXpXqXpXqXyXyXyXyXqXpXqXpXqXaX",
"yXyXyXyXyXyXyXyXyXyXqXyXyXyXyXyXyXyXyXyXyXyXyXyX$Xl.l.F.D.j.u.z.z.v.n.).W.l.h. X8XyXyXyXyXyXyXyXyXyXyXyXyXyXyXyXyXyXyXyXyXyXyXyX",
"aXqXpXqXaXqXyXyXyXyXqXpXqXaXqXaXqXaXqXpXqXyXyXyXpXqXqX&X$XXXoXXXXX XXXW.$X-XqXyXyXyXqXpXqXpXqXaXqXaXqXuXqXpXyXyXyXqXpXqXaXqXaX0X",
"qXpXqXpXyXyXqXyXyXyXyXyXpXqXpXqXyXyXyXyXyXyXyXyXyXyXqXpXyXpXyXpXqXsXqXpXyXyXyXqXyXyXyXyXpXqXpXqXpXqXyXyXyXqXyXyXyXyXyXyXqXpXqXpX",
"qXpXqXpXqXyXyXyXyXyXyXqXuXqXpXqXyXqXpXqXpXyXyXyXyXyXqXpXqXpXqXpXqXpXqXpXqXpXyXyXyXqXuXqXuXqXpXqXpXqXpXqXpXyXyXyXyXyXyXpXqXpXqXaX",
"aXqXaXqXyXyXyXyXqXyXyXyXqXaXqXaXqXaXqXpXqXyXyXrXyXyXpXqXpXqXpXqXpXqXaXqXpXqXyXyXyXpXqXpXqXpXqXaXqXaXqXpXqXyXqXyXyXqXyXqXaXqXpXqX",
"yXyXyXyXyXyXyXyXyXyXyXyXyXyXyXyXyXyXyXyXyXyXrXyXyXyXyXqXyXyXyXyXpXqXyXyXyXyXyXyXyXyXyXyXyXyXqXyXyXyXyXyXyXyXyXyXyXyXyXyXyXyXyXqX",
"0XaXqXpXqXpXqXyXyXqXyXqXpXqXpX0XaXqXpXqXpXqXpXqXyXyXqXpXqXaXqXaXqXpXqXpXqXpXqXyXyXqXyXqXpXqXaXqXaXqXpXqXaXqXyXyXyXyXqXpXqXaXqXaX",
"yXyXyXqXyXyXyXyXyXyXyXyXyXyXyXyXqXyXyXyXyXyXyXyXyXyXyXyXyXrXpXqXyXqXyXyXyXyXyXyXyXyXyXyXyXyXqXpXyXyXyXyXyXyXyXyXyXyXyXyXyXyXpXyX",
"aXqXaXqXaXqXyXqXyXpXqXpXqXpXqXaXqXaXqXaXqXyXyXyXyXqXpXqXpXqXaXqXaXqXaXqXpXqXpXqXyXyXqXpXqXaXqXaX0XaXqXyXqXyXqXyXyXqXpXqXpXqXaX8X"
};
