/* XPM */
static char *result[] = {
/* columns rows colors chars-per-pixel */
"64 64 252 2 ",
"   c #333232",
".  c #686938",
"X  c #525536",
"o  c #373743",
"O  c #433F4E",
"+  c #3D4645",
"@  c #4D4A58",
"#  c #5E625E",
"$  c #777A4A",
"%  c #797B54",
"&  c #6A744B",
"*  c #5A5A69",
"=  c #597376",
"-  c #7C7D64",
";  c #77787B",
":  c #6A6C74",
">  c #615C62",
",  c #927B38",
"<  c #A27F3D",
"1  c #93794D",
"2  c #AD785B",
"3  c #817B69",
"4  c #8B6F6B",
"5  c #AD7C66",
"6  c #7C8638",
"7  c #7A8546",
"8  c #798658",
"9  c #6B8E51",
"0  c #7A8265",
"q  c #769978",
"w  c #698D6E",
"e  c #6A987E",
"r  c #B7833A",
"t  c #848A49",
"y  c #8B924B",
"u  c #878958",
"i  c #998956",
"p  c #8B9658",
"a  c #979A57",
"s  c #96904B",
"d  c #AE8755",
"f  c #99A359",
"g  c #95A548",
"h  c #A7AA5C",
"j  c #A9B05A",
"k  c #8B8C6B",
"l  c #868966",
"z  c #8B9566",
"x  c #979867",
"c  c #878B75",
"v  c #979677",
"b  c #8D9370",
"n  c #B58668",
"m  c #A5956C",
"M  c #9AA665",
"N  c #9DA47C",
"B  c #93AF70",
"V  c #A4A667",
"C  c #AAB768",
"Z  c #B7BC6A",
"A  c #A6BA77",
"S  c #A8AD75",
"D  c #FA9977",
"F  c #C4B870",
"G  c #FAA779",
"H  c #DA9373",
"J  c #B9CE57",
"K  c #A8C478",
"L  c #B6C977",
"P  c #B8CC6D",
"I  c #CAD959",
"U  c #D2DB56",
"Y  c #E4DB55",
"T  c #DAE75A",
"R  c #DDE34B",
"E  c #E6EA5A",
"W  c #EBF15D",
"Q  c #C5CD6B",
"!  c #CAD66B",
"~  c #D4DB6B",
"^  c #C7CA75",
"/  c #C9D675",
"(  c #D7DB77",
")  c #DBCA6E",
"_  c #EBD976",
"`  c #DAE46B",
"'  c #DAE768",
"]  c #CBE476",
"[  c #DAE373",
"{  c #DAE47B",
"}  c #D8E777",
"|  c #DBF27C",
" . c #D7EE69",
".. c #E5EB6A",
"X. c #E7F36B",
"o. c #E3ED73",
"O. c #E3EC7B",
"+. c #E9E87A",
"@. c #E7F479",
"#. c #F5F97B",
"$. c #FAF16F",
"%. c #7D7A88",
"&. c #697587",
"*. c #5F6F90",
"=. c #807D90",
"-. c #5D958B",
";. c #768888",
":. c #699689",
">. c #71948E",
",. c #739B88",
"<. c #6D9993",
"1. c #739691",
"2. c #789998",
"3. c #72898B",
"4. c #7AA48A",
"5. c #79A498",
"6. c #7BADA7",
"7. c #79C1BA",
"8. c #949799",
"9. c #8D938E",
"0. c #A09A95",
"q. c #8CA893",
"w. c #A7AB8F",
"e. c #9099A5",
"r. c #95AAAD",
"t. c #94A6AB",
"y. c #94ACB1",
"u. c #8BAFAC",
"i. c #B5B7A8",
"p. c #B6B7B7",
"a. c #ACAEB1",
"s. c #D8998F",
"d. c #FD9C85",
"f. c #F2948E",
"g. c #D3A185",
"h. c #FEA789",
"j. c #FBA898",
"k. c #F8B698",
"l. c #E8AB93",
"z. c #FCAAA2",
"x. c #F5B3B0",
"c. c #E69EA1",
"v. c #ADC686",
"b. c #B6CA87",
"n. c #BAD48F",
"m. c #82C3BC",
"M. c #95C3BA",
"N. c #BCC6AC",
"B. c #C6C984",
"V. c #CAD687",
"C. c #D6DB87",
"Z. c #CDD694",
"A. c #D4DB93",
"S. c #CECD93",
"D. c #ECD68D",
"F. c #DCE484",
"G. c #DAE787",
"H. c #D9E796",
"J. c #CDE590",
"K. c #E4ED84",
"L. c #E1E68C",
"P. c #E3EC8B",
"I. c #EAE987",
"U. c #F4E986",
"Y. c #EBF283",
"T. c #E8F58A",
"R. c #F7FA88",
"E. c #E5EB96",
"W. c #ECF494",
"Q. c #E9F599",
"!. c #F4FA97",
"~. c #F9EE92",
"^. c #C5C5B8",
"/. c #D0D0B1",
"(. c #D9E7A4",
"). c #E7ECA4",
"_. c #F2FAA4",
"`. c #EDF5AE",
"'. c #F1C2AE",
"]. c #B6B2C0",
"[. c #85C9C2",
"{. c #85C8C1",
"}. c #91D3C9",
"|. c #BBC7CB",
" X c #B0CFCC",
".X c #8CE2D6",
"XX c #92E6D7",
"oX c #93E7D8",
"OX c #94E8D9",
"+X c #86FFEA",
"@X c #8AFFEC",
"#X c #87FBE6",
"$X c #95FBEB",
"%X c #96FFF2",
"&X c #99FFF5",
"*X c #9AFFF8",
"=X c #88FFF0",
"-X c #A4FBEC",
";X c #A9FFF5",
":X c #ABF6EC",
">X c #B2D8E3",
",X c #C6C7C6",
"<X c #D7D8C9",
"1X c #C9CBD5",
"2X c #D7D7D8",
"3X c #CBD1CE",
"4X c #E9DED9",
"5X c #DAE1CD",
"6X c #DBE6DB",
"7X c #EBEDDD",
"8X c #E5E5D8",
"9X c #F9FADB",
"0X c #EBE8D6",
"qX c #D9DAE4",
"wX c #D4D5F1",
"eX c #E2DFF3",
"rX c #D9E2E7",
"tX c #D6F3EE",
"yX c #E5E5E3",
"uX c #ECE5E5",
"iX c #EBEBE5",
"pX c #ECEDEC",
"aX c #E6E8E8",
"sX c #F4ECEC",
"dX c #F5E9E9",
"fX c #EDF1E4",
"gX c #E4F2EC",
"hX c #EDF1EC",
"jX c #E7F6E5",
"kX c #F3F4E5",
"lX c #F3F3EC",
"zX c #FDFEEB",
"xX c #F9F9E8",
"cX c #ECECF3",
"vX c #EDECFB",
"bX c #E6E6FA",
"nX c #F3EEF2",
"mX c #F8EDF2",
"MX c #F1EDFA",
"NX c #FAEDFA",
"BX c #E4F4F3",
"VX c #ECF3F1",
"CX c #ECFAF5",
"ZX c #EAF9FB",
"AX c #F4F4F4",
"SX c #FBF4F4",
"DX c #F5F9F5",
"FX c #FBFCF5",
"GX c #F4F4FC",
"HX c #FCF6FC",
"JX c #F5FCFB",
"KX c #FDFDFD",
/* pixels */
"pXpXpXpXAXKXKXKXKXAXpXpXaXaXnXKXKXKXKXGXAXpXpXnXAXHXKXKXKXFXVXaXaXpXAXFXKXKXKXKXpXpXpXpXAXKXKXKXKXAXpXpXpXpXVXKXKXKXKXAXAXpXpXpX",
"AXAXcXpXAXKXKXKXKXDXpXpXpXaXAXKXKXKXKXFXpXpXpXVXAXFXKXKXKXHXnXpXpXnXDXKXKXKXKXFXpXpXAXpXAXKXKXKXKXAXpXpXaXpXAXKXKXKXKXJXpXpXpXAX",
"pXpXlXpXGXKXKXKXKXGXpXpXpXpXAXKXKXKXKXJXAXpXpXpXDXJXKXKXKXFXpXpXpXVXSXKXKXKXHXFXpXpXhXpXAXKXKXKXKXAXpXpXpXpXAXKXKXKXKXHXpXpXpXpX",
"pXpXpXAXFXKXKXKXKXFXAXpXpXAXAXKXKXKXKXHXsXpXaXaXSXKXKXKXKXFXAXpXpXpXGXKXKXKXKXKXaXpXnXAXFXKXKXKXKXAXpXpXcXAXFXHXKXKXKXFXAXpXpXaX",
"AXcXAXAXFXHXKXKXAXJXAXAXAXAXFXJXKXFXHXFXFXAXAXAXSXHXFXHXFXGXAXAXcXVXGXFXKXKXFXHXAXAXAXAXJXFXFXKXFXGXAXAXAXAXAXFXKXKXFXFXAXAXAXnX",
"KXKXKXKXAXVXcXAXAXAXHXFXDXHXSXAXAXpXVXAXHXKXKXKXGXDXAXAXAXAXGXFXKXFXSXAXAXAXAXAXKXKXKXKXSXpXcXnXAXFXHXFXGXFXAXAXlXcXcXGXKXKXKXKX",
"KXKXKXKXFXpXpXVXpXAXKXKXKXKXFXcXpXpXpXGXKXKXKXKXAXAXpXpXcXAXDXKXKXKXAXpXpXpXVXAXKXKXKXKXJXpXaXpXpXDXKXKXKXKXFXpXpXpXpXAXKXKXKXKX",
"KXKXKXKXHXpXpXAXpXAXKXKXKXKXGXpXpXpXAXFXKXKXKXKXAXhXpXaXpXAXKXKXKXHXlXpXaXpXcXAXKXKXKXKXHXpXpXAXaXGXKXKXKXKXGXpXcXpXAXFXKXKXKXKX",
"HXKXKXKXNXmXmXdX4XAXKXFXFXFXFXpXAXcXVXGXKXKXKXKXDXcXpXpXcXJXKXKXKXKXDXcXpXcXVXGXKXKXKXJXGXcXcXpXaXDXFXKXKXKXFXaXpXSXmXSXKXKXKXKX",
"KXGXHXKXlXVXAXVXAXGXKXKXKXKXFXDXDXDXGXAXHXKXSXJXGXAXGXAXAXGXKXHXKXHXDXDXAXAXGXJXKXKXKXHXJXFXGXFXDXJXKXJXFXJXJXVXVXAXVXVXHXJXDXKX",
"CXgXCXCXgXDXJXJXJXDXVXVXAXAXAXAXFXHXHXDXAXAXpXAXAXAXHXKXJXFXAXpXpXsXGXFXKXKXFXFXpXpXhXAXSXAXFXHXDXDXVXAXhXgXVXJXJXJXCXgXCXBXtXCX",
"BXaXgXVXBXKXKXKXKXAXcXcXnXcXNXHXHXKXKXHXlXsXdXsXSXHXKXKXKXSXsXsXuXsXHXKXKXHXHXSXdXuXsXsXSXSXHXHXKXAXcXnXpXcXGXKXJXKXKXBXVXBXaXVX",
"lXuXpXpXAXKXKXSXKXHXGXGXGXMXHXKXKXKXKXKXSXAXAXSXHXHXKXKXKXHXSXnXmXGXHXKXKXKXHXHXnXSXGXSXKXKXKXKXKXKXGXGXNXGXHXKXAXKXKXAXlXpXpXsX",
"sXuXdXsXhXKXKXrXe.t.t.u.t.u.y.y.y.y.y.y.t.t.t.r.r.r.r.r.y.r.r.r.t.t.r.r.y.y.r.y.t.t.r.r.t.r.r.y.y.y.t.t.t.a.e.9.qXGXKXmXsXsXdXdX",
"xXhXAXAXCXZXVX X1.u.}.u.6.{.[.7.[.[.{.{.[.[.[.m.[.m.[.[.[.[.{.{.[.{.{.[.[.[.[.[.m.m.m.m.{.7.m.{.7.[.{.6.m.{.6.w  XgXJXCXAXDXsXSX",
"JXDXJXCXBXZXtX}.m.-X;X;X=X*X%X#X%X%X$X%X*X*X&X$X&X&X&X&X*X%X%X%X$X%X%X%X&X&X&X&X%X%X*X%X%X%X%X%X=X*X;X*X&X;X}.-.M.tXZXCXJXKXFXFX",
"KXJXxX9XxXjXtX>X*.6.e.q.w 4.4.q q q 4.q.<.2.5.2.q.:.4.4.q.e q.5.,.4.4.,.5.5.5.:.5.5.,.4.,.q.e 4.4.,.,.5.>.u.&.=  XrXZXZXCXJXDXDX",
"HXHXFXzXzXlXcXeX1X8.b v.L K C K K P v.A B Z.v.v.B K K K C A n.A K A K b.K C B v.v.A B n.K K b.K K K K v.b b w a.rXvXJXGXHXKXKXKX",
"HXHXKXFXmXdXuXdXdXm ^ T.@.' ..R.#. .} R.O.Y.P ' @.R.X.@.@.o.Y.! T.O..... .X...#.` O.K.Y.} ` R.U X.X.@.T.^ f i 9X7XdXmXNXHXKXKXHX",
"HXKXKXHXxXdXdXmX0Xm L.o.X.X.+.~ @.Y.[ R.Y.+.X.R.R U R U @.Y.Y.!.K.+...X.W $.E T +.R.~.( I.Y.~.#.W X.U @.{ h $ 9XdXkXmXNXHXKXKXHX",
"BXBXaXjXlXKXKXKXzXb C.! } E.Z i $ S $ t y 6 P / T.} !.g g p $ k u x a ( [ [ ~ ( 6 t i % v x . j ` o.~ C.A.V % 7XKXKXKXGXcXgXVXjX",
"gXjX6XjXAXKXKXJXJXl A.H.H.H.b 0.2XrX3X,X<X& A H.J./ (.7 N.2X2X1X1Xi.& Z.Q.J.J.Z.u 3XqX1X2XrXc u G.!.G.H.Z.N c FXJXKXJXZXgXyX6XjX",
"DXVXaXpXGXHXHXJXxXp H.Q.G.H.l <XKXbXKXaXzXu S `.H.V.A.t zX8XHXHXJXAX& (.Q.] J.f w.JXvXKXbXZX,X8 F.o.] G.B.x 0 FXAXKXKXNXpXsXkXlX",
"mXcXcXNXNXHXKXKXzXa ! ` ( Q.u /.> %.<X+ b u P G.| { / t (.  a.].  i.& J.! ] !.j A w.  2X%.# w.t Y.T U @.C.m l xXHXKXKXNXmXmXdXfX",
"pXcXvXMXFXFXFXzXzXl V.O.! !.u /.9.9.nX=.i.0.a !.L.C.S.b 8X0 p.,X=.].0 S./ T.T.K N ,X&.wXa.=.i.& L.[ [ @.Q f % SXKXKXFXlXkXfXvXMX",
"KXKXHXHXAXlX7X7XkXk A.T.[ !.u <XSXKXHXyXFX1 Z W.[ I.A.$ zXaXKXJXGX2X& (.T.} ] K w.HXNXKXMXKXi.1 E.[ o.O./ V 3 AXcXvXhXkXxXFXKXKX",
"FXKXKXKXGXlXiXiXdXb A.L.( E.1 <X0.e.qX; i.l j !.~ I.E.% <X; p.1X; i.$ J.K.| T.C N ^.; vX8.9.^.& Q.` ` O.Q V % AXMXvXiXlXzXKXKXKX",
"xXKXKXKXSXAXxXlXsX9.Z.( C.E.k 2X: * bXO c w.h R.[ ( (.l 2X@ %.1Xo w.u V.C.H._.V v p.  eX=.O ^.& Q.[ ' } / V - dXGXNXlXxXFXKXKXGX",
"FXKXKXKXGXpXpXpXlXv V.C.Y.E.v ^.NXNXHXeXHX3 w.Y.F.C.S.- JXKXKXKXzX0X% S.E.V.E.S v KX2XHXKXNX0.b Q.[ ' O./ V % pXvXcXfXlXFXKXKXKX",
"zXKXKXHXAXlXlXlXSXc Z.{ @.[ a N <X6X,X2X5XX ^ F.( I.A.$ ^.5X5X^.0Xw.. B.`.H.A.b.% /.8X^.,XsX- u E.[ ` O.Q V l mXMXcXhXlXFXFXKXKX",
"kXhXVXvXGXKXFXKXFXk A.O.' I j M y 7 p 8 x i P O.` ` P.V t 7 6 f t y g ^ T.K.I.( g s t p 1 y a h G.[ ` O./ V l FXKXKXFXxXkXlXvXvX",
"lXhXpXcXAXKXKXFXFXu F.@.T ..L.H.T.| _.H.E.W.[ ..X.U  .K.} !.} | P.T.!.} ` ~ ` o.K.I.L.H.!.G.K.W.} [ ` O.Q f 3 HXKXKXFXxXfXpXvXvX",
"fXAXvXbXAXKXKXSXxXx G. .T ' C.L. .R J I.L.( o.~ ..T @.~ { | I  ...E T @.` Y.| ! G.{ T.{ T.| | { Q.P.X.T ~ f c JXKXJXJXGXGXMXmXmX",
"aXpXcXvXGXKXKXFXFXk V.~ T ..C.E. .K.L.E.B.!.Y.....+.[ C.E.G.G.!.F.W.F.P.! { P.P.G.Z ^ j F F F Z h F '  .{ f 0 JXKXKXFXDXMXMXpXpX",
"fXlXGXMXGXKXKXFXSXk Z.{ ..O.V N 7 a u x u a Q ~ ` @.L.a p u 7 z 8 z f H.H.H.F.C.Q , d i n n n n 1 s ~ o.( M - AXKXFXFXDXGXnXsXdX",
"FXJXKXHXHXFXAXsXsXc A.L.@.L.u v 7X2Xp.2X<X. Z T.~ Q ).& i.yX3X3X6Xw.& v.G.G.~ +.U.h l.l.x.z.j.z.1 s { o./ x ; AXlXhXfXlXDXKXFXFX",
"FXKXKXKXHXVXpXiXsXc A.C.[ E.v ^.KXbXKXbXKX3 Z P.+./ ).% KXvXKXMXBX2X9 n.] | ' @.) < G j.z.f.f.j.n i I.+.^ x 3 AXiX7XfXxXKXKXKXKX",
"KXKXKXKXHXlXaXiXiXk A.L.( Q.x <X# * bX@ 0.k j G.{ !.S.- 8Xo ].t.+ w.u H.} X.' .._ s l.l.f.d.d.j.n u U.+.^ S 3 uXfXiXfXlXKXKXKXKX",
"KXHXKXKXFXpXiXhX0Xk A.Y.[ W.$ ^.9.8.bX: w.9.C Q.J E.Z.l 8X# ,X2X: N.% Z.!  .~ +.D.2 k.c.f.j.d.h.n 1 U.U.^ V 4 dXlXkXiXAXKXKXKXKX",
"KXKXKXKXAXiX7XkX9Xx V.[ U ~.t 5XDXKXKXKXFX8 C P.T.G.A.$ zXFXjXJXKXnX. A.G.O.! I.S.1 x.c.f.j.d.D n 1 U.U.F h 3 sXkXiXkXAXKXKXKXHX",
"aXpXiXpXMXKXKXKX9Xt  . .I _.u i.8.e.MX: ^.k C [ | } L z kX# |.qX= ,X9 L G. .I ( D.1 5 s.x.c.z.j.n , Y.` ] f 8 FXzXzXxXkXsXGXVXaX",
"7XfXfXiXGXKXKXKXzXt Q | C.`.3 2X= ; |.+ 9.% P R.I T.Q.8 N.+ 8.a.@ 0.. A.R.....#.D.2 H f.h.D D G 2 s ~.o.P z - KXFXFXKXSXMXMXZXBX",
"7X7X7XiXGXKXKXKXFXx B.L.H.`.4 2XAXZXJXMXKX0 M G.G.C.n.l CXKXJXJXKXpXl S.C.) _ U._ d k.d.d.h.D D 2 i ~.( / B c KXHXKXKXSXbXbXbXZX",
"fXgXfXiXsXHXKXHX9Xm A.F.C.).k 0.<X,X|.qX2X% S `.E.).S.3 i.qX3X|.3Xa.# n.H.H.E.C.'.i '.c.c.j.D j.2 1 _ ( C.V c SXFXKXKXSXbXbXBXbX",
"GXGXAXhXAXFXHXAX9Xp ( @.I @.P y t f 1 l k s ( U...+.~.a i x 7 f 7 p g G.| ` Y.C.D.1 l.l.l.j.D j.n i +.+.| p 0 iXxXxXxXkXAXDXZXgX",
"HXKXKXFXDXFXHXpXzXz V.T.| | K.]  .#.K.!.W.~ ..R E R X.~ Y.!.[ @.#.#...$.Y Y $._ _ r G h.k.h.D j.2 d W.Y.G.p q zXkXkXxXxXKXKXFXlX",
"KXKXKXzXFXDXcXeX3Xc v.v.J.P n.J.] J P J.J.L / ] I J J.V.V.L P ] ! / P ^ C./ A.^ g.i g.g.g.s.s.s.4 k B.P v.q ;.2X2XiXxXSXKXKXKXJX",
"KXKXzXzXlXhXrXwX&.;.2.9 B 9 9 q w 9 ,.:.3.>.9.w q q e w ,.e e w :.:.:.:.:.-.-.:.4.w <.3.9.%.9.=.=.; z 9 b q = *.1XyXnXHXHXKXKXKX",
"KXSXKXKXBXZXtXm.6.$X;X$X#X$X+X+X+X+X+X+X+X@X+X@X@X@X@X@X@X@X@X@X+X@X@X@X@X@X@X+X#X+X+X@X@X+X+X+X#X%X*X%X-X;X}.-.M.tXZXVXKXKXmXHX",
"HXdXHXKXpXDXBX X5. X>X}..X.X.X.XOXOXoXoXXXXXXX.XXXXXXXXXoXXXOXOXoXoXoXXXOXoXoXOXOXOXOXOXOXoXXX.X}..X.X}.}.XXu.:. XBXCXpXKXKXdXKX",
"mX4XmXmXsXKXKXrX;.8.e.2.2.2.2.6.1.1.1.>.>.>.>.>.>.1.>.1.1.1.>.>.>.>.>.>.>.>.1.2.>.1.>.>.>.>.>.1.6.<.<.<.2.2.>.&.6XJXJXpXSXsX8XmX",
"dX7XsXmXAXKXKXGXJXKXZXcXGXZXMXHXKXKXKXKXJXFXGXFXKXKXKXKXKXKXFXAXAXJXKXKXKXKXKXKXJXDXDXGXFXKXKXKXJXZXZXZXZXZXJXKXZXJXKXAXAXpXyXlX",
"GXhXVXVXVXJXKXJXKXHXaXyXcXpXcXKXKXFXFXSXlXsXiXiXSXFXKXKXKXFXiXiXuXsXAXFXKXFXKXFXuXiXdXsXAXFXHXKXHXMXuXuXuXeXnXKXHXKXKXVXhXAXpXDX",
"gXgXgXgXCXJXJXKXKXKXAXgXGXAXAXKXKXKXFXAXlXiXyXyXAXFXKXKXKXlXpXaXiXhXAXFXKXKXFXFXiXaXiXhXAXFXKXKXHXHXSXmXmXmXHXKXKXKXFXAXpXpXpXpX",
"pXMXpXAXJXDXSXKXpXJXlXsXAXAXpXAXFXJXFXGXDXAXAXAXDXFXDXFXFXFXGXFXAXFXFXDXFXJXFXFXAXAXDXDXFXJXDXAXlXAXAXDXAXSXAXAXKXSXFXSXMXAXVXaX",
"HXKXKXHXHXsXuXmXuXKXKXFXKXKXSXlXpXpXnXAXFXKXKXKXAXAXnXpXlXAXKXKXKXHXAXAXlXnXMXDXKXKXKXFXSXAXpXpXiXDXDXDXFXKXJXfXVXaXlXJXHXKXKXKX",
"KXKXKXKXHXpXpXcXpXFXKXKXKXKXKXAXpXpXpXAXKXKXKXKXAXAXcXpXcXAXFXKXKXJXJXAXsXVXAXAXKXKXKXKXFXcXaXnXVXHXKXKXKXKXFXpXpXpXcXAXKXKXKXKX",
"KXKXKXKXJXpXaXpXpXGXKXKXKXKXFXpXpXpXVXAXKXKXKXKXAXAXpXpXpXAXKXKXKXKXAXpXpXpXnXAXKXKXKXKXFXpXpXlXpXFXKXKXKXKXJXpXpXpXlXAXKXKXKXKX",
"KXKXKXKXHXlXpXlXpXAXKXKXKXKXGXpXcXsXAXDXKXKXKXKXAXAXpXpXnXAXKXKXKXHXAXpXpXpXhXAXKXKXKXKXSXlXpXAXpXAXKXKXKXKXGXpXcXsXAXJXKXKXKXKX",
"GXFXGXFXFXAXGXFXnXAXFXHXKXKXAXAXAXAXAXGXFXHXFXJXAXAXAXAXAXDXFXKXKXFXAXAXhXAXGXAXGXAXFXGXJXGXAXGXAXAXKXHXJXKXDXAXAXAXAXAXJXFXHXFX",
"lXcXAXAXFXKXKXKXKXSXAXAXAXAXAXJXKXKXJXSXAXAXpXAXAXFXHXKXKXJXAXpXAXAXGXKXKXKXHXJXpXAXAXAXFXKXKXKXHXGXAXAXAXAXAXHXKXKXHXAXAXAXcXlX",
"pXpXpXpXAXKXKXKXKXDXVXpXpXpXDXKXKXKXKXFXAXpXpXpXAXKXKXKXKXFXpXaXaXpXFXKXKXKXKXKXpXpXpXpXGXKXKXKXKXFXpXpXpXpXFXKXKXKXKXFXAXpXpXpX",
"pXpXpXpXAXKXKXKXKXFXpXpXpXpXAXKXKXKXKXFXpXpXpXAXGXFXKXKXKXHXhXpXpXpXFXKXKXKXKXKXpXpXpXpXAXKXKXKXKXAXpXpXpXpXAXKXKXKXKXGXcXpXpXpX",
"AXpXpXpXAXKXKXKXKXGXpXnXpXpXAXKXKXKXHXAXpXpXpXAXAXKXKXKXKXFXAXpXpXnXAXKXKXKXKXKXpXpXAXpXAXKXKXKXKXAXpXpXpXAXAXKXKXKXKXDXsXpXpXAX"
};
