/* XPM */
static char *result[] = {
/* columns rows colors chars-per-pixel */
"64 64 31 1 ",
"  c #D2D3CE",
". c #CFD3D4",
"X c #D5D5D5",
"o c #D8D7D6",
"O c #D6D8D7",
"+ c #D9D9D7",
"@ c #D6D7D9",
"# c #D9D7D9",
"$ c #D7D9D9",
"% c #DCDCDC",
"& c #DEE0DF",
"* c #E1E1DF",
"= c #DEDEE2",
"- c #E0DFE4",
"; c #DEE1E2",
": c #E4E4E5",
"> c #E8E7E5",
", c #E6E8E7",
"< c #E9E9E7",
"1 c #E6E6E9",
"2 c #E8E7EB",
"3 c #E7E9E9",
"4 c #EBEBEC",
"5 c #EEF0ED",
"6 c #EDEDF1",
"7 c #F0EFF4",
"8 c #F3F3F3",
"9 c #F6F8F7",
"0 c #F9F9F7",
"q c #F6F6F8",
"w c #FDFDFD",
/* pixels */
"wwwww77458wwwww4845qwwwwq44548wwwwq4445wwwwwq4585wwwww84484wwwww",
"wwwww45448wwwww44448wwwww4484qwwww04844qwwww8444<wwwww84444wwwww",
"wwwww55558wwwww88548wwww05484qwwww045440wwww85574wwwwwq5885wwwww",
"wwwww544>7wwwww44448wwww054440wwwwq4544wwwww85444wwwww74448wwwww",
"wwwwq878580www8888880www07888qw0wwq8857wwwwwq888q0www0854480wwww",
"84585wwwww7548qwwwww57540wwww88545qwww004758qwwwwq7457wwwww88844",
"48475wwwww57555wwww05554qwwww84544qwwwwq45450wwww845750wwww74557",
"45545wwwww47548wwwwq55847wwwwq45540wwww74844wwwww55484wwwww57554",
"544487:84444446774621-:-544864264744621--244552474661:12114q4444",
"85q88>%4>>:::4462--1-=-%4<>:11<6441<1-=-=-<>:>144<24<111==-q555q",
"wwwww:*4<>>4466461112-1#<4:11466661-1111%14<:444444411111--wwwww",
"wwwww*:4<444664261-1211o4>:14444272--211#:2<:4446472-=121:=wwwww",
"wwwww%:4:::4441:4:=-1:<+44::4441162=-141%:41:<444<21==:1::owwwww",
"wwwww:%>:::<44:44::14<4%>:::<44422<221>4*-1:-1444::14:1:44%wwwww",
"wwwww:X-:*::<:::<44:4:: %:**:::<2<1<<1:4##::=:::4:>444414::w0www",
"44448:o:1::4<::4:><:4>: -:1<>:1:<2<:<<4>%X-<14::<:>>:::>:::84444",
"44557<#:11::4<<4**<,<4:X*:>::<4:<::::333%%:::::4:44:*,,3,*&8<454",
"855584*<:::::4<:><,::,,+:::::>1<4<:4,:35o*:::::<:4>:,,,,3,,95558",
"44447>%<:**:::>:*<<,:,:X::*:::::::,,:;:3o*::**:::,*>3,::,*&8<444",
"88880:%1::>:>1444<4333:o:*::<::4<4434,43%-::::4:<,<43333<,,98qq8",
"wwwww-%:::::::1153;,3;&O:::::111,44:333:X%::::>:::333:333%&wwwww",
"wwwww*%>:*%:,11:3;;,3,&O>::%:1:::1:;;33;X%4:-%:::,33::33,%%wwwww",
"wwwww-%>:*%:::;1;::33,&.:>:%*::=3::::633o%::*%:1*:3:;:33,%;wwwww",
"wwwww%X%%oo%%X==$=&&&&% o%%Xo%%#=%@=%;%%XX%%oX%%o$&%$=;$&$%wwwww",
"ww8wq>*4::1:==11:;::-:-%2-11<:=-:3::::=;%:1:11:=-1<1:::-;::w8wq0",
"44448>-4446331674341--:=66664116661:1::1%:64461:2264:::::::q454<",
"545484:4,4311466414:=1:=64<1>:2666111-=1%:4422416462<:1-==:84847",
"848484*4>,1:14641-1:-:-#12<::446262111--%:4:::4462661--1==18<847",
"54448>%44:14444461-221=%<<<14444262--221o:<41<4446661-12:::q4444",
"0qqqw::4::1444436-=111:%41::444<661=-211%:4<>>444442--11-:*08000",
"wwwww::>::1344331:=::21%41:14442121--:12%:::::44411<:-:121-wwwww",
"wwwww%%::;::41:1<24412<#:--:::44:1<421<6%%-:::::2112<11<21%wwwww",
"wwwww*X:::::::::44:,44*X%:::::<:<<:4:4,3%X%>::::::44<<,3<<%wwwww",
"wwwww-o::>:4<444::,<<4:X*::::<41<<:<,<,4%X::::44<:<>::,,<,&wwwww",
"qq800:%:4:::4:4>::><,4:o::<::4:4<::>:,,4%%>:::>:<<::><:,:,&98wq0",
"4444q:%>:*::>::<*:>::<:+<*:-:::1>::<<:,3%=>:%:::><>:<:*,3,&54444",
"57548:%:%:::::::<<<>:3:X>:*::::1:,334:,4#%::::::>>::4>:,<::04584",
"55548:*::::>4:<45<<,33:X*:*<4:4:<443,,33%%:::4>>:<<<43333*:84454",
"4555q:%<:::::3::23:33:&o*:::::1:,,3;333;X*4:*::4::13:3331%:85555",
"00qqw:%:::%::1::1;:43:%X:::%%1::1:;;363;X%::%%%:::31;;331@-qq000",
"wwwww:X%*%%**%;:;;::::=X*:%%%:;=::::1:::o#-%%=%:%;:=;::;:;%wwwww",
"wwwww%o:%%%%%%%;%@%=%%%.%%%+%%$#&%%o%%%%X#:=%-=%%%==%%;=%%%wwwww",
"wwwww::44444:14641411:1-64444:3344312112-144461:2461:32;1::wwwww",
"wwwww::41444:3464:1:-%-#4>4:<:3666211---%141161:2666112==-:wwwww",
"08qqq:*4443134666-111--=44:4:3362621:---=:44<4<46662111===:08088",
"4<448<:4<::1446461-22--%44:3:266662:-1::%:<4:1<461621;11:-:84444",
"8454q<*4<,4466646--12-:#<,::3664261=1121%:4<:>4464641:16:-:84758",
"44748<*4:::443:>4==-2::%4:<:444124:=-111+*<::44<<121==;1:-<84844",
"544444%4:::<4421<,<<:<>%<:-:44143::44:,5%=11::<<4111,,::4:-75544",
"wwwww:o::%::1:::4:4,>4:+:::-::::4:4<,,,4%=;;;:::11:<,,33<::ww0ww",
"wwwww:o%::::1:4<4,,,<4: **::<::<<1:<,4<<Xo:::1:<1>4:<,33<:%wwwww",
"wwwww%%:4:>44<44:::<:4:X*:>:<<<<<>:<::,<+%1313<<>4<:,<,<11%wwwww",
"wwwww:*>:::::<11*<<<,3:O*<**:>:*<::>,:,3%%:,::::4<<::>,&3:%wwwww",
"wwwww:%:**::><>:><<,,3:$>:***:::4::<3;,3%%::*:::::::><,,,:%wwwww",
"8q88q:%::::<:>44<<,3,,;$::*:<<>4<<4<:333o%:**,<,::4><<333:*07788",
"444554%:*:<<:::<5<<,33;$::::<<::244<345:O&<**<4:<144<3<4,;>75545",
"7455q<o::%%-:>::3;=33;$.:::%*:::11:;;31; %:::%-43;;:;;34:X:84545",
"757475:75:*:<::4>44433:&444::::::1137772%::::::4313333444:454548",
"<4558w0wwq48448wwww0884300wwww8468qwwwqq4848wwwwwq7468wwww0q4844",
"wwww087580wwwww875500www058848wwww88857qwwww88457qwwwwq5488wwwww",
"wwww0775:8wwwww:8448wwww044440wwwwq4435wwwww88458qwwww84454wwwww",
"wwww05545qwwwww8454qwwwwq45740wwww888448wwww84445wwwww84444wwwww",
"wwwww55848wwww044558wwww0555:qwwww84848wwwww84884wwwww88884wwwww",
"wwwww54448wwwww55548wwwwq4754wwwwwq36668wwww84544wwww084458wwwww"
};
