/* XPM */
static char *result[] = {
/* columns rows colors chars-per-pixel */
"64 64 246 2 ",
"   c #07060D",
".  c #140D0B",
"X  c #0B0B17",
"o  c #120D15",
"O  c #130F19",
"+  c #0E141D",
"@  c #1A1216",
"#  c #15121B",
"$  c #1A151C",
"%  c #1E191E",
"&  c #361209",
"*  c #221B1D",
"=  c #281C1C",
"-  c #3F200F",
";  c #2B241D",
":  c #141722",
">  c #101627",
",  c #1D1A22",
"<  c #221D22",
"1  c #241F26",
"2  c #1C2134",
"3  c #262125",
"4  c #2B2324",
"5  c #2B2B24",
"6  c #252229",
"7  c #2A262A",
"8  c #2E292C",
"9  c #342524",
"0  c #392826",
"q  c #322B2C",
"w  c #3C2C2B",
"e  c #2F362B",
"r  c #3A352D",
"t  c #2C2C33",
"y  c #282B37",
"u  c #332E32",
"i  c #3E2D31",
"p  c #2E323D",
"a  c #363133",
"s  c #3B3434",
"d  c #3B363A",
"f  c #373838",
"g  c #3D393C",
"h  c #43190B",
"j  c #502D16",
"k  c #472A29",
"l  c #432D2A",
"z  c #4C2D2F",
"x  c #453629",
"c  c #45322D",
"v  c #4A322E",
"b  c #51372E",
"n  c #443533",
"m  c #4C3532",
"M  c #473A35",
"N  c #433C3C",
"B  c #4B3D3A",
"V  c #533632",
"C  c #5A3432",
"Z  c #543A34",
"A  c #5B3C35",
"S  c #543D39",
"D  c #5B3D3A",
"F  c #663C37",
"G  c #743F37",
"H  c #394432",
"J  c #4F4F2B",
"K  c #4A5325",
"L  c #48463B",
"P  c #5C4037",
"I  c #55423C",
"U  c #5C443C",
"Y  c #71552E",
"T  c #63433C",
"R  c #6A463C",
"E  c #73483D",
"W  c #6D7438",
"Q  c #2C3545",
"!  c #373A45",
"~  c #423E42",
"^  c #3C4249",
"/  c #3A4258",
"(  c #444144",
")  c #484648",
"_  c #564946",
"`  c #55574B",
"'  c #50514C",
"]  c #494B54",
"[  c #57575A",
"{  c #674843",
"}  c #6C4C43",
"|  c #734D46",
" . c #69524B",
".. c #775446",
"X. c #74534A",
"o. c #7B554C",
"O. c #7C5A4D",
"+. c #675755",
"@. c #7A5A52",
"#. c #5D6353",
"$. c #726358",
"%. c #4E5A6B",
"&. c #575B64",
"*. c #5D656A",
"=. c #5A6476",
"-. c #666869",
";. c #786E69",
":. c #666B76",
">. c #6C7374",
",. c #767978",
"<. c #925D2A",
"1. c #986931",
"2. c #8E554C",
"3. c #835B4B",
"4. c #87584B",
"5. c #855853",
"6. c #845C52",
"7. c #89614D",
"8. c #926C46",
"9. c #8A6353",
"0. c #886459",
"q. c #966957",
"w. c #946B5B",
"e. c #96735E",
"r. c #9C735C",
"t. c #A26C5C",
"y. c #A5755C",
"u. c #966D62",
"i. c #89706A",
"p. c #9B7364",
"a. c #9B7768",
"s. c #A57564",
"d. c #A47A63",
"f. c #AB7C64",
"g. c #AA756C",
"h. c #A37B6B",
"j. c #AC7D6A",
"k. c #B37B66",
"l. c #AA7E72",
"z. c #718B4C",
"x. c #7E827E",
"c. c #8F8B3C",
"v. c #899342",
"b. c #86897C",
"n. c #928879",
"m. c #AB826B",
"M. c #B6876B",
"N. c #B3836C",
"B. c #AB8574",
"V. c #B48876",
"C. c #BA8B74",
"Z. c #BB8D7A",
"A. c #BC927A",
"S. c #E9AD4E",
"D. c #C2897C",
"F. c #C3947B",
"G. c #E8B36A",
"H. c #556C89",
"J. c #767C85",
"K. c #697990",
"L. c #7B8288",
"P. c #7A8795",
"I. c #6E91B3",
"U. c #6D9CC5",
"Y. c #6D9FC9",
"T. c #719DC5",
"R. c #6FA0CA",
"E. c #7BA0C0",
"W. c #72A3CC",
"Q. c #868987",
"!. c #8D9189",
"~. c #93968B",
"^. c #878C93",
"/. c #8B9396",
"(. c #9B9D94",
"). c #969A98",
"_. c #BC9584",
"`. c #B1928A",
"'. c #9EA197",
"]. c #9DA19C",
"[. c #A2A59C",
"{. c #A6A79C",
"}. c #BDA29A",
"|. c #8898A9",
" X c #969EA6",
".X c #9DA3A6",
"XX c #95A5B6",
"oX c #A2A6A2",
"OX c #A5A9A4",
"+X c #A9ADA6",
"@X c #B1B0A7",
"#X c #B2B4AB",
"$X c #B7B7AC",
"%X c #A7AEB4",
"&X c #ACB3B5",
"*X c #ABB4BA",
"=X c #B4BABA",
"-X c #C39583",
";X c #C59A85",
":X c #C99C8A",
">X c #CE9D90",
",X c #CAA28D",
"<X c #CDA495",
"1X c #D9AE97",
"2X c #D5A898",
"3X c #E0B49F",
"4X c #DBADA2",
"5X c #DCB2A5",
"6X c #E3B8A8",
"7X c #E6BDB2",
"8X c #BFC2B7",
"9X c #C4C5B8",
"0X c #C9CABD",
"qX c #EAC5B4",
"wX c #86AED0",
"eX c #8DB1D1",
"rX c #97B6D2",
"tX c #AEB9C4",
"yX c #B5BDC3",
"uX c #A3BCD4",
"iX c #ACC0CF",
"pX c #BAC3C8",
"aX c #ADC2D4",
"sX c #B6C7D5",
"dX c #BCCCDA",
"fX c #C6CAC8",
"gX c #D1D1C6",
"hX c #C3CED6",
"jX c #C2D1DE",
"kX c #CBD4D8",
"lX c #D5DADB",
"zX c #EDCEC5",
"xX c #C6D4E1",
"cX c #C9D6E2",
"vX c #CCDAE5",
"bX c #D3DDE3",
"nX c #D8DFE2",
"mX c #D2DEE9",
"MX c #D9E2E6",
"NX c #D6E1E9",
"BX c #DBE5EC",
"VX c #E3E4E3",
"CX c #E3EBEE",
"ZX c #E5EDF2",
"AX c #E9EEF1",
"SX c #EFF3F2",
/* pixels */
"Y.Y.Y.Y.Y.Y.Y.Y.Y.Y.T.%.Q ! ! ~ ) [ ) ^ ^.%.%.8X/ ^ H.R.T.T.Y.T.uXvXnXBXAXAXAXnXmXNXBXBXBXmXcXcXcXcXvXvXcXcXvXmXmXmXmXvXvXmXAXAX",
"Y.R.Y.Y.Y.Y.Y.Y.Y.Y.U.%.] &.[ [ ) *.! ! pX*.%.pX&.*.K.I.T.U.U.E.rXsXkXkXfXyXpXpXyXyXxXBXNXmXcXxXxXxXcXcXxXxXxXvXmXmXvXcXxXcXmXBX",
"Y.Y.Y.R.Y.Y.Y.Y.Y.Y.I.=.] [ &.~ p .X=.! pX:.%.hX%.L.iXE.I.U.I.XX.X X.X X%XyXpXpXyXtXtXpXcXvXcXjXjXjXjXjXxXjXxXxXxXxXjXxXxXxXvXvX",
"R.R.R.R.Y.W.Y.Y.Y.I.H./ y  XlX>.Q *X>.^ 8X=.%.=X*.=.P.P.H.=.&.H.=.:.|. X X X%X*XtXtXtXtXyXhXxXjXdXdXdXdXdXdXaXdXsXsXaXdXjXmXBXmX",
"R.W.W.W.W.R.Y.W.W.T.tXJ.Q yXSXJ.Q OX,./ %XJ.] ^./ ) ] ~ ! ! ! ~ ~ ~ ~ ~ [ &.J.J.J.L.^.^.XXtXdXjXxXjXxXjXdXsXaXaXyXsXuXdXcXmXvXcX",
"R.W.W.W.W.W.T.U.I.I.tXL.Q =XAXQ.Q %XJ.! &.) Q &.^ H ) ~ ~ d u u y t Q ~ ~ _ &.+.,.J.^.L.:.J.%XjXxXcXvXvXjXsXaXaXsXuXuXsXjXjXjXxX",
"W.W.W.W.W.W.K.H.-.:..X^.! &XSXQ.! /.-.a p u d g ! ( ( d u 7 < * 1 1 7 i ~ ~ ~ ~ [ [ [ &.&.[ :.*XxXvXmXmXxXdXsXaXsXsXdXdXjXcXvXvX",
"W.W.W.W.W.W.K.%.&.] ).^.! &XAXQ.p ] ~ N u s _ ) s u u 8 1 1 < $ , 9 t i ~ ~ _ ~ _ ~ ~ ~ u i ! &.XXxXvXmXmXxXxXdXcXmXmXmXNXCXCXCX",
"W.W.W.W.W.Y.K.~ ! p ^./.~ %X X~ 8 u ~ N q 7 d d a 7 1 < , % * * 1 1 9 7 a f N ) N N ( ) N q 7 u ] ^.sXvXmXNXmXmXBXZXZXZXZXAXZXAX",
"wXwXwXrXeXwXI.&.! p J.).~ ] a 1 7 q N ) ~ q 3 7 3 6 , % < * < 3 1 1 1 9 q s r g N s d w u a q 6 1 Q J.hXvXNXNXBXZXZXAXZXZXZXAXZX",
"uXuXuXuXaXrXI.=.! ! J. Xy 1 1 1 1 8 s ( _ q < o O # , * * * 4 7 9 1 7 8 a s d f N ~ N s 7 7 t 7 1 1 y K.dXvXmXBXZXZXBXZXZXZXAXZX",
"uXuXuXuXuXuX|.=.! ! &.] : $ $ $ , < 4 q w u q 7 < # # @ 3 3 9 q 8 8 1 8 q s a q 4 8 q 7 u q < < 6 6 1 y P.jXmXBXZXZXZXBXZXZXAXZX",
"rXrXrXrXrXuXXX:.! ! p , $ $ : 1 % % 3 q q 4 3 7 q u 8 * 7 q r u 8 u a s a 7 q a 7 7 3 3 9 8 8 8 1 1 7 1 Q %XvXmXNXBXCXZXCXZXZXZX",
"eXwXwXwXrXjX%X:.] ! 1 , < 1 7 u a u q q u q 3 $ $ 1 q 9 9 M M M q q q g N ( s 7 7 * , % < 6 3 7 6 < , 1 t K.xXxXvXmXBXBXBXZXZXBX",
"wXeXeXeXrXXX^.] ! y 1 , 1 q 7 1 7 u a a q 4 q 4 * 1 7 q M n M B q 8 q N N N N N s q 3 < % 4 7 , , < , , y :.aXxXkXvXBXBXNXmXvXcX",
"eXeXrXeXI.^.J.t : O 1 6 1 1 7 q 8 7 7 7 d a 4 3 * ; s _ _ I B I i g n u u s a a a g a 7 1 , 8 6 % , $ # , /  XtXyXsXkXkXcXcXjXjX",
"eXrXuXrXP. X] : $ , , , $ , % 3 t ^ ( g 8 7 7 3 3 3 9 B _ S B M s M s 8 ; * 1 1 3 t t 8 6 7 , 6 6 , $ # : Q oXhXpXpXpXiXpXdXdXsX",
"rXrXeXeXtXJ.p 1 6 $ , , $ , , 6 7 7 8 g d q 7 3 7 q r M I _ L M n ) _ B 8 7 4 < % $ 1 8 6 6 t 6 , , $ # : 6 J.bXbXbXlXMXpXXXXX%X",
"cXaXeX|.%X&.6 6 , , % O X X $ $ 7 f < O @ , 7 7 4 9 M _ _ M _ n s ~ ` _ L u q q < , , , 7 6 6 7 6 6 , , : : ! *XbXbXlXvX=X>.-.>.",
"|.K.=.=.&.6 1 , 1 3 , $ % 6 5 6 % 3 N a 3 * 3 7 q 5 c _ I M  .B M s ( _ ( N s s a % , , $ , , , 1 7 , , 6 , , &.hXlXbXlXkX8X&X%X",
"/ / / ] y < : $ 1 6 7 6 7 8 u d ! a t ) ( < $ 3 4 8 c I Z L  .T U _ _ d q q 7 7 u t 1 , # # $ # : , 6 , , , , y ).bXlXbXpX^..X%X",
"/ / ! t , : # , < 7 7 8 8 q 1 < q f a 3 7 7 % % 8 r w B I I U ` B B _ N d a 5 1 1 6 6 < # # # # # , 6 < # # : , &.kXnXnX%XL.hX).",
"%.&.] 1 $ # # , < 6 d ( ' _ n 7 < $ # # % % % * 4 c B m B P I U { B B N q q u 7 < 1 , , $ $ # O # # $ < 4 , $ : p *XnXnXpX=XMX%X",
"-.&.d , : O , < 1 3 u d [ ;.[ g 7 , $ @ @ @ @ % ; n I M M U X. . ._ _ L g 9 7 q 8 < , , $ # O o # # < B X.o.z $ 6 P.bXlXkXfXMXkX",
"d y t < # , , , , $ % < 1 8 7 < $ $ $ $ $ * $ ; q L P Z P  .O.O.$. .S s s s a ; 1 < $ $ $ # O $ o O 1 S G k.g.4.a &.kXnX*X XlX&X",
"! ! ] 1 , , # X O X o $ < < * $ o o O $ % ; 9 9 x T ....O.E O.O.O.} B r q q q 7 * < , O O $ O : $ O < V 5.k.k.k.r.[ yXnXyX=XlX%X",
"+.-._ 1 # O X O # # $ o O < < < * * = * ; w I U  .w.d.e.7.4.7.m.r.7.U r 9 * * < < , 1 $ # O $ $ O # * V a.g.s.k.s.a.yXnXhX=XfX&X",
",.oX] : $ # , , 1 8 d N u $ o o @ * 4 0 r P e.m.A.,XA.f.r.7.7.r.d.w.O.{ n 4 % @ @ # * * * # O $ $ # < D 6.| G 4.t.t.}.cXhX=XyXyX",
").+X) < : $ $ $ $ , % 8 f 7 * $ $ * ; 0 b O.C.,X,X,X,XF.F.A.C.M.M.m.8.7.U r 4 4 * O @ $ * * < * * < < z C C C G 2.k.V.fX=X,.%X/.",
"nXOX) : # O O $ % 3 3 $ o   . o $ ; 9 Z 7.m.C.F.;X,X,XA.m.M.A.A.A.M.m.y.O.P 0 7 3 3 * $ # $ $ * 1 1 9 F } F G G 2.k.l.}.&X XMX.X",
"%X Xi O O o O $ 3 5 q 7 ; * @ o @ ; V 3.y.M.F.F.<X,XF.M.C.F.,XF.M.M.M.y.y.9.P w = 9 9 = * $ @ O 1 1 0 } 2.4.<.2.k.D.C.}.=X=XlX&X",
"*.*.< O O * < * 7 N _ _ a 4 4 * ; k E q.m.M.F.F.,X,XA.A.A.A.C.M.M.M.N.N.y.y.4.T x l v k 1 * * * = 1 0 u.j.k.D.:X1X2X2X}.fXpXlXfX",
"&.] ~ $ $ % < 3 7 q a 4 ; 8 0 ; - P t.M.D.F.F.N.j.C.;XZ.N.-X1X1XF.F.M.k.y.y.y.8.E E ....P 9 * * * q w u.F.1XqX1XqX1X2X`.+XyXkXhX",
"~.[ d < 1 < 3 * ; q n M M M n 0 b 4.k.F.F.N.y.k.F.,X;X;X2X5X1X,XA.M.m.d.y.y.y.y.q.w.y.N.h.R 0 ; * 0 M u.m._.1X,X1X1XF.;.Q..XlX&X",
"lX-.1 % $ * * * 7 4 9 9 0 w x v T 8.k.M.y.M.F.;XA.N.Z.,X<X,Xl.5.E T R | 4.q.y.y.f.m.M.A.F.N.7.V 1 0 D u.m.F.qXqXqX1Xm.s -.&XnXoX",
"%XQ.4 $ @ $ $ $ @ * = = 9 x b R 4.q.8.8.k.D.C.k.N.A.,X_.m.0.~ m P O.0.w.w.p.s.h.m.V.A.A.A.C.V.w.F l $.h.C.,XqXqX3XA.P ; J.yXnX&X",
",.[ 6 < $ * @ @ @ * = ; 0 v A E 3.y.d.d.y.y.s.k.F._.V.u.{ m m @.a.`.B.B.h.p.u.w.p.V.Z.Z.C.C.V.V.s.w.a.a.A.,X6X1XZ.| $ d *XhXlXhX",
"^.-.f 3 * 1 = * = = ; 9 l V T E 4.8.q.q.y.j.V.V.s.0.X.z k C X.0.0.6.@.@.@.o.9.0.p.B.Z.A.Z.C.C.j.h.a.a.p.B.B.a.X.S n 6 ! OX%XfXfX",
"=X>.s 7 3 ; = * * = = k l v A R 3.y.N.f.d.s.s.u.X.D w 0 z ~ { F S z l c w Z R 9.j.Z.F.-XF.-XZ.j.s.p.w.u.a.h.X.c d d d ) ,.).yX).",
"fXoXQ.$.( q ; = . * = 9 l A T o.q.q.q.q.6.5.5.| D z z S D C V k 0 7 1 8 $.B._._.:X-X-X:X-X-XZ.N.h.p.w.u.a.n.$.m n N d L [ Q.&X).",
" XyXVXoX+.,.' < @ * ; l m D T o.w.w.w.5.5.6.o.X.F ~ G D F z k 0 _ [ ~ i.l.`.`.>X-X:X>X:X:X-XC.V.B.a.p.u.p.p.0._ M N d ~ ` ;.).!.",
"L.=XVX&X,.yXgXx.5 @ = c m S V D { } X.o.o.6.0.5.| { { F C z 0 k | 0.u.g.u.g.l.-X:X:X>X>X<X:XZ.V.l.h.a.p.w.w.0.O.@. ._ _ +.-.Q.OX",
"~.&XnXgXfXnXSXnX[ 7 % 3 < = 1 9 0 l m D | 4.@.@.@.| { D z z k C | | | G 5.t.V.-X<X<X2X<X<X:X_.V.m.h.a.p.w.0.0.0.B.B.w.@.@.$.-.Q.",
"OXyXVXkXhXlXVXVX-.f f e = w b m m z m m V ~ T | 0.p.5.{ D D F { F F G 5.u.l.-X2X4X5X5X2X<X:X_.B.l.a.s.e.0.9.0.7.a.j.a.$.@.0.0.;.",
"oX).fX X^.fXAXVX;.H ^ x.[ V V z k i 9 < < = 0 C i.>X>X_.`.-X<X>Xg.g.g.D.-X>X>X4X5X7X5X4X<X_.Z.h.p.p.p.u.9.7.O.O.w.e.m.i.@.9.6.i.",
",.Q.lXfX%XhXnXlX>.^ ) ].i.~ m w 1 9 q < < = 9 w @.>X5X7X7X7XqXzXzX6X2X2X2X>X2X4X5X5X4X4X:X`.l.u.w.u.u.q.O.O.X.O.0.w.m.0.9.6.2.q.",
",.>.oXfX=X&X XfXx.^ ^ /.L.) $.i 9 z n n n i k i | _.6X7X6X6X7XzXzX4X2X2X>X>X>X>X<X<X<X`.`.h.0.6.0.w.w.5.O... .O.O.e.V.7.e.2.q.t.",
"-.-.[  X*X^.=X9Xx.^ H >.:.] *X$.m S S V z z z z | D.4X6X4X4X6X7X4X>XD.g.D.D.D.`.`.V.B.a.0.@.{ { o.q.6.o.R  .R X...B.d.9.r.8.y.y.",
"] *.^ L.'.&.x.].>.^ ^ ' ] H pX#X{ S V F C D ~ F | g.2X4X4X4X2X>X-Xk.2.| } 4.5.6.0.0.@.} U I Z P o.3.o.{ P P { U O.A.7.e.w.q.M.m.",
") *.H *.x.#.*./.x.#.#.-.x.x.8XgXi.~ D ~ ~ D D { 5.u.>X4X4X>X2X>X4X>XD.2.z V V V m V m m Z U }  .5.3.{ S m B I V e.r...m.7.m.m.e.",
"L.'.Q.'.{.@X@X8X8X8X#X8X8X#X8X0X[. .~ { | 4.9.t.@.0.>X4X6X4X>X4X7X4X>Xt.C z m m v c x v U X.O.7.3.} A m c m x T m.Y p.q.O.d.8._ ",
"9X0X0X#X9X9X'.b.x.>.x.x.,.x.#XlX0Xi.} @.g.l.l.t.F | D.2X7X6X4X7X4XD.5.T @.| S m c c c P ..O.O...} I c w r w x 9.7...e.} O. .( f ",
"{.8X9X+X@X$X$X$X#X8X0X0X0XgXgXfXgX@X$.0.h.s.t...~ 5.l.>X4X4X2X_.2.C z ~ h.l.X.z 9 9 l A ..} T P P v r 9 0 0 P 9.R e.X.H N ! ! t ",
"8X8X9X8X$X#X$X8X8X#X8X{.+X{.OX{.{.[.n.@.5.3...P ~ 0.u.l.l.l.t.~ z z z | a.u.{ z v b P R R P P b v c 0 0 9 0 ..R X._ e y p f f H ",
"{.{.{.{.{.{.@X#X+X$X8X8X8X8X8X8X9X9X9X`.@.U P b z C F | | T C z k z z C E G 6.r.e.r.p.q...R T Z v l 0 0 ; x U L M ; , e H K z.z.",
"9X0X0X0X0X0X0X9X0X0X9X9X9X9X8X8X9X0X$X9X$Xn.R b z z k k z z z z k k k C 5.s.g.M.A.A.M.r.q.3.R P Z v w 9 r L L _ e K W W z.z.K H ",
"8X8X0X8X0X0X8X8X9X0X8X8X8X8X+X8X#X@X'.OX+X@X(.x. .L x 0 k k 0 0 0 k z 2.2.2.q.g.m.m.m.r.8.7.E Y A c r r L L ` r H z.W Y K K @   ",
"#X8X8X.X#X#X[.OX+X+X(.[.OX[.!.!.Q.b.x.b.Q.Q.~.].~.i.U Z m z z k z z z C C F 5.r.y.y.r.y.r.q.3.E b x L L ` #.' r W v.K j ; .     ",
"].OX].'.OXOX'.].{.[.~.[.[.[.!.~.~.~.Q.!.~.~.~.'.(.(.n.;.M V S Z C z V b C ..q.y.m.m.m.m.m.r.O.b Z L L e ` ` H W c.K & .     + > ",
"OX{.'.(.'.'.~.~.(.'.~.~.~.~.b.b.b.b.b.b.b.b.b.n.~.n.;.^ , 7 M S S C V A 3.h.m.N.M.M.m.y.r.Y Z L J ` L a H K <.1.1.- .     > 2 Q ",
"'.[.].'.].].'.(.].'.~.(.[.[.'.'.'.~.).'.].OX].{.+Xx.f + + + : a Z Z Z E q.y.f.d.y.e.9.3.R m L L ` #.#.` H P 1.<.j & & h T Y ] K.",
").).].].].].]./.x.x.-.x.!./.].(.).(.(.].OXOXOXOX,.t : > > + + : 8 M A R O.3.O...E T b x r r L ` #.#.#.L e <.<.j & & & 1.S.G.gXSX",
"/./.]..X]..X.X.X!.>.#.x.x.!.].+X].~.).'.OX+X%XL.y > : > : + + + # , w J b b b v k 0 9 r L r L ` ` ` ' H #.Y h h h h 1.S.S.-XSXSX",
"].].OXOX]..X8X8X'.x.x.x.L.!..X8X+X/.~.'..X+XOX) : , : : > + + + +   * K x x l 9 ; ; r H f r L ` H ' e L 1.h & h h <.S.S.8.H.SXSX"
};
