/* XPM */
static char *result[] = {
/* columns rows colors chars-per-pixel */
"64 64 82 1 ",
"  c #6F3E0D",
". c #703F0E",
"X c #703F14",
"o c #73410F",
"O c #7A450E",
"+ c #7E480F",
"@ c #764313",
"# c #7B4612",
"$ c #7E4912",
"% c #7F4B18",
"& c #804713",
"* c #844C14",
"= c #894E16",
"- c #834E19",
"; c #865015",
": c #8B5217",
"> c #85511C",
", c #8B5419",
"< c #8E581E",
"1 c #92561A",
"2 c #945A1D",
"3 c #995C1E",
"4 c #97601F",
"5 c #98611F",
"6 c #865521",
"7 c #8C5621",
"8 c #8D5A23",
"9 c #935C23",
"0 c #995E22",
"q c #945F29",
"w c #966224",
"e c #9C6324",
"r c #9E6827",
"t c #94642D",
"y c #9C652B",
"u c #9B6A2E",
"i c #976633",
"p c #976837",
"a c #9C6B32",
"s c #9B6C3A",
"d c #9F7138",
"f c #A16525",
"g c #A26A25",
"h c #A16729",
"j c #A46C2C",
"k c #A86D2C",
"l c #A7702E",
"z c #AA722F",
"x c #A46D32",
"c c #A86F31",
"v c #A36F38",
"b c #A67135",
"n c #AB7334",
"m c #AD7833",
"M c #A5733B",
"N c #AA753B",
"B c #AC7B3C",
"V c #B17735",
"C c #B27835",
"Z c #B27C3C",
"A c #A67642",
"S c #A87741",
"D c #A77944",
"F c #AB7B43",
"G c #AD7E48",
"H c #B27D41",
"J c #B3803F",
"K c #AE8041",
"L c #AF8049",
"P c #B58343",
"I c #B98544",
"U c #B68847",
"Y c #B98845",
"T c #B3834B",
"R c #B9864A",
"E c #B7894E",
"W c #BC8D4D",
"Q c #B98B50",
"! c #C08C4C",
"~ c #C18F51",
"^ c #C39152",
"/ c None",
/* pixels */
"////////////////////////////////////////////////////////////////",
"////////////////////////////////////////////////////////////////",
"//////7/////////7/////////-7/////////>/////////>//////////6/////",
"/////-9////////-9/////////,9/////////9q////////<8////////=0/////",
"/////=9y///////=9y////////:q////////$90////////1e////////-e/////",
"/////:9x///////:9x///////&1ya///////&9b///////*1x////////=yv////",
"////-:0N//////-:0N///////-1yS///////=1Ns//////=1xA//////,=hN////",
"////,=0BT/////,:0FL//////,1hH//////9=3NA//////,1xG//////1-jS////",
"////==0HG/////-:0HG//////-1hI//////9=0bA//////=1cT//////7=hS////",
"////-,0HT/////-:0HT//////-1jT//////q-0NS//////*1cR//////9=jS////",
"////-=0HL/////-=0GT//////*1jI//////9=0NA//////*1cR//////<=jN////",
"////-:fHT/////-=eHT//////&1jT//////8=0nS//////&3nT//////<=jN////",
"////%=0HT/////-=0HT//////*1xT//////9>0nD//////&2nR//////7=jB////",
"////-,0IT/////-=eHT//////&1xR//////q=0ND//////&2NR//////1=jS////",
"////-=0IT/////-=0IE//////*1cR//////9;0NF//////&2nE//////9=kB////",
"////-,0IT/////-:0IT//////-1jR//////9=0nF//////=2nW//////7=jH////",
"////>:eIE/////>:0IT//////;2jW//////8;0ML//////;2nQ//////2;kF////",
"////,:0IE/////>,0IE//////,2jW//////8=wmK//////;<cQ//////<,kG////",
"////>,9xu/////>;2ut/////%>;wb8/////<>2tu/////<;<yM//////<>wat///",
"BWRUURUTUUUKUPPUPLPPPKKPKKKJKKKKKKFKBJJJJFBKBBJJBBBHJJJJBBBBBBBB",
"uJJmBBBBJmJJBBBBmJBJBBJBJJJJBJJJJJJJJJJJJJJPJJYJPPJYJYJYYJJJUPPY",
"4rwrrrrreewrgrrrrrrerrrrggwrrrerrreergrrwreeweeeweeewrg5rgg5we5e",
";244242444422424445555w55555555er5eeg55g5rrgrgggggggggzgglglkggl",
"$,,;;:::,,;,,,,:,;,,:,,,,,,:,,,,:,;,,,,,,,,,,,,,,,,<,,,,,,,,,,,,",
"$;;;==;;:;;;=;;;;;;;;;;=*;;;;;;;;;;;;;;;*;;;;;*;*;*;;;*;;;;;;;;;",
"O$$$$++OO+$$+$+$OOO$O+$$+#O++$#+++++OOO++++O#++$+++++$++++++++++",
"/oooX+&<> o ..X#;8%o@ .oo@$>9@ooooo##;86@o@Oo@O*>8@@oO@@++,8%OO/",
"////#:f!Q/////#,rWQ//////$2l^//////w,eJL//////$0m^//////4;mP////",
"////$,f!Q/////#,gWQ//////&3k~//////9,5JR//////&fZ^//////2:nI////",
"////#,g!Q/////#:gWQ//////$3n^//////9,fJT//////&3Z^//////2:VI////",
"////#:j!Q/////@1k!R//////$3V~//////91fII//////&5Z^//////21VI////",
"////#,kYE/////@:k!T//////$3V~//////91gZG//////&fZQ//////11nU////",
"////#=kIQ/////#:kRE//////$3VW//////9:fZT//////&eZW//////21nH////",
"////X=k!E/////#=kIE//////&1VW//////9,fZT//////&3Z!//////21kI////",
"////&=kIT/////X=hIE//////$1VR//////8:fZG//////&3CR//////<1kH////",
"////#=hHE/////#=gIE//////$1n!//////8:0ZR//////&2NW//////>1kI////",
"////@=hRT/////$=eIR//////$1xR//////7:fCG//////&3nE//////,1hI////",
"////#=0HT/////#=0HT//////$1xR//////7=3ZR//////&1cR//////,1jI////",
"////@=wHT/////#=0HT//////&:jR//////7=0ZG//////&2cR//////=1hI////",
"////#=0HL/////X=qHT//////&:xR//////==0ZR//////&1vR//////>:hR////",
"////$=0HT/////X=0HT//////$:jG//////6=3CT//////$1xU//////=:hI////",
"////#=0HL/////#=0HL//////#:xR//////-=9ZT//////$1xT//////=:hI////",
"////#&0HL/////@*hHG//////$:nH//////-*3ZE//////$1bT//////-=hI////",
"////#=fRL/////#*hIG//////$1nR//////%=2ZE//////$2nR//////-=h!////",
"////X=hIL/////@*rIL//////#:nU//////#=0ZE//////#1nE//////&:gU////",
"////-=qBM/////*>wBM//////><jB//////>>9nK/////>;4bB//////>,rJM///",
"KWWWWWWWUWWWWWWWWWWWWWWWWWWWWWWWQWWWWWWWWWWWWWWWWWWWWWWWWWWWWWQ~",
"aBBnBBBNBBBBBBBBBBBBJBBBBBJBJKBJPJPKJJPJIPIIUUPPYIYWYYYYIUYPPPPP",
"erlllgllllglllglljlgllglljjljljllgkllkllljllljllllzzzzmzmzzmmmmm",
"4er5r5r5g5grrgrrggrrgrrggggrgrrggrrgrgrrrggrgggrgrgrrrregrgggeeg",
";,,,:,,,,,::,;,,,;,>::;,;,:;;,,;,;,;;;;;;;;::;:;;;;;;;;;;;;;;:::",
"+;;;;;;*;;;;;;;;*;;=;;;;;;;;;;;;;;;;;;;;;;;;;;;;;;;;;;;;;;;;;;;;",
"oO+oOOOOOOOOOOoOOOOOOoO$OO@OoOOOOOoOOOOOOOOOOOOOOOOOOOOOOOOOO+O+",
"o+##O+%-%+##+OO+$>$#O##@O+$$-$O#+OOO+&*-O+@O###$%;##O#+##$&>$+@O",
"////@=9Md/////@*9MM//////#,yN//////@*3bF//////&1uA//////$:yF////",
"////@;0NG/////@;9NG//////$:jF//////@*wNT//////&1jF//////$:gP////",
"////#=0ND/////@=0ND//////#,hF//////%-wNG//////&1xS//////$,hH////",
"////X=qMF/////#=0ND//////$1aS//////@&0bT//////&1xF//////%,hH////",
"////#=hND/////@=wND//////$1hF//////%&0nH//////&2cS//////#,hH////",
"////#=0MD/////@=yND//////#1jS//////@*0NG//////&9xS//////#,hS////",
"////X=hND/////@=eND//////#1xS//////%*0cG//////&1xA//////&:hS////",
"////#-0ND/////#-0NA//////$1yS//////@&0cF//////&7xA//////&=hS////",
"////@=eMA/////X=fNS//////X,xS//////@&0vF//////$1jS//////&,hB////",
"////X$7i//////X$7i///////X-qp///////#,is//////#-qp//////X-9p////"
};
