/* XPM */
static char *result[] = {
/* columns rows colors chars-per-pixel */
"60 60 140 2 ",
"   c #161616",
".  c #181715",
"X  c #161618",
"o  c #191718",
"O  c #1A1A1B",
"+  c #1E1F21",
"@  c #242424",
"#  c #262628",
"$  c #272829",
"%  c #2B2B2C",
"&  c #302F2F",
"*  c #31302F",
"=  c #2F3132",
"-  c #343434",
";  c #3B3B3B",
":  c #413E3A",
">  c #43423F",
",  c #3B3F43",
"<  c #3E4044",
"1  c #444444",
"2  c #434549",
"3  c #46494D",
"4  c #4C4C4C",
"5  c #514C44",
"6  c #494C51",
"7  c #4C5056",
"8  c #535354",
"9  c #535659",
"0  c #5A5A5B",
"q  c #797055",
"w  c #5B6169",
"e  c #636363",
"r  c #65686B",
"t  c #6B6C6C",
"y  c #676E76",
"u  c #737373",
"i  c #72777C",
"p  c #7C7C7C",
"a  c #8A7E5D",
"s  c #9B9064",
"d  c #84827E",
"f  c #9A917C",
"g  c #AC9A64",
"h  c #ACA07C",
"j  c #CEB65C",
"k  c #ECD25A",
"l  c #F6E257",
"z  c #F8E651",
"x  c #F6E25A",
"c  c #FBF256",
"v  c #E6CF65",
"b  c #EFD560",
"n  c #F2DD61",
"m  c #E8D570",
"M  c #ECD875",
"N  c #F8E36A",
"B  c #F4E377",
"V  c #7A7E83",
"C  c #7C8289",
"Z  c #838384",
"A  c #85898B",
"S  c #8D8C8C",
"D  c #918F8D",
"F  c #8E8F90",
"G  c #8D929A",
"H  c #939494",
"J  c #9F9C91",
"K  c #92979C",
"L  c #9B9B9B",
"P  c #A09F9E",
"I  c #BFB58B",
"U  c #9197A1",
"Y  c #959BA4",
"T  c #9B9EA3",
"R  c #979DA9",
"E  c #989EAA",
"W  c #9BA1A7",
"Q  c #9FA6B6",
"!  c #A4A4A4",
"~  c #A0A5AA",
"^  c #ABABAB",
"/  c #B8B4A2",
"(  c #A6ABB2",
")  c #ACAEB1",
"_  c #A3ADB9",
"`  c #ACB3BC",
"'  c #B3B3B3",
"]  c #B8B7B6",
"[  c #B8B7B8",
"{  c #BBBBBB",
"}  c #C6B991",
"|  c #C0BFBE",
" . c #D7CB93",
".. c #C1C0BF",
"X. c #ACB5C4",
"o. c #ADB9C7",
"O. c #ADBBCD",
"+. c #B5BCC6",
"@. c #B3BCCB",
"#. c #B2BED3",
"$. c #C1BFC0",
"%. c #B3C0CF",
"&. c #BBC3CB",
"*. c #B5C2D5",
"=. c #BAC5D6",
"-. c #BDC9D6",
";. c #B6C3D9",
":. c #BAC6DA",
">. c #BECADB",
",. c #BAC7E1",
"<. c #BECBE1",
"1. c #C4C4C4",
"2. c #C0C6CE",
"3. c #C7C8C8",
"4. c #CBCBCB",
"5. c #D0D0CF",
"6. c #C2CBD5",
"7. c #CCCFD2",
"8. c #C2CDDD",
"9. c #C8CFD8",
"0. c #C5D1DE",
"q. c #CAD3DE",
"w. c #D1D1D0",
"e. c #C2CEE1",
"r. c #C5D2E2",
"t. c #CAD5E3",
"y. c #CED9E5",
"u. c #C7D3E9",
"i. c #CAD6E8",
"p. c #CEDAE9",
"a. c #D0D7E4",
"s. c #D2DBE6",
"d. c #D3DDEA",
"f. c #D8DFE9",
"g. c #D6E1EC",
"h. c #DAE2EC",
"j. c #DAE4F1",
"k. c #E1E7ED",
"l. c #E2E9EE",
"z. c #E1EBF3",
/* pixels */
"e.>.t.r.r.u.u.s.h.-.:.8.8.=.#.*.r.8.r.8.y.y.r.r.r.=.0.<.*.r.s.r.y.q.q.s.-.-.>.y.s.g.g.g.g.q.<.q.g.g.y.y.q.-.-.0.-.=.>.-.",
"8.0.q.d.d.q.=.8.t.;.*.=.0.*.*.0.r.u.<.:.-.0.=.-.y.<.>.<.-.r.0.q.y.s.y.g.q.-.t.g.g.l.g.y.q.>.>.>.y.y.g.y.q.>.0.0.>.>.0.q.",
"d.y.f.l.d.8.:.8.>.8.;.=.t.q.q.t.r.*.*.:.0.>.*.=.r.-.<.0.p.y.y.g.y.g.h.h.g.y.y.y.q.y.q.i.*.*.-.>.g.s.q.=.-.-.<.0.>.q.g.g.",
"d.q.t.q.t.p.e.>.r.u.s.t.y.y.d.y.t.-.r.>.0.>.0.y.y.>.0.r.y.y.y.h.h.s.g.h.l.>.0.>.-.y.>.*.=.>.>.y.0.0.>.-.<.0.0.>.-.t.0.<.",
"a.8.6.>.-.e.t.e.u.e.p.t.s.t.s.q.p.0.>.u.p.i.y.h.p.0.q.t.0.p.g.d.g.t.g.g.h.y.0.>.-.y.=.*.>.0.q.q.-.>.%.O.-.q.0.0.<.d.>.*.",
"q.q.u.8.>.8.r.>.<.>.r.j.s.p.d.t.y.>.<.<.0.*.0.:.r.8.s.q.r.0.y.d.p.g.>.0.s.g.t.y.0.y.%.%.r.t.>.>.=.i.>.>.0.>.*.*.>.t.<.t.",
"s.t.s.e.8.9.-.*.r.>.t.d.j.p.p.u.r.*.;.>.0.-.0.:.r.d.t.8.r.t.d.p.u.p.0.0.y.s.y.q.g.p.>.>.0.0.>.-.0.i.:.;.<.-.=.:.*.y.<.i.",
"t.6.8.r.t.t.8.:.8.u.6.p.d.e.8.r.r.<.,.r.i.d.6.O.-.0.t.g.t.r.r.r.i.p.r.0.t.s.y.y.>.<.t.r.i.<.t.<.q.y.>.%.:.*.r.<.<.y.t.<.",
"u.u.r.t.t.a.-.#.:.8.8.t.>.e.0.r.r.>.8.a.t.8.9.9.t.s.s.q.2.8.8.r.y.i.i.i.y.0.y.y.<.-.<.r.i.>.r.r.s.y.0.=.-.>.r.<.i.q.<.0.",
"a.6.8.8.8.t.8.>.=.9.s.u.r.r.i.e.e.#.@.8.8.:.8.s.d.d.8.-.8.u.>.t.i.i.y.p.r.>.g.0.y.>.<.<.<.y.<.<.y.0.t.p.i.<.-.>.t.<.*.i.",
"g.p.8.;.8.8.t.r.8.p.t.r.e.=.r.r.r.*.;.r.r.8.a.8.-.q.8.-.a.t.r.r.y.i.i.p.t.g.y.t.q.<.0.0.0.:.:.u.g.t.t.<.<.;.>.y.d.-.<.<.",
"8.d.d.6.r.y.t.r.r.t.r.;.<.e.<.r.t.r.p.d.8.>.8.8.*.8.9.t.q.t.r.e.<.<.<.s.y.y.q.t.g.>.>.y.r.-.>.y.g.q.q.0.>.:.>.y.r.t.i.q.",
"q.t.t.d.h.s.8.8.0.p.;.*.=.r.r.r.j.d.t.q.=.#.e.r.6.d.y.t.8.r.8.r.>.>.d.g.s.s.y.s.g.q.q.g.y.>.y.y.t.r.j.y.r.<.<.0.<.0.-.-.",
"d.y.8.d.q.8.r.r.0.r.8.*.;.r.t.t.i.u.a.r.=.#.e.t.t.f.s.8.6.:.8.0.>.<.s.y.g.h.g.g.g.y.q.h.g.r.y.q.y.y.t.<.<.i.=.>.<.>.>.;.",
"r.8.e.u.8.t.8.:.8.u.d.r.r.t.>.u.>.8.d.>.=.8.u.s.t.t.0.>.<.:.-.r.q.q.s.y.s.h.q.s.l.s.s.h.0.i.y.q.r.<.<.i.y.>.=.%.q.<.;.;.",
"t.>.<.=.8.r.r.0.t.t.t.s.t.r.>.>.>.8.d.>.e.e.r.8.t.s.e.;.:.e.y.q.s.s.y.0.q.h.q.g.h.q.y.h.p.r.r.r.t.;.-.i.y.-.*.-.y.<.>.<.",
"y.-.:.*.>.=.y.h.i.:.<.-.0.r.r.>.0.y.t.q.r.8.-.8.y.r.q.r.r.p.y.r.t.s.a.8.s.s.d.d.g.t.d.8.y.r.*.y.r.:.<.r.>.8.>.r.r.8.e.t.",
"d.-.>.t.y.y.r.r.p.r.<.*.#.u.r.0.y.t.q.g.y.r.8.p.g.t.s.y.i.0.-.i.u.d.d.a.d.y.s.s.g.u.d.*.-.i.<.0.*.r.e.<.-.<.r.r.e.u.s.j.",
"g.d.d.t.i.q.r.>.:.-.>.<.:.u.q.8.6.q.d.h.j.y.y.g.d.y.q.@.Q W W R E ( ` 9.f.y.y.s.p.p.y.>.>.r.y.-.-.r.>.:.:.r.t.d.r.t.s.e.",
"f.d.y.y.i.r.-.=.*.:.q.i.y.0.-.t.-.0.i.y.h.g.g.h.1.G w 7 < < < < 4 4 9 t Z ( 6.d.t.p.e.>.0.q.y.q.>.-.*.<.r.i.r.y.s.s.8.*.",
"h.8.-.s.t.u.r.i.r.>.*.-.9.8.t.t.q.y.r.<.y.j.9.A 2 = & = - ; > 1 2 4 4 8 9 0 i ( q.d.;.>.y.t.y.g.r.*.*.t.d.0.>.t.t.s.0.*.",
"z.q.e.t.d.r.q.r.r.e.>.>.t.s.9.a.g.g.0.r.p.` 9 $ % % - - ; , 1 1 4 4 8 8 0 t D H T 7.r.r.i.i.g.y.y.8.>.8.d.-.-.>.8.d.0.8.",
"h.8.>.8.e.u.6.>.<.-.%.q.t.d.h.d.g.y.h.g.` < @ $ % & - ; ; > 1 1 6 4 8 e A ! ] | ' L *.i.p.y.y.q.8.t.=.8.q.8.-.e.q.q.0.*.",
"t.g.t.e.-.;.r.;.;.*.-.t.8.8.t.d.y.q.y.=.6 @ $ % % - - ; ; > 1 4 9 y a L ^ ' [ $.3.{ T >.y.g.g.<.>.>.>.y.q.*.y.t.6.*.q.0.",
"f.s.s.8.;.;.8.r.r.r.8.r.e.e.y.y.d.i.y.C @ # % % * - - ; 1 8 e t a G U T ^ ) [ 1.3.5.) ` y.s.g.t.r.;.y.g.r.6.0.q.s.r.s.d.",
"j.8.s.t.>.e.e.r.y.r.8.>.>.r.s.t.i.y.q.8 + # % % - - ; 1 0 r u p A D L ! ^ ' { 1.3.5.4.W r.p.y.<.p.h.d.y.0.q.q.y.s.j.j.r.",
"t.t.f.d.r.e.8.=.6.s.8.-.8.y.r.u.<.y.q.8 @ # % % - - > 8 e t u d A H L ! ^ ] { 1.3.w.5.K -.q.y.r.i.y.p.d.g.0.y.0.e.d.y.d.",
"u.t.a.s.s.e.=.=.8.r.t.9.s.6.e.r.<.y.q.8 @ $ % & - - 1 0 e t p Z S H P ! ^ ] { 1.4.5.5.A &.6.q.0.u.p.i.q.q.0.y.0.>.>.8.d.",
"y.r.q.y.s.r.8.6.:.8.r.s.r.*.<.q.q.y.0.7 @ % % * - ; 4 0 e t p Z S H ! ! ' ] ..1.4.w...r &.q.q.i.<.r.y.0.-.0.g.-.>.*.>.t.",
"y.t.t.r.6.r.t.r.8.u.8.a.y.0.i.q.q.y.8.6 # % - - - ; 4 0 e u p Z S K P ^ ' ] ..1.4.5.S < 7.g.s.y.<.r.0.<.r.r.q.q.y.t.0.8.",
"y.g.u.r.r.8.a.y.r.8.t.y.y.y.q.s.t.s.-.1 O & * - ; ; 4 e t u p S F L ! ^ ' ] &.1.5.! 8 1 &.h.q.i.i.i.-.i.y.r.-.y.q.y.0.u.",
"y.>.<.r.>.>.8.u.t.t.r.t.r.q.h.d.s.g.8.2   # * ; ; ; 4 e t d J I J L ! ^ ] { 1.3.L 0 Z e %.j.r.r.s.>.0.r.q.q.y.y.y.y.r.-.",
"-.:.:.<.y.0.*.0.r.r.8.8.0.8.d.h.y.y.t.3   o # - ; > 1 e u I M b  ./ ~ ) ] { ^ p 4 Z ] e X.d.d.t.s.>.-.>.y.y.y.i.y.g.q.>.",
"u.-.<.y.i.i.i.>.r.0.y.r.-.r.g.y.u.u.6.1   X . O % ; 1 0 f m z c x } ! ! H u 4 0 S ) ' r @.d.y.g.q.q.*.<.r.y.y.<.t.q.q.0.",
"p.i.r.<.r.r.0.q.y.y.<.y.t.s.d.q.r.t.*.3           O @ - s n c c l h 0 4 > 4 t F ! ^ ^ C q.0.u.t.0.<.0.r.>.i.<.t.-.-.0.y.",
"i.r.i.>.>.>.r.<.>.q.-.=.y.y.y.8.6.6.q.V                 5 v B B k a ; 4 e u Z D L ^ Z W 0.0.q.6.q.q.y.-.r.r.>.q.-.>.-.y.",
"r.<.,.<.:.i.i.r.r.8.t.t.0.d.q.q.a.t.r.=.2     o         : g n N j 5 1 8 e u p D P H i 8.t.>.t.q.>.q.y.6.q.y.r.u.-.-.0.y.",
"r.<.e.r.i.u.<.i.u.<.y.d.q.g.d.d.d.8.8.8.Q <         X o o : h g q > 1 8 e u Z H A y _ r.0.8.d.r.>.y.d.g.g.y.u.>.q.y.>.>.",
"0.:.r.r.t.r.u.p.y.u.t.y.h.d.g.y.0.r.r.8.q.` 8 O   o o X o O % % $ - 4 8 e u p t i o.e.:.*.:.e.>.r.y.g.h.h.y.r.r.y.i.<.0.",
"8.>.>.i.<.:.y.h.g.g.y.t.y.d.g.y.0.0.d.t.i.>.*.C ; + X   X o   O $ - 1 8 0 0 e G q.s.8.=.*.:.<.r.t.d.d.d.g.y.-.r.r.r.y.g.",
"8.=.8.8.8.0.d.s.0.y.u.i.s.g.p.y.g.i.0.y.r.>.>.t.%.G w < % + O O # = 2 9 i T +.q.d.d.q.>.:.-.8.s.f.t.u.6.s.t.r.r.*.-.g.l.",
"a.r.t.p.y.t.q.t.g.i.i.p.p.y.j.y.d.r.t.t.-.;.:.6.q.0.-.=.` Y K G G U ` 2.h.d.8.0.s.y.t.r.r.r.0.s.8.8.8.-.a.r.s.>.*.q.h.l.",
"9.t.r.6.q.t.y.t.y.y.g.<.r.p.h.g.g.y.j.d.e.e.<.e.y.i.p.y.p.i.y.y.s.e.t.h.h.h.r.a.d.s.h.g.h.y.t.h.s.t.r.r.t.g.g.t.q.h.h.q.",
"p.8.8.q.a.f.t.r.q.g.d.0.i.i.i.g.y.t.t.u.s.e.:.8.g.y.s.p.0.-.0.y.8.8.t.k.h.t.g.d.8.t.s.y.d.0.0.q.t.t.6.t.s.d.d.h.h.h.d.q.",
"e.=.:.t.d.t.t.>.s.f.t.s.y.i.p.i.t.r.<.,.e.i.u.r.q.q.0.q.0.%.>.r.@.:.s.s.h.q.t.8.8.8.t.t.y.t.8.8.-.=.#.e.t.t.d.f.s.h.q.q.",
"r.e.<.e.u.t.i.i.d.t.>.d.j.p.<.i.t.p.<.,.e.s.s.t.y.y.0.q.<.>.r.q.8.u.p.s.s.q.0.>.:.0.a.d.8.8.r.:.>.;.>.r.y.t.d.s.h.q.0.q.",
"t.>.;.:.u.u.p.d.-.0.u.d.d.r.>.p.u.p.u.<.,.u.g.q.y.0.y.i.-.<.g.d.a.r.;.t.f.q.r.;.*.e.y.t.-.r.;.r.:.8.r.y.t.y.h.h.d.q.d.q.",
"t.=.;.,.r.s.s.t.6.t.t.t.8.-.r.g.u.u.r.:.>.t.y.t.r.t.d.i.-.r.h.d.8.8.8.s.h.t.8.<.:.r.>.p.-.<.>.t.u.s.y.t.q.g.h.l.q.t.h.d.",
"8.#.#.e.p.9.i.e.u.r.y.q.>.8.r.g.r.:.<.r.i.u.:.i.p.y.y.u.>.t.t.8.s.t.t.d.8.8.8.u.8.r.8.s.u.8.8.y.s.d.t.a.s.y.s.h.s.d.h.t.",
"e.;.e.8.6.r.e.e.r.0.d.g.e.r.u.:.r.:.r.p.y.-.<.r.d.t.t.:.i.d.;.:.u.e.a.d.8.e.8.r.p.e.u.r.e.8.t.t.a.8.s.f.d.d.h.h.f.t.e.e.",
"u.,.u.8.t.r.#.8.u.r.s.g.8.u.e.:.r.q.p.g.i.<.<.<.t.p.t.r.t.y.8.>.=.8.d.t.8.s.t.8.s.p.r.8.e.e.t.8.q.q.l.h.d.d.h.q.q.8.#.>.",
"e.p.8.8.9.8.:.8.u.r.r.t.p.t.8.r.i.g.y.y.-.i.r.>.e.s.s.p.i.t.*.*.:.8.t.a.r.r.r.r.t.s.r.8.r.t.t.a.h.l.l.k.s.a.t.8.:.u.;.#.",
"t.a.>.=.e.e.e.r.<.<.r.>.s.t.t.a.p.0.0.r.<.>.t.<.e.d.d.t.d.;.=.*.*.0.s.t.i.e.e.e.t.y.d.r.s.s.t.d.h.k.h.f.t.s.r.*.;.e.:.#.",
"t.a.i.u.r.8.:.e.<.<.u.r.s.q.t.s.0.0.-.>.t.>.r.s.d.s.q.t.p.:.:.;.*.-.s.d.t.r.u.u.y.d.d.t.k.h.d.d.h.s.a.q.s.t.e.;.#.=.e.#.",
"s.r.e.e.e.e.e.e.r.i.6.u.6.8.6.0.t.y.-.>.r.0.y.g.d.r.>.s.8.-.:.>.*.8.q.a.s.a.f.y.t.s.f.h.s.d.h.d.d.t.8.q.g.r.8.>.>.8.u.8.",
"8.e.e.>.e.u.e.,.r.r.t.8.6.8.8.>.t.d.y.0.r.i.p.0.d.e.:.s.8.*.6.8.t.8.t.s.t.r.p.s.d.f.h.h.s.a.g.y.t.t.8.d.g.p.d.d.r.=.8.u.",
":.e.i.>.i.>.>.,.>.r.-.#.=.u.s.0.p.y.h.t.8.p.=.-.p.8.0.t.q.8.9.s.d.8.0.0.r.t.t.d.k.k.f.s.p.g.y.y.g.d.h.d.d.t.t.8.8.*.8.u.",
"8.r.e.t.8.8.<.<.<.r.;.#.:.e.d.t.r.d.s.g.s.u.:.>.t.8.q.s.q.a.a.9.t.y.r.r.i.t.q.f.l.k.f.t.h.h.p.g.t.t.h.0.r.t.r.t.8.-.=.-.",
"r.e.r.t.8.0.p.e.e.r.<.<.<.u.g.t.8.i.8.t.p.y.t.y.d.t.s.q.9.a.t.q.t.j.d.t.p.d.g.h.h.k.f.d.d.t.p.y.8.h.d.y.r.r.>.e.8.8.8.e.",
"t.6.u.8.8.r.p.s.d.p.i.i.i.d.d.s.y.r.-.0.8.y.p.t.r.t.r.d.8.t.s.t.t.g.z.h.h.k.h.s.s.d.q.h.t.t.h.d.s.g.0.q.e.t.u.t.e.r.u.u."
};
