/* XPM */
static char *result[] = {
/* columns rows colors chars-per-pixel */
"60 60 132 2 ",
"   c #161616",
".  c #181716",
"X  c #161618",
"o  c #191718",
"O  c #17181A",
"+  c #1A1A1A",
"@  c #1F2222",
"#  c #252425",
"$  c #282729",
"%  c #272829",
"&  c #2B2C2C",
"*  c #30302F",
"=  c #2C2E30",
"-  c #302F30",
";  c #2E3133",
":  c #343434",
">  c #343639",
",  c #37393B",
"<  c #3B3B3B",
"1  c #3E4244",
"2  c #434343",
"3  c #484847",
"4  c #45474A",
"5  c #4B4B4B",
"6  c #4F5052",
"7  c #535353",
"8  c #575859",
"9  c #5B5B5C",
"0  c #5A5F64",
"q  c #5F6265",
"w  c #5C6168",
"e  c #646565",
"r  c #62656C",
"t  c #6B6B6B",
"y  c #6A6E73",
"u  c #6F767C",
"i  c #747475",
"p  c #7B7B7B",
"a  c #F7E252",
"s  c #FAED56",
"d  c #F9EC58",
"f  c #F1DB68",
"g  c #F0DB74",
"h  c #F8E764",
"j  c #F4E168",
"k  c #6F7781",
"l  c #797D80",
"z  c #848484",
"x  c #818489",
"c  c #878B8E",
"v  c #8C8B8C",
"b  c #858B92",
"n  c #898F94",
"m  c #8E9399",
"M  c #939393",
"N  c #94999E",
"B  c #9B9B9B",
"V  c #959AA4",
"C  c #999EA9",
"Z  c #A09FA0",
"A  c #9EA2A6",
"S  c #9CA3AE",
"D  c #9EA5B2",
"F  c #A3A3A3",
"G  c #A7AAAC",
"H  c #ABABAB",
"J  c #A4AAB4",
"K  c #AEAFB0",
"L  c #ACB3BC",
"P  c #B4B3B3",
"I  c #B8B7B6",
"U  c #BABABA",
"Y  c #C6BCA4",
"T  c #C0BFBE",
"R  c #E6CE80",
"E  c #EBD585",
"W  c #E5D28D",
"Q  c #E5D49D",
"!  c #DCCCA5",
"~  c #D1C4A8",
"^  c #CFC5B0",
"/  c #C4C0BC",
"(  c #DAD4B7",
")  c #DFD4BD",
"_  c #E6D9B4",
"`  c #A7B3C6",
"'  c #AEB7C2",
"]  c #AAB5CB",
"[  c #AEBACC",
"{  c #B4BBC4",
"}  c #B8BFC6",
"|  c #B2BED2",
" . c #BBC0C5",
".. c #B6C0CD",
"X. c #BCC4CE",
"o. c #B6C2D5",
"O. c #BAC5D6",
"+. c #BDC9D6",
"@. c #B6C3D9",
"#. c #BAC6DA",
"$. c #BECADB",
"%. c #BBC7E0",
"&. c #BDCAE1",
"*. c #C3C2C3",
"=. c #CCCBCD",
"-. c #D2CDC5",
";. c #DCD8C6",
":. c #C2CAD4",
">. c #C2CDDD",
",. c #C8CFDA",
"<. c #C6D1DE",
"1. c #C9D3DE",
"2. c #D0D6DB",
"3. c #E4DFC1",
"4. c #C2CEE1",
"5. c #C5D2E2",
"6. c #CAD5E3",
"7. c #CED9E6",
"8. c #C7D3E8",
"9. c #CAD6E8",
"0. c #CEDAE9",
"q. c #D0D7E4",
"w. c #D2DBE6",
"e. c #D9DFE5",
"r. c #D3DDEA",
"t. c #D8DFEC",
"y. c #D8E0E7",
"u. c #D6E1EC",
"i. c #DAE2EC",
"p. c #DBE5F1",
"a. c #E2E7ED",
"s. c #E1EAF1",
/* pixels */
">.$.1.5.5.8.6.i.u.O.$.<.>.@.o.@.5.&.5.6.u.7.5.5.5.#.6.$.@.0.r.1.7.7.7.7.+.+.$.7.y.y.u.0.u.6.7.$.i.y.7.6.1.o.+.1.+.+.+.+.",
">.5.q.w.r.4.#.<.6.@.@.:.<.[ #.$.5.5.&.@.$.$.+.<.1.$.$.$.$.<.$.6.w.7.1.7.$.+.7.u.u.p.r.7.1.$.$.$.w.7.r.0.1.$.1.$.$.+.$.+.",
"r.7.e.i.w.#.#.4.+.&.@.O.6.$.<.6.6.@.o.#.5.$...$.5.$.$.&.0.5.7.7.7.y.i.u.u.0.0.r.0.2.7.6.o.o.+.1.y.u.$.O.$.$.1.$.$.7.u.$.",
"w.6.7.7.w.6.4.$.4.6.6.6.7.y.y.7.<.$.$.$.$.+.<.6.6.$.5.6.0.y.y.p.y.y.y.i.y.$.5.$.+.7.$.@.+.+.$.6.1.1.$.$.$.1.$.$.+.0.6.o.",
"q.>.>.#.#.5.5.4.8.8.6.0.7.w.w.5.7.<.<.8.0.8.y.u.7.<.6.6.<.u.7.u.7.w.i.u.u.<.$.+.$.6.o.o.$.$.6.6.$.$.....$.7.<.1.7.7.#...",
">.1.5.$.>.>.5.$.&.4.6.p.6.r.0.7.7.$.&.&.$.+.<.#.6.>.w.<.5.<.r.r.u.7.$.7.y.u.6.7.1.6...+.6.7.$.#.$.&.o.$.<.$.o.o.$.7.$.$.",
"w.7.0.>.>.,.O.#.4.+.7.u.i.0.0.5.<.o.@.<.+.$.<.#.8.7.<.>.5.6.u.8.9.9.<.5.7.u.1.7.u.0.+.$.&.$.$.+.$.7.#.$.&.+.#.o.#.$.&.$.",
"5.>.,.6.5.5.>.+.5.4.>.r.r.$.4.5.&.$.%.8.r.r.#.[ >.1.6.u.6.8.6.5.0.0.5.$.7.7.7.7.&.$.6.&.7.$.0.$.7.6.@.o.$.#.&.$.9.7.0.o.",
"1.6.5.6.q.6.O.| >.>.>.7.&.5.>.8.4.$.>.7.6.4.>.:.1.y.w.<.+.>.5.5.0.9.5.9.0.&.7.7.$.+.&.9.&.$.6.0.y.7.+.+.o.$.5.&.0.5.&.+.",
"1.:.4.4.>.7.>.#.o.,.r.4.5.5.6.5.4.| | <.>.O.6.w.w.w.>.+.<.5.$.6.9.8.u.0.5.<.u.<.7.$.&.6.&.0.&.$.7.$.7.0.5.$.$.$.0.$.+.$.",
"t.5.$.| $.>.6.5.>.7.6.8.$.+.8.4.4.| $.5.,.4.7.:.>.7.$.:.w.5.5.6.7.5.0.7.1.u.7.1.5.$.&.$.6.#.$.0.u.7.7.$.&.o.$.r.7.#.5.+.",
",.p.9.>.1.7.6.8.5.9.>.@.5.4.$.5.5.4.0.w.>.#.1.>...<.>.1.7.5.5.5.&.&.8.r.7.0.<.7.w.+.1.7.$.o.$.0.7.$.7.$.$.&.$.7.$.0.&.+.",
"5.6.q.r.i.q.>.+.6.6.@.o.O.8.5.8.p.r.6.>.@.| 8.>.>.r.7.6.:.4.>.5.$.$.0.u.7.7.6.r.u.6.1.u.1.$.r.7.1.7.u.9.&.5.$.6.6.$.#.o.",
"r.7.5.r.6.>.8.5.<.6.#.@.+.5.0.6.r.5.q.4.@.| 6.,.7.i.w.$.$.#.5.,.+.6.0.w.u.i.y.w.w.7.7.y.0.1.7.7.7.0.0.&.7.&.+.$.$.$.@...",
"1.$.8.5.,.6.$.$.4.6.r.4.5.5.$.6.+.>.w.+.@.,.6.q.7.1.<.$.$.@.+.6.$.7.7.y.u.u.1.y.p.7.y.u.<.0.7.<.5.$.&.0.9.+.o.+.6.&.o.] ",
"5.$.>.@.4.5.5.>.5.6.7.w.6.<.$.&.4.5.r.#.>.5.8.>.7.7.$.@.@.5.6.6.u.w.7.$.7.y.7.i.y.2.7.u.0.1.&.7.5.o.$.r.5.X.o.$.7.$.&.o.",
"6.#.#.o.+.O.r.r.8.$.&.$.5.5.<.$.4.w.6.1.8.$.+.<.0.<.1.6.5.0.7.6.6.y.6.<.7.w.w.u.r.7.7.<.7.&.+.r.$.@.5.5.>.$.$.5.8.>.6.:.",
"7.+.$.6.0.6.5.6.0.&.$.o.@.8.<.6.7.5.1.w.<.5.$.u.u.5.7.8.8.<.$.9.8.r.7.7.y.7.r.w.0.7.7.o.$.8.&.$.+.5.&.&.#.5.5.6.<.5.r.1.",
"y.y.y.7.6.5.5.$.+.$.$.&.+.8.<.>.<.7.u.i.i.9.r.y.w.6.<...J D S D J L  .2.u.7.r.r.0.0.6.#.<.6.1.+.$.6.+.$.$.5.6.7.5.6.r.@.",
"r.u.7.6.8.5.+.@.o.#.6.0.7.$.+.1.+.<.0.7.p.r.y.y. .n r 6 1 1 1 1 5 7 9 i m L 1.w.6.7.&.$.6.<.7.<.<.@.@.&.5.9.6.w.7.7.$.[ ",
"r.O.>.r.8.5.<.6.4.+.@.>.:.<.6.7.<.1.5.&.r.p.:.l 2 * * * < < 1 2 5 5 6 7 8 q x } 7.6.#.5.0.6.r.7.$.o.@.0.7.<.$.6.7.7.+...",
"p.>.4.r.0.6.6.6.5.$.+.+.6.w.,.q.y.w.5.5.7.D 5 % & * * < < 1 2 3 5 5 7 7 8 i M M J 2.$.8.<.0.u.7.7.+.+.5.7.O.$.+.1.w.$.+.",
"i.>.>.$.4.8.>.+.>.O.O.6.7.r.y.r.u.0.i.u.V > # % & * : < < 1 2 3 5 5 7 t v H U U H A <.0.r.7.0.<.5.<.O.1.<.<.O.5.6.1.>.[ ",
"7.u.5.5.@.+.5.@.@.O.+.5.>.<.7.r.7.7.7.L < # % & * : : < < 2 2 5 8 t v B H P U *.=.K S <.0.u.7.$.$.$.$.r.>.O.w.1.+.o.6...",
"w.w.7.$.@.@.<.8.5.>.>.5.$.5.7.w.r.8.,.t # # & & * : < < 2 7 e i z M B F H P / ( =.=.A X.9.u.0.6.&.+.y.0.6.$.<.2.6.8.r.1.",
"r.>.r.<.$.4.$.6.7.1.>.>.$.7.7.6.8.0.X.< # # & * : : < 3 9 t i z v M B F H Y R f Q ;.U L 6.r.5.<.0.i.7.7.<.<.6.7.r.p.r.:.",
"8.w.t.w.5.4.$.O.4.w.,.#.>.7.4.6.$.r.X.< # $ & * : : 2 8 e t i z v M Z F P W a s h 3.*.N 1.6.0.5.0.7.0.w.w.<.0.$.7.r.w.1.",
"5.q.7.q.7.>.@.+.>.5.5.,.w.#.4.8.$.u.X.< # $ * * : < 5 9 e t i z v M Z F Y j d d d _ *.c +.+.6.$.0.0.6.6.7.<.7.<.$.$.<.1.",
"6.6.<.6.w.>.>.>.#.>.6.w.<.@.5.<.6.7..., $ & * * : < 7 9 t i p z v B Z H U E j g f ) G y 2.7.1.9.&.8.6.<.+.6.7.+.#...6.<.",
"7.7.6.6.>.1.6.>.4.6.5.q.6.$.7.<.6.0.{ > $ & * * : 2 7 9 t i z z M B F H P ~ E j E -.t 8 y.7.7.6.$.0.<.$.<.7.<.6.7.6.$.+.",
"0.7.8.5.5.<.7.7.>.>.7.7.0.7.w.7.6.0.' = # * : : < < 7 e t i p v M B G G P U ^ ! -.v 3 9 y.r.6.6.9.8.$.9.6.1.+.7.1.7.&.+.",
"6.$.&.5.$.$.$.6.7.5.5.<.6.1.i.w.r.u.{ = . & : : < 2 7 e t i z v M Z F K I T *./ v 8 c r 1.u.5.6.6.$.<.6.6.1.7.7.0.6.6...",
"+.#.#.5.0.$.O.1.<.6.$.<.<.<.y.u.6.r.O.= . + $ : < 2 5 e i p z v M Z H K U U Z t 7 B H r $.u.0.6.7.+.O.&.r.r.0.6.r.u.$...",
"5.$.&.0.7.0.5.&.5.<.7.<.$.8.u.7.6.7.' &   X o + * < 3 9 i p z M B Z F Z v e 5 e B P F y <.u.7.w.1.<.o.&.<.r.1.&.6.6.1.+.",
"0.9.5.&.&.5.1.6.6.7.&.7.7.y.y.$.5.5.' -         . + $ : 2 7 9 e e 9 7 2 2 7 p M Z P M m 7.<.<.7.$.1.$.5.&.0.$.6.+.+.1.+.",
"5.8.8.$.$.$.9.&.&.1.+.+.7.7.7.+.>.>.>.0   .           . . . + + $ * < 7 e i z M Z H p { <.<.<.,.6.6.6.+.6.$.$.1.>.+.$.,.",
"5.&.$.%.&.9.5.&.6.$.0.<.<.u.<.6.7.8.5.L > . .   o   X O O O + @ & < 5 9 e i z M A x c 6.<.+.7.<.<.<.7.$.7.6.6.5.+.>.<.<.",
"6.$.5.8.9.5.$.0.5.5.7.r.6.y.7.u.w.>.>.>.m ;       o X o . O . + & < 3 7 t i z M p k ..5.<.5.u.$.<.7.y.y.w.6.5.>.1.1.$.O.",
"$.$.5.5.8.5.8.r.0.8.8.7.u.r.y.6.<.4.5.>.6.D 4     o o o . + O + & < 3 8 t i i t b #.$.+.@.#.&.$.8.r.u.p.y.8.4.8.0.5.5.$.",
"$.$.$.9.$.$.u.u.r.u.7.6.7.u.u.7.<.6.7.7.6.$...u > + X X . .   @ & , 3 7 8 9 y G 7.6.<.@.@.+.&.6.7.0.u.r.y.6.$.6.5.5.7.2.",
",.o.>.>.5.<.r.1.1.0.9.9.r.r.r.9.u.6.<.7.5.$.>.1. .n w 1 & @ @ @ & > 5 q c J X.7.y.7.<.+.+.+.5.r.w.8.4.>.w.7.5.$.@.>.a.2.",
"7.5.7.7.7.6.1.7.r.9.9.0.0.0.i.7.7.6.7.<.@.@.@.>.6.$.$.O.L V A V V C } ,.i.7.>.1.u.6.6.6.8.5.<.w.>.4.>.O.q.1.7.@.O.w.i.2.",
"+.w.1.>.<.7.6.7.1.u.r.$.9.0.u.i.u.7.p.0.5.4.$.5.0.0.0.7.0.5.y.6.0.4.q.t.i.t.5.r.r.w.i.i.u.6.7.i.q.q.5.8.7.i.w.7.7.i.y.:.",
"7.#.>.5.w.w.6.5.6.u.0.5.9.9.0.r.8.7.8.9.0.>.#.5.u.6.7.y.$.#.<.6.+.4.r.a.r.7.i.7.$.6.7.w.0.,.<.<.1.>.>.7.7.r.w.a.i.y.w.O.",
"+.#.$.7.y.6.8.$.u.7.6.r.0.9.0.&.0.5.%.@.8.6.6.5.<.1.<.6.$.o.5.$.| 4.w.w.e.5.7.+.>.<.6.7.7.<.4.#.>.| o.5.5.7.r.t.y.e.1.X.",
"8.$.4.&.8.0.6.0.r.6.$.u.p.6.&.0.9.9.%.%.4.r.9.7.7.1.<.<.$.+.6.<.>.9.7.w.q.1.>.#.#.5.w.w.>.>.>.$.#.O.>.7.6.7.i.w.i.1.<.O.",
"7.$.@.#.&.0.w.6.O.6.9.y.7.&.&.u.5.0.8.%.$.9.r.<.6.<.u.5.#.8.t.w.6.>.#.r.t.1.4.@.@.5.7.5.$.>.+.8.#.5.5.w.1.r.i.y.q.7.r.+.",
"4.| @.%.7.r.7.<.<.6.6.2.$.$.7.u.5.8.&.#.4.0.7.6.6.8.u.5.+.6.i.r.5.,.>.t.w.>.>.$.4.4.<.6.$.#.4.9.5.r.7.5.7.u.i.y.1.r.t.1.",
"#.| @.5.7.,.6.4.8.6.7.<.<.5.7.0.&.$.&.6.0.&.$.0.0.8.q.4.$.r.>.4.0.8.q.r.>.>.>.8.>.5.5.7.4.>.5.7.w.7.1.w.7.7.w.i.r.r.r.:.",
"4.#.4.>.:.5.4.4.&.<.u.7.5.5.$.$.&.$.8.r.5.$.&.9.r.7.<.$.0.7.#.$.4.5.w.q.#.5.>.6.7.5.5.7.4.4.6.7.6.,.i.r.r.t.i.i.r.4.>.o.",
"8.>.8.>.6.4.@.>.6.6.r.r.$.8.$.$.6.1.u.r.7.&.&.&.7.7.7.4.7.7.$.$.o.4.t.5.&.7.6.<.r.8.>.4.4.8.5.1.1.e.a.i.r.r.t.,.>.,.o.o.",
"8.8.#.>.4.:.$.>.8.5.5.8.0.8.<.8.r.r.7.<.$.7.&.$.4.r.w.8.7.>.| @.:.4.q.6.8.5.5.5.q.q.8.>.6.7.,.w.i.a.a.i.q.w.8.o.>.4.@.` ",
"6.7.+.@.5.4.4.4.%.5.5.&.w.1.7.w.7.$.&.<.$.$.7.$.7.r.w.7.7.O.o.@.@.<.w.7.0.$.5.&.7.w.9.5.i.7.w.r.a.y.i.w.7.w.>.| #.4.@.] ",
"6.7.0.8.4.>.$.4.#.5.5.8.7.,.6.7.1.<.+.&.7.$.7.0.i.5.1.7.6.@.O.o...>.w.w.6.6.7.8.r.r.w.w.i.i.w.y.i.7.7.1.w.6.&.@.@.#.$.[ ",
"7.>.5.5.&.5.4.4.8.6.>.5.>.:.>.<.7.7.+.<.$.5.0.u.r.&.+.r.$.$.$.#.O.<.6.q.7.7.u.6.7.w.i.i.q.w.u.0.r.5.+.7.r.5.5.$.4.>.6.o.",
"+.5.$.$.8.8.%.%.<.5.6.$.+.<.>.+.7.y.0.<.9.0.0.$.r.$.>.r.+.@.+.1.6.<.7.w.5.6.7.r.w.i.i.p.7.w.u.6.w.>.6.p.r.0.r.6.+.o.8.O.",
"#.6.8.>.6.$.%.%.&.5.o.o.@.0.7.6.0.r.p.<.6.6.o.$.7.$.6.7.7.,.<.w.7.>.>.5.5.6.5.i.a.y.t.q.r.y.w.r.y.w.i.7.7.>.6.>.>.O.4.O.",
"5.4.>.6.+.5.&.&.&.5.@.@.#.8.w.6.5.0.7.u.r.<.#.$.6.<.2.w.1.1.1.1.7.7.6.4.9.7.2.i.a.a.r.r.i.r.0.r.5.r.y.>.7.6.5.5.>.#.O.o.",
"5.4.6.9.>.6.9.4.8.4.&.&.&.7.i.<.5.6.<.1.0.7.8.r.7.7.7.<.,.7.<.<.0.p.r.6.r.p.i.i.i.i.w.r.7.7.r.7.7.i.0.6.5.4.>.5.>.4.>.o.",
"5.>.5.#.$.<.w.w.r.0.0.9.r.r.r.w.0.<.$.<.<.0.7.<.6.6.6.w.5.7.w.6.0.p.s.i.p.i.y.6.w.q.7.p.5.r.r.w.w.w.$.5.5.6.8.6.4.8.0.>."
};
