/* XPM */
static char *result[] = {
/* columns rows colors chars-per-pixel */
"60 60 145 2 ",
"   c #161616",
".  c #181715",
"X  c #161619",
"o  c #181718",
"O  c #1A1A1A",
"+  c #1E2021",
"@  c #252425",
"#  c #262628",
"$  c #252829",
"%  c #2B2C2C",
"&  c #31302F",
"*  c #302F30",
"=  c #2F3234",
"-  c #343434",
";  c #383737",
":  c #3C3C3C",
">  c #3F4244",
",  c #434445",
"<  c #424548",
"1  c #45494D",
"2  c #4B4C4C",
"3  c #474B50",
"4  c #4B4E54",
"5  c #4F5155",
"6  c #525353",
"7  c #565758",
"8  c #56595D",
"9  c #5B5B5B",
"0  c #62605C",
"q  c #626363",
"w  c #676768",
"e  c #6B6B6C",
"r  c #78766D",
"t  c #656C74",
"y  c #6A6E72",
"u  c #6E7377",
"i  c #737373",
"p  c #71757A",
"a  c #75797D",
"s  c #7C7C7C",
"d  c #A88A4F",
"f  c #8A857F",
"g  c #B29E68",
"h  c #A89B7C",
"j  c #E5C058",
"k  c #F4DB55",
"l  c #F2D45D",
"z  c #F7E252",
"x  c #F8E852",
"c  c #F7E85A",
"v  c #E1C465",
"b  c #F0D262",
"n  c #F4DD60",
"m  c #E2CB77",
"M  c #F0D778",
"N  c #F5E76B",
"B  c #777B82",
"V  c #7C828A",
"C  c #838383",
"Z  c #8A8884",
"A  c #86888A",
"S  c #8C8C8C",
"D  c #938D83",
"F  c #838A92",
"G  c #8B8F99",
"H  c #8D9093",
"J  c #8F949A",
"K  c #949494",
"L  c #989798",
"P  c #97999A",
"I  c #9B9C9C",
"U  c #A49C89",
"Y  c #959BA3",
"T  c #9B9EA2",
"R  c #9FA3A6",
"E  c #9BA1AC",
"W  c #9DA5B1",
"Q  c #A4A4A4",
"!  c #A8A5A1",
"~  c #A4A9AE",
"^  c #ACACAC",
"/  c #B1AFAA",
"(  c #A5ABB4",
")  c #AFAFB0",
"_  c #A4ADBB",
"`  c #ACB3BB",
"'  c #B4B4B5",
"]  c #B8B8B7",
"[  c #B8B7B8",
"{  c #BCBCBC",
"}  c #CABC99",
"|  c #DECA85",
" . c #E0CD89",
".. c #ECDB84",
"X. c #E8D88C",
"o. c #CDC6A8",
"O. c #DCD3AB",
"+. c #C8C1B0",
"@. c #AAB5C2",
"#. c #A9B8CA",
"$. c #B2BAC3",
"%. c #B2BFCF",
"&. c #B8BFCA",
"*. c #B2BFD3",
"=. c #BFC0C0",
"-. c #B3C1CF",
";. c #BCC4CD",
":. c #B5C2D5",
">. c #BAC5D5",
",. c #BDC9D6",
"<. c #B6C3D9",
"1. c #BAC6DA",
"2. c #BECADB",
"3. c #BBC7E0",
"4. c #BECBE1",
"5. c #C4C4C3",
"6. c #C7C6C8",
"7. c #CBCBCB",
"8. c #D0CFCF",
"9. c #C2CAD4",
"0. c #C2CDDD",
"q. c #C5D1DE",
"w. c #C9D3DE",
"e. c #D3D3D2",
"r. c #D0D6DD",
"t. c #C2CEE1",
"y. c #C6D2E2",
"u. c #CAD5E3",
"i. c #CED9E5",
"p. c #C7D4E9",
"a. c #CAD6E8",
"s. c #CEDAE9",
"d. c #D0D7E5",
"f. c #D2DBE6",
"g. c #D8DEE6",
"h. c #D3DDEA",
"j. c #D8DFEA",
"k. c #D7E1E7",
"l. c #D6E1EC",
"z. c #DAE2EC",
"x. c #DCE5F1",
"c. c #E1E6ED",
"v. c #E1E8EF",
"b. c #E0E6F0",
"n. c #E2ECF5",
/* pixels */
"0.2.q.y.y.p.p.j.x.2.2.0.0.>.*.:.y.2.y.t.s.i.u.p.u.>.u.4.>.u.l.u.s.w.u.i.,.2.4.u.k.k.l.s.h.k.u.u.i.z.i.a.i.,.;.q.2.:.q.,.",
"0.y.i.d.f.y.,.0.u.>.:.>.u.-.:.q.y.p.t.1.,.q.1.,.i.2.2.2.2.2.q.q.i.s.u.k.w.2.q.h.l.x.z.i.a.,.2.1.u.d.h.h.u.0.0.y.,.,.q.q.",
"h.i.g.c.h.,.1.t.2.2.:.:.u.q.q.w.u.1.:.<.q.2.:.>.u.2.2.2.s.a.w.i.i.k.k.v.k.s.i.k.i.i.u.i.2.:.2.,.f.g.i.>.>.0.0.q.2.q.s.k.",
"f.u.i.i.i.i.t.2.t.u.i.p.i.i.f.i.q.2.2.2.q.,.0.w.a.,.4.u.i.h.f.x.k.k.k.z.x.w.4.2.,.u.2.1.:.,.>.q.u.w.q.1.2.y.0.,.,.u.a.u.",
"d.0.9.2.,.t.u.t.p.p.i.i.f.i.f.y.h.q.q.y.s.p.f.z.h.q.q.i.q.i.f.k.s.i.k.z.x.i.2.2.,.i.,.:.1.q.u.a.9.,.:.#.>.0.y.y.4.a.2.:.",
"w.0.u.2.2.t.y.2.4.4.y.z.i.s.h.a.s.2.2.4.y.<.y.1.y.0.i.w.y.q.i.h.l.k.y.4.h.k.i.i.w.i.,.#.q.a.,.2.<.u.0.1.0.0.,.:.2.u.u.2.",
"f.i.f.t.9.0.>.>.y.1.p.z.z.s.s.u.y.:.<.4.0.,.q.2.y.i.u.0.y.y.s.s.a.i.y.q.i.i.i.w.s.s.,.>.q.0.2.>.2.i.2.1.4.t.>.>.:.q.q.p.",
"p.9.0.p.u.u.0.1.y.y.9.f.l.2.0.y.t.4.1.y.i.h.0.#.,.w.u.h.u.u.a.p.a.s.y.4.y.f.i.i.q.y.p.u.y.y.p.q.q.i.2.*.1.:.2.t.2.a.u.u.",
"u.u.u.u.d.u.9.*.,.0.0.i.t.t.0.u.t.2.0.u.u.t.0.9.q.f.g.u.>.9.y.t.s.a.a.a.s.4.i.i.2.,.2.a.s.2.2.a.i.i.u.:.1.1.u.y.y.a.y.2.",
"w.,.2.t.0.u.0.1.:.0.f.p.t.q.a.t.t.*.*.0.0.9.q.f.h.k.q.9.0.u.2.y.a.s.s.s.u.q.k.w.i.2.4.4.4.s.4.4.i.y.y.i.u.q.:.2.y.y.:.y.",
"j.u.t.*.0.0.u.y.0.i.i.t.t.1.y.t.y.:.<.y.0.0.d.0.2.w.q.>.d.u.y.p.s.4.s.s.2.h.i.u.u.4.4.w.4.2.1.4.l.u.i.q.y.<.<.a.l.1.2.t.",
"0.l.i.0.q.i.u.p.y.u.t.1.0.t.4.y.y.y.a.j.0.0.0.0.:.0.0.w.w.u.u.0.y.4.4.s.k.h.u.w.k.2.,.u.i.,.2.y.h.q.w.q.4.1.1.i.u.y.a.y.",
"u.w.u.j.z.f.0.2.y.a.1.:.:.y.y.y.l.h.p.u.1.*.t.q.9.f.f.u.0.0.0.y.2.2.s.k.i.i.i.u.z.i.u.f.s.2.i.s.i.y.l.s.p.y.0.0.q.y.2.1.",
"h.i.t.h.w.0.y.y.0.u.2.:.1.y.i.u.s.i.i.w.<.*.t.d.u.z.f.0.2.,.0.u.2.4.s.i.k.x.k.k.k.i.u.k.f.u.i.r.i.i.u.p.2.p.>.2.y.,.1.<.",
"y.4.y.u.0.u.0.2.y.w.j.y.y.u.2.p.t.2.f.2.*.0.u.f.u.u.w.2.4.<.>.u.4.w.s.i.k.l.u.u.x.k.f.k.y.u.s.w.u.y.2.y.a.q.:.-.0.2.1.<.",
"u.2.2.1.0.p.t.0.y.p.u.f.u.y.1.2.4.2.j.,.0.t.u.t.u.i.t.<.1.t.u.q.k.k.i.q.w.z.u.k.x.f.i.k.h.y.q.y.u.1.<.p.f.,.>.:.a.y.3.4.",
"u.1.1.:.,.>.i.l.a.2.4.2.4.u.q.2.0.i.u.u.p.2.,.2.i.y.q.u.y.i.i.u.u.d.f.0.u.i.k.h.l.u.s.q.u.y.>.u.p.<.2.p.2.q.2.2.y.t.0.u.",
"f.,.2.u.i.a.u.w.s.4.4.:.:.p.q.u.i.u.q.k.u.y.0.i.l.u.i.i.p.y.2.y.p.f.k.i.k.i.f.i.l.a.s.,.>.a.2.p.:.q.y.2.2.2.y.u.y.y.p.x.",
"k.h.k.a.a.u.y.2.,.1.2.2.1.p.u.,.0.u.h.z.x.s.s.z.g.i.u.>._ W E W W ` ` e.z.i.i.s.s.i.s.2.,.u.u.q.>.w.y.<.2.4.u.i.u.u.s.u.",
"k.l.u.u.u.y.2.:.:.1.u.i.u.q.,.u.,.w.i.u.l.l.k.z.9.I y 5 > > > < 2 4 8 i A ( 9.g.i.a.y.4.2.a.w.a.q.,.:.2.4.a.u.i.i.i.y.<.",
"j.,.9.h.p.u.q.u.y.,.:.0.9.0.u.d.w.w.y.4.a.x.r.H 2 - & & : : > , , 2 2 2 6 9 p ~ r.i.1.2.i.a.i.k.w.:.:.y.h.u.,.p.u.i.w.,.",
"x.y.t.s.s.y.y.u.y.2.,.2.u.f.9.f.f.k.u.y.s.$.9 % $ & & ; : : > , 2 2 6 6 7 e A K I 9.u.2.a.u.h.f.i.0.2.,.h.,.,.2.9.f.u.,.",
"l.0.2.2.q.u.0.2.0.1.:.w.i.h.k.h.k.k.l.k.` > @ $ % & - ; : > , , 2 2 6 q s Q ] { ] T -.a.s.i.i.a.0.u.1.0.w.q.,.0.y.u.q.2.",
"i.l.u.y.<.1.q.1.<.:.,.w.0.0.i.j.s.a.a.,.5 @ $ $ % - ; ; : : , 2 6 w s L Q ' [ =.6.=.I >.i.k.k.4.2.2.2.u.i.>.q.i.0.:.9.u.",
"f.h.s.2.<.1.0.p.y.y.9.y.t.t.s.i.k.u.p.A @ # % % & - ; : , 2 0 e C S L I Q ' ] =.6.8.] ( i.i.l.s.y.1.u.k.p.q.2.w.d.y.d.f.",
"l.0.f.q.2.4.,.u.d.0.t.2.,.u.f.u.a.a.w.6 @ # $ % & - ; , 7 w r s A D L R ^ ' ] ;.6.8.7.R q.i.f.2.a.l.f.i.w.w.w.u.f.l.x.i.",
"p.u.j.g.y.y.t.:.0.h.q.9.0.s.y.y.4.a.r.6 + # % % - - > 6 0 e i C A H I Q ^ ' { +.6.8.e.I -.w.s.y.a.i.s.i.k.q.i.u.t.h.f.f.",
"u.i.i.d.i.0.>.1.0.q.u.0.s.9.t.y.2.s.w.6 + % % & - ; , 7 q e i C S K I Q ^ ' { 5.7.8.e.H ` 0.q.q.y.s.a.u.i.u.w.y.2.2.2.i.",
"u.u.u.u.f.0.0.0.1.2.u.f.y.:.q.q.u.i.w.5 @ $ & & - : 2 9 q e s C S L I Q ) ] =.5.7.8.6.w ` k.r.u.4.p.i.w.,.2.k.q.,.:.2.u.",
"f.u.u.y.9.u.u.q.0.i.y.u.u.q.p.u.w.i.,.3 @ % = - ; : 2 9 w u s C D L Q / o.+.=.6.7.e.I : $.k.u.s.2.4.u.2.q.u.u.2.i.u.u.,.",
"i.s.a.y.4.q.i.i.0.0.u.i.i.i.i.d.u.i.,.< O * = ; ; : 2 0 w i s Z H P /  .N ..O.5.7./ 9 > ` x.w.a.s.s.2.y.u.i.q.w.w.i.u.y.",
"i.2.4.y.2.2.2.u.u.p.u.y.u.w.z.f.f.z.q.>   $ & ; : : 2 q e i f A H P } n x x X.6.Q 9 s e ( x.s.y.f.2.4.u.w.w.u.u.i.a.u.2.",
"2.1.1.4.i.y.:.q.y.u.q.,.y.0.g.k.s.s.u.1   X @ - : : < q e s f Z K ! | k c z m f 6 s [ e W s.l.u.i.q.>.1.a.i.h.u.a.l.i.,.",
"y.2.4.i.a.a.u.q.u.2.i.u.2.p.l.i.u.u.9.<     o O % ; , 7 e s V S L I o.b M l d 9 A ^ ] y _ j.a.l.r.w.>.2.4.a.s.2.y.w.i.q.",
"s.a.y.4.4.y.q.u.u.u.4.u.a.f.h.u.0.u.>.3         . o + & > 2 7 q q 0 r g j v h S I ^ / a 9.q.u.w.u.2.q.u.2.u.2.y.2.;.,.k.",
"p.y.a.2.2.2.y.4.,.u.1.,.i.i.i.,.0.9.p.B   . .   . o . o O O O O @ % ; 0 U D Z S I ^ S J q.q.w.0.w.u.u.,.q.a.2.a.2.2.,.w.",
"y.4.3.4.4.p.y.y.u.2.u.u.q.k.u.w.i.i.t.&.3     O . . O   O . . O # ; , 6 w r s S I P u ;.u.q.q.u.2.q.i.w.w.i.u.p.q.,.q.u.",
"u.2.y.y.a.u.y.a.y.q.s.h.u.k.h.h.f.0.0.0.( >   O O . . X   O O O # ; , 6 q e C S S t W y.q.2.s.a.2.u.f.k.k.u.u.4.w.u.1.2.",
"2.2.y.y.p.u.p.s.s.p.u.a.l.h.j.u.0.u.t.t.y.$.9 O     O X O . O O # - , 6 q i s e p @.0.2.:.1.0.2.y.a.k.z.x.i.y.y.a.i.y.y.",
",.4.2.a.2.<.f.z.h.k.a.u.s.k.j.i.y.u.f.u.u.2.,.F > + X     X X O # - , 6 7 9 q G w.s.q.2.:.:.4.y.p.l.s.h.k.f.2.t.u.4.u.k.",
"0.:.0.0.y.0.f.u.w.a.y.a.h.h.h.a.l.i.q.i.p.2.2.u.;.Y t > = + O + $ - , 8 B E $.u.f.h.u.9.2.>.0.p.j.i.y.2.u.g.q.y.:.>.f.c.",
"u.u.s.a.i.d.w.i.k.a.a.s.s.s.x.i.i.u.u.u.1.:.:.2.u.y.4.,.$.E E R Y Y ` 9.g.j.0.0.f.i.u.y.p.u.0.d.u.,.t.1.u.w.i.t.:.0.z.z.",
"9.f.p.9.q.d.u.i.a.i.l.4.p.s.l.l.k.s.l.h.y.0.2.t.s.a.h.i.h.y.i.i.s.t.u.j.z.z.u.s.j.f.k.z.z.f.w.z.f.d.i.y.u.h.l.f.u.j.z.g.",
"i.2.9.w.d.g.u.y.u.k.s.u.a.a.s.h.a.u.a.p.s.u.,.4.k.i.i.f.q.,.2.u.0.t.i.c.z.u.h.k.0.y.s.i.h.w.q.w.q.w.2.t.s.f.j.k.z.k.k.u.",
"2.<.2.i.f.u.a.2.h.j.u.s.i.a.s.p.u.y.4.3.y.u.u.p.u.w.q.w.y.-.2.u.*.>.h.d.g.u.u.0.0.0.u.u.i.u.y.0.1.>.*.0.p.p.h.j.k.k.f.0.",
"p.0.t.2.p.a.u.s.s.u.2.k.x.a.2.a.a.a.4.3.4.s.s.u.i.u.q.u.2.4.q.u.0.p.i.d.g.w.w.2.:.0.f.h.q.2.t.1.2.1.1.y.i.u.f.g.k.g.0.u.",
"i.2.<.<.4.s.f.f.>.y.u.f.i.y.2.h.y.s.p.4.2.y.k.w.a.q.i.a.2.2.k.h.i.y.>.u.j.d.y.1.<.2.i.i.2.t.1.y.2.2.u.i.i.u.z.z.g.u.f.u.",
"t.:.<.3.a.f.i.w.0.i.u.u.0.2.y.l.p.p.t.<.4.s.a.a.u.y.k.i.1.y.l.j.u.t.9.f.f.u.0.4.2.p.,.i.2.2.2.u.u.s.i.u.w.f.j.z.f.u.j.g.",
"2.*.<.t.i.q.u.t.a.y.i.w.2.y.a.i.p.1.2.u.a.y.2.y.s.i.s.y.4.u.q.2.a.u.u.h.0.0.9.a.2.y.t.i.u.0.0.u.d.f.u.u.g.i.f.z.j.f.j.f.",
"t.<.t.t.9.y.t.t.q.2.k.h.t.y.4.2.y.1.p.h.a.2.4.y.h.u.u.1.a.g.2.2.t.t.d.h.0.t.t.y.i.u.p.u.t.1.i.w.f.0.d.z.f.j.z.z.j.w.2.t.",
"p.t.a.t.u.0.*.0.u.u.h.s.4.p.4.2.y.u.k.h.y.y.4.4.u.i.s.y.p.i.2.2.1.,.h.d.0.u.u.t.i.i.y.0.t.0.u.q.u.r.c.b.j.f.j.u.0.u.>.<.",
"t.a.1.9.y.0.,.t.p.y.y.u.s.u.q.y.i.k.u.p.2.a.y.4.t.i.f.s.u.u.:.:.,.0.p.d.y.y.y.y.p.f.p.0.p.f.u.u.z.z.c.c.f.i.s.9.:.p.1.*.",
"u.d.1.1.t.0.t.y.4.4.p.2.f.w.d.i.i.q.,.y.2.2.a.2.y.j.h.u.h.1.1.*.:.0.i.i.a.t.t.t.u.i.h.y.f.k.u.h.j.c.z.z.u.f.y.<.*.t.2.*.",
"u.i.a.a.y.0.1.t.1.y.y.p.i.q.u.f.q.q.2.2.u.2.u.f.j.d.0.u.f.1.<.1.%.,.i.g.a.u.p.a.s.s.h.i.z.z.g.g.z.g.w.w.f.i.y.1.<.<.2.<.",
"d.u.t.t.t.t.t.t.p.u.0.y.9.0.9.q.u.i.,.q.y.y.a.l.k.t.2.s.0.<.2.9.>.9.q.f.f.i.j.i.u.f.j.z.g.i.z.s.h.u.q.0.z.y.t.t.2.0.u.y.",
"2.0.0.4.t.a.4.3.t.y.u.9.2.q.0.2.i.f.i.y.q.s.s.2.h.0.1.f.w.:.0.9.a.t.u.d.u.q.i.f.j.j.k.x.h.u.z.s.i.u.0.h.z.h.h.s.t.>.1.p.",
"1.y.p.2.u.2.4.3.2.y.<.*.*.a.i.y.s.f.z.i.y.u.:.>.s.0.q.u.d.q.0.d.h.q.0.p.u.w.u.f.v.c.g.j.i.l.f.i.h.h.l.k.i.u.0.q.0.>.2.t.",
"q.y.t.u.0.0.4.4.4.y.<.<.3.t.j.u.y.s.u.j.h.u.2.2.i.q.u.f.w.r.d.0.u.i.i.0.p.a.u.f.c.c.z.i.l.z.s.l.u.u.z.y.u.i.y.p.q.9.1.>.",
"y.t.u.u.q.q.s.t.y.y.4.4.t.a.k.u.0.p.q.u.u.i.a.s.h.u.f.w.q.w.w.w.u.l.j.u.a.z.z.z.z.z.j.f.j.y.s.f.y.k.l.i.y.y.0.t.t.0.t.t.",
"y.0.y.1.2.w.i.s.h.s.a.a.a.l.h.j.i.u.,.q.q.a.i.u.y.u.y.f.y.u.f.i.u.j.n.x.x.x.k.h.i.j.w.j.s.u.z.i.f.z.0.0.t.u.p.a.y.t.a.a."
};
