/* XPM */
static char *result[] = {
/* columns rows colors chars-per-pixel */
"60 60 139 2 ",
"   c #161516",
".  c #191717",
"X  c #16171A",
"o  c #181718",
"O  c #191919",
"+  c #201F1E",
"@  c #1F2222",
"#  c #242423",
"$  c #262629",
"%  c #262929",
"&  c #2C2C2C",
"*  c #30302F",
"=  c #393128",
"-  c #2F3031",
";  c #343434",
":  c #373A3D",
">  c #3B3B3B",
",  c #45423F",
"<  c #4B4738",
"1  c #3E3F40",
"2  c #3E4041",
"3  c #434343",
"4  c #454648",
"5  c #46494C",
"6  c #4B4B4B",
"7  c #494C50",
"8  c #4D5156",
"9  c #4D5359",
"0  c #535353",
"q  c #595751",
"w  c #56595E",
"e  c #5C5C5C",
"r  c #605942",
"t  c #5C5F62",
"y  c #5C6165",
"u  c #626363",
"i  c #61666C",
"p  c #6B6C6C",
"a  c #666C74",
"s  c #6B6E74",
"d  c #6D7174",
"f  c #6F747A",
"g  c #737374",
"h  c #777778",
"j  c #76797D",
"k  c #7C7C7D",
"l  c #8D7B49",
"z  c #9C8A50",
"x  c #A4965C",
"c  c #B5975B",
"v  c #928162",
"b  c #9B8D62",
"n  c #CDAD54",
"m  c #C5B566",
"M  c #F5D953",
"N  c #F9E952",
"B  c #D9C960",
"V  c #ECCF69",
"C  c #F1DE67",
"Z  c #717881",
"A  c #797C83",
"S  c #838383",
"D  c #878788",
"F  c #87898A",
"G  c #8C8C8C",
"H  c #8A8F94",
"J  c #8A8E98",
"K  c #8D9296",
"L  c #939393",
"P  c #92979C",
"I  c #96999B",
"U  c #9B9B9B",
"Y  c #A0A09E",
"T  c #9096A0",
"R  c #9499A3",
"E  c #9B9EA1",
"W  c #959EA8",
"Q  c #989EAA",
"!  c #9FA3A6",
"~  c #9DA3AC",
"^  c #9EA5B3",
"/  c #A4A4A4",
"(  c #ACABAB",
")  c #A4ABB3",
"_  c #ADB3B6",
"`  c #ADB5BF",
"'  c #B3B3B3",
"]  c #BBBBBB",
"[  c #C0BFBF",
"{  c #F6E98A",
"}  c #A9B4C1",
"|  c #A9B8CA",
" . c #B4BCC5",
".. c #B3BCCB",
"X. c #AFBCD2",
"o. c #B2BFD2",
"O. c #BAC1C6",
"+. c #B7C0CE",
"@. c #BAC1CB",
"#. c #B6C2D5",
"$. c #BAC5D6",
"%. c #BDC8D6",
"&. c #B6C3D9",
"*. c #BAC6DA",
"=. c #BDCADB",
"-. c #BAC6E0",
";. c #BECBE1",
":. c #C4C4C4",
">. c #C3C8CD",
",. c #CCCCCC",
"<. c #C3CBD5",
"1. c #C2CDDD",
"2. c #C8CFDD",
"3. c #CFD0D0",
"4. c #C6D1DE",
"5. c #C9D3DE",
"6. c #D4D4D3",
"7. c #D1D7DE",
"8. c #C2CEE1",
"9. c #C5D2E2",
"0. c #CAD5E3",
"q. c #CED9E5",
"w. c #C7D5E8",
"e. c #CBD6E9",
"r. c #CED9E9",
"t. c #D0D7E5",
"y. c #D1DBE6",
"u. c #D9DFE7",
"i. c #D3DDEA",
"p. c #D8DFE9",
"a. c #D7E0E6",
"s. c #D6E1EC",
"d. c #DAE2EC",
"f. c #DAE4F1",
"g. c #DFE8F3",
"h. c #E1E6EC",
"j. c #E1E9EF",
"k. c #E0E6F1",
"l. c #E2EBF3",
/* pixels */
"8.=.9.0.1.w.w.t.d.1.&.1.5.$.#.#.;.;.9.9.0.q.9.9.0.%.4.4.#.=.a.0.r.4.q.q.=.%.=.q.a.a.f.s.q.y.4.4.q.d.q.q.q.%.%.4.=.#.4.$.",
"1.4.5.u.i.0.$.1.0.=.o.#.0.#...4.9.9.;.*.$.4.%.$.0.;.=.;.=.;.4.4.q.y.y.a.q.=.4.s.a.f.a.e.w.%.;.%.7.q.s.r.9.1.1.0.=.%.4.5.",
"i.t.i.h.s.1.*.=.1.;.%.#.4.0.5.0.0.%.#.&.=.4.$.#.0.*.=.=.r.i.9.s.q.a.a.d.a.q.q.q.q.q.0.e.=.#.$.$.q.y.q.%.$.1.=.1.=.5.y.s.",
"i.5.5.q.0.r.9.=.8.w.t.0.t.q.y.y.0.=.4.=.4.1.1.0.r.4.;.0.q.q.q.d.d.a.s.d.g.4.;.=.%.0.=.$.$.=.=.5.0.4.4.#.=.4.1.1.%.9.q.=.",
"0.0.=.=.%.8.w.1.9.9.r.0.y.0.i.4.q.9.=.8.r.w.q.d.y.9.4.t.4.q.a.q.i.q.a.s.d.a.;.=.%.0.%.#.*.9.5.0.=.=.#.| $.1.4.4.4.e.;.#.",
"5.4.0.1.=.1.9.1.-.-.8.f.i.r.i.r.r.1.;.;.9.&.8.%.4.4.t.5.4.;.0.s.s.a.4.=.a.d.q.q.0.q.%...;.0.;.=.#.9.9.%.1.1.$.#.*.9.5.9.",
"t.0.t.0.<.1.=.o.8.=.8.i.d.i.w.0.9.#.#.=.4.=.5.*.;.r.0.1.9.9.r.r.;.i.q.;.w.y.q.4.q.s.;.%.4.4.=.*.=.y.=.*.=.=.$.*.#.9.9.w.",
"0.1.1.8.r.0.2.%.1.0.1.0.s.9.=.0.8.;.;.8.q.i.1...$.5.0.s.q.9.w.9.w.i.0.;.;.q.y.q.4.=.9.9.9.4.0.9.5.q.1.X.*.&.=.9.;.q.9.9.",
"0.0.0.0.0.0.1.o.&.1.1.0.;.8.4.9.9.8.=.0.0.9.2.<.4.i.i.5.<.1.8.8.r.w.e.e.r.;.q.7.4.%.=.w.e.;.4.w.q.q.9.%.*.%.9.9.9.q.9.=.",
"y.<.=.8.1.0.5.%.#.1.0.r.8.9.w.8.8.o.| 1.1.%.1.y.y.a.5.%.<.0.=.9.0.w.r.i.w.4.y.q.0.;.=.;.;.e.;.;.q.5.9.q.q.;.#.=.9.9.#.9.",
"s.t.8.&.%.1.w.9.1.0.t.9.8.*.8.9.0.*.&.9.5.1.0.1.%.4.9.$.0.0.8.0.q.9.w.r.4.r.q.5.5.4.;.4.;.=.&.;.d.0.0.4.4.*.&.r.s.=.=.;.",
"<.y.i.1.5.q.q.9.w.0.9.*.=.8.8.1.9.0.r.i.8.%.=.2.$.<.1.0.5.0.0.8.4.;.;.r.a.r.q.4.s.=.=.7.q.%.%.0.i.9.5.5.;.*.=.w.9.9.r.9.",
"0.q.5.i.s.t.8.=.1.r.1.o.&.8.0.9.s.s.0.0.*.o.-.0.1.t.i.0.1.1.1.8.4.=.0.s.a.r.y.q.d.q.5.y.q.4.0.q.q.9.f.r.9.9.=.1.4.9.=.*.",
"q.q.9.q.q.4.9.9.1.5.1.#.*.9.0.w.w.0.0.0.*.o.8.t.0.p.i.4.=.%.1.0.=.;.r.q.a.f.a.r.s.q.q.a.a.0.q.0.q.q.9.w.;.w.$.%.1.=.%.&.",
"0.1.8.w.1.t.8.$.8.0.i.0.1.9.8.8.8.%.i.8.o.1.0.i.0.5.0.%.8.*.$.4.5.4.y.q.q.s.q.7.f.a.7.s.0.9.r.5.9.9.=.9.r.4.$.+.4.9.*.&.",
"0.=.=.*.%.1.0.4.9.w.0.q.q.9.=.=.8.1.i.1.1.8.9.1.0.0.9.&.&.=.q.0.y.s.q.4.5.s.y.r.f.y.7.s.i.9.9.9.q.*.&.9.q.=.$.#.r.;.*.;.",
"q.=.#.$.=.$.9.d.r.=.;.*.;.9.9.=.1.0.0.t.w.1.=.=.0.0.4.0.9.q.r.0.0.t.i.2.0.t.s.y.d.9.i.4.9.q.*.9.9.*.;.9.1.1.=.9.9.9.1.w.",
"i.1.=.9.q.q.0.5.r.9.;.#.#.9.9.4.w.0.4.a.q.9.1.r.d.q.q.y.0.9.*.9.w.i.i.t.i.t.q.y.s.0.i.%.#.0.;.9.#.8.8.=.=.=.9.9.9.w.0.d.",
"u.i.s.q.q.9.9.=.*.*.=.9.%.9.0.=.1.5.y.d.d.i.q.a.u.t.4.#.^ R P R R ~ ) >.i.t.q.y.r.r.r.8.%.9.0.4.%.9.9.*.=.;.w.y.0.0.t.w.",
"u.i.q.0.q.9.=.$.#.&.8.r.q.4.%.5.<.4.q.9.s.f.i.d.>.P i 6 2 2 2 2 4 5 0 u k E @.t.q.q.8.;.1.q.5.y.1.=.X.=.8.r.9.q.t.t.4.#.",
"h.2.%.t.w.9.0.0.0.1.o.$.1.1.5.q.5.0.4.;.0.f.7.K 5 * & ; : : 1 3 4 6 0 6 0 w p U <.s.=.=.q.9.q.y.0.#.$.9.i.0.%.9.5.y.5.$.",
"l.0.1.w.i.w.9.0.9.4.=.1.5.i.5.7.y.d.0.w.w.O.y & % & ; ; : > , 3 5 6 0 0 q p G U I O.0.;.q.w.s.q.q.4.=.%.y.=.%.=.1.y.7.%.",
"s.0.=.1.;.9.1.=.=.*.+.4.0.t.s.a.s.q.d.a.+.5 # % & * ; > > > 2 4 6 6 0 u S / ' [ ] ! ` 0.r.r.q.9.1.0.%.1.5.4.%.4.9.5.4.%.",
"0.s.0.9.=.#.1.*.*.*.$.4.1.1.q.y.q.q.e.4.y # % % & ; ; > > , 3 6 q u S I / ' ' [ :.:.E +.q.s.s.9.;.=.%.0.q.$.4.q.1.#.4.9.",
"p.t.i.1.*.*.%.9.0.9.1.1.8.8.t.q.i.0.0.T & # $ & * ; ; > 3 0 e g l T R Y / ' ]  .:.3.[ ~ 9.r.a.q.8.=.0.s.9.4.1.4.i.0.r.i.",
"d.0.q.q.=.8.8.9.w.0.1.1.=.8.t.0.r.0.i.s # $ $ & * ; ; 3 q i g k S G T ! ( ' ] [ :.,.3.! <.r.i.=.w.s.i.q.0.5.5.0.t.s.f.0.",
"0.0.p.p.0.1.;.$.%.t.5.%.1.q.4.w.8.9.t.d + $ & & ; ; > 8 e p g k D L U / ( ' ] :.,.3.6.!  .9.q.9.q.q.r.q.a.4.q.9.8.r.q.i.",
"9.0.0.t.t.9.*.$.1.1.0.2.t.1.=.w.=.r.u.s # $ & - ; ; 3 q u p g k D L U / ( ' ] [ :.3.6.L ) 4.4.9.9.r.w.0.q.0.0.5.=.=.%.q.",
"q.9.9.0.y.5.1.1.*.*.9.t.0.&.=.4.9.0.t.a # $ * * ; ; 6 q u p h v G L Y / ( ] ] :.,.3.,.p ) a.q.0.w.;.q.5.%.%.s.4.%.$.=.0.",
"s.0.q.9.1.4.0.5.1.0.9.0.q.4.0.q.0.q.0.i # & * ; ; > 6 e u g Z F G L Y / ' ' :.:.,.3.Y > _ a.q.q.;.;.0.;.4.w.7.1.q.q.5.%.",
"q.q.r.9.9.=.q.q.0.1.w.0.q.i.q.t.0.r.5.t O & ; ; > > 6 e u g A S L I / ( ' ' ] :.,.' q 4 ~ g.5.e.q.r.;.9.0.0.=.5.0.0.0.9.",
"q.;.=.9.;.;.%.9.0.0.5.0.9.4.i.p.t.f.t.t   @ * ; > > 3 u p h A D G I ! ( ' ] :.:./ e k d ~ d.r.4.r.=.=.9.7.5.q.q.q.0.0.;.",
"=.%.*.;.q.w.$.1.9.0.5.1.8.1.t.d.r.w.i.a   O ; r , 1 3 t p g v F K U / _ ' ] ( k 8 k ' g W r.i.r.q.4.$.*.w.q.s.0.0.s.q.=.",
"0.;.;.0.q.w.w.1.0.1.w.q.=.9.s.t.9.0.1.t   = c B b q 1 6 p h F H K U / U H s 0 q D ( ] g ^ i.q.i.7.5.$.=.9.0.r.=.9.4.q.4.",
"0.r.9.;.8.8.1.9.4.q.8.4.q.y.i.0.1.0.1.i # x M N C r + $ : 4 0 e e e 0 4 1 7 p G U / ' j <.4.w.5.0.=.9.4.;.0.;.9.=.$.%.a.",
"w.9.w.=.=.=.9.9.1.1.=.$.7.t.t.1.1.<.9.W ; m M N C r o o . . O O # & ; 6 t f v G U ( L H 4.1.0.<.5.0.0.4.;.0.=.5.<.=.%.5.",
"q.9.*.8.-.w.w.9.9.=.9.q.4.y.q.5.q.0.0.1.s v V { V < X . o o . O # ; 3 0 u p k G U U d @.0.1.4.0.<.9.q.5.5.r.9.9.4.%.4.5.",
"9.=.8.w.w.w.8.w.r.8.r.i.0.i.s.y.i.1.1.1...k z n l O   o o o O O # ; 3 0 u p k G F a ^ 8.1.1.r.q.=.w.y.a.s.q.0.;.;.7.=.=.",
"9.*.;.9.w.w.0.t.i.9.9.q.s.y.s.q.1.0.2.8.9.$.S < + o o o o . o O # ; 3 0 u g g p f } 8.1.#.&.=.1.=.r.s.d.g.q.9.9.q.r.;.9.",
"4.=.=.9.8.#.0.d.s.s.r.0.q.s.s.y.0.0.t.0.0.1.1.W 7 $ X X . . . O $ ; , 6 0 e u J 4.t.1.%.#.&.;.9.0.s.i.y.s.y.%.9.0.;.q.s.",
"0.$.=.8.1.4.t.y.4.r.9.r.r.i.s.9.i.i.1.q.w.=.*.0.<.^ Z 9 : % @ @ $ ; 4 w A ~  .5.t.s.5.1.=.$.1.w.p.w.9.=.0.y.4.9.#.$.t.h.",
"0.0.t.0.q.0.7.0.i.q.w.r.r.q.g.r.y.0.0.t.%.&.&.%.0.4.=.=.@.) ~ ~ Q ~ ` <.u.d.5.1.y.t.0.0.0.0.4.t.0.<.8.%.5.5.q.9.#.4.d.d.",
"1.5.0.1.1.t.q.w.q.0.s.9.9.r.s.f.i.r.s.i.0.8.;.8.r.q.i.q.s.9.q.q.q.9.0.p.p.f.0.q.i.i.s.s.d.i.5.s.y.t.0.9.q.i.s.y.5.s.d.u.",
"i.1.%.5.0.p.0.9.9.s.i.0.w.9.r.r.r.0.w.w.r.0.%.=.a.r.0.s.5.%.=.0.1.1.w.d.h.5.i.s.4.1.q.q.i.5.1.5.1.0.=.9.t.i.i.d.g.a.u.0.",
"0.*.%.9.i.q.9.;.w.d.0.t.i.w.r.w.0.0.;.-.8.w.w.0.9.5.5.5.9.#.=.0.#.#.t.t.a.t.0.1.=.1.0.0.q.0.8.1.$.*.o.1.0.0.i.i.y.a.t.1.",
"0.1.;.=.9.9.r.q.i.0.1.t.g.r.;.r.0.r.8.-.;.r.t.0.q.0.4.0.=.;.=.7.1.0.w.q.i.5.5.=.#.1.q.y.5.=.8.=.=.*.=.1.q.0.i.y.a.a.1.5.",
"0.8.*.*.;.r.t.i.<.1.w.t.i.8.8.0.w.w.e.;.*.8.s.0.0.4.0.q.*.=.i.d.0.9.%.5.s.7.0.*.*.=.0.t.=.1.=.1.1.=.0.0.0.q.s.h.s.5.i.t.",
"w.*.o.-.9.i.t.0.1.0.t.0.1.%.9.i.w.w.w.=.*.r.q.r.9.0.r.i.=.1.d.i.0.5.1.t.i.0.1.;.;.9.=.t.1.=.=.w.w.q.t.0.0.y.s.h.i.5.a.i.",
"1.o.&.=.0.1.0.8.9.w.0.q.=.9.w.q.w.=.=.9.r.w.*.9.r.q.q.9.;.0.0.%.r.0.0.i.0.1.=.0.1.9.4.0.0.8.8.0.t.i.7.0.i.t.u.a.i.i.p.t.",
"8.*.-.0.<.9.8.8.9.=.t.d.8.9.9.*.9.=.9.i.r.=.;.9.i.0.0.=.9.s.=.=.8.8.0.i.1.1.8.8.q.w.0.9.0.*.0.0.t.4.t.d.i.i.d.s.i.0.1.1.",
"w.8.w.8.0.0.#.1.9.r.q.s.9.9.9.*.9.5.i.s.9.9.;.9.9.q.t.w.9.y.1.=.&.%.t.t.1.w.0.9.w.t.9.1.9.1.w.1.5.7.d.j.s.t.s.0.1.0.#.&.",
"=.t.1.*.1.1.*.1.9.9.9.9.r.w.8.9.w.i.0.t.=.9.9.=.1.q.y.r.w.0.#.#.%.8.0.t.9.9.9.9.0.t.w.1.9.r.0.5.d.d.j.j.y.q.t.1.#.0.=.o.",
"w.t.1.#.1.9.8.8.;.;.9.;.t.0.t.t.t.9.1.8.9.=.9.9.1.i.i.0.r.=.*.#.#.<.q.t.r.9.;.8.w.t.i.0.y.s.5.i.u.j.s.d.5.y.0.*.o.8.*.o.",
"t.0.r.w.8.8.*.8.;.;.9.9.q.5.5.t.0.1.%.%.9.=.9.r.i.i.1.q.i.=.#.=.o.%.0.i.0.0.w.w.0.i.i.t.s.d.a.a.d.i.0.5.i.t.9.*.&.&.8.&.",
"q.0.1.9.;.9.9.8.9.r.4.4.1.1.<.1.5.t.1.1.9.9.r.i.s.0.*.q.9.$.%.=.$.1.4.t.y.0.i.i.0.y.p.d.s.t.d.r.i.0.1.%.d.9.=.9.8.1.0.9.",
"1.1.9.*.9.w.;.-.;.4.5.1.=.1.4.=.0.i.y.0.1.0.w.9.t.9.$.q.0.#.=.<.q.1.0.q.t.5.q.t.i.p.d.d.s.0.d.r.0.q.4.s.d.i.i.r.1.#.*.w.",
"*.=.r.=.0.=.=.;.;.=.=.#.o.8.i.0.r.0.d.i.1.r.%.o.r.9.1.0.t.5.<.q.i.4.1.9.w.0.0.t.j.h.u.i.q.s.q.r.s.s.s.s.0.0.0.1.2.$.=.9.",
"1.9.1.w.4.1.;.;.;.9.*.o.&.8.i.q.8.r.t.i.s.0.1.%.w.2.0.t.5.7.t.5.0.q.0.9.9.t.0.y.h.h.d.q.a.f.r.s.9.0.d.5.9.0.9.0.1.=.%.#.",
"9.8.0.0.9.1.r.0.8.w.;.;.;.w.s.t.1.w.1.0.w.q.q.q.i.0.y.5.1.5.t.4.w.s.d.w.0.d.d.s.s.h.s.y.s.4.i.y.4.i.s.q.9.0.1.8.9.1.8.8.",
"w.1.9.=.%.9.0.t.t.r.r.e.r.i.i.s.t.0.%.9.1.r.t.0.9.0.5.i.5.0.t.t.0.s.l.d.d.k.d.a.0.p.5.s.i.0.d.t.y.u.4.4.8.w.9.r.9.9.w.w."
};
