/* XPM */
static char *_85f23987be240d6ccca258c1de284fdz4XerTT5OsgI49c8[] = {
/* columns rows colors chars-per-pixel */
"60 60 221 2 ",
"   c #7E0000",
".  c #860000",
"X  c #8B0000",
"o  c #8A0A02",
"O  c #920100",
"+  c #950A02",
"@  c #9A0A01",
"#  c #9A0401",
"$  c #8F100B",
"%  c #93130D",
"&  c #9A1608",
"*  c #961813",
"=  c #A00B00",
"-  c #A61709",
";  c #9B261E",
":  c #9C2C1F",
">  c #992417",
",  c #892319",
"<  c #A52A1A",
"1  c #9F2D22",
"2  c #962623",
"3  c #9A3634",
"4  c #A32E22",
"5  c #A2352B",
"6  c #A73628",
"7  c #A63D34",
"8  c #A63A32",
"9  c #9E4538",
"0  c #AC4A3E",
"q  c #A8453A",
"w  c #B34A35",
"e  c #9C5755",
"r  c #A34445",
"t  c #A24B43",
"y  c #AB4B41",
"u  c #A64E4B",
"i  c #AC4F48",
"p  c #B04F43",
"a  c #AC5244",
"s  c #A4524D",
"d  c #AB554D",
"f  c #AC594B",
"g  c #A65143",
"h  c #B25345",
"j  c #B3544A",
"k  c #B35A4C",
"l  c #BD5342",
"z  c #A55452",
"x  c #AC5D55",
"c  c #A85755",
"v  c #B65D53",
"b  c #B95E54",
"n  c #AF6254",
"m  c #B96154",
"M  c #B46259",
"N  c #B9645B",
"B  c #B56959",
"V  c #9F6C79",
"C  c #A76B6D",
"Z  c #B57366",
"A  c #BB7A6C",
"S  c #BA7367",
"D  c #AC7274",
"F  c #AA7578",
"G  c #B37A75",
"H  c #BC7B75",
"J  c #B57B7C",
"K  c #BA7E7C",
"L  c #B57674",
"P  c #AF686B",
"I  c #C27867",
"U  c #C27B74",
"Y  c #B9837B",
"T  c #C38375",
"R  c #C5867A",
"E  c #C5897D",
"W  c #C88B7C",
"Q  c #AB7E83",
"!  c #B47D82",
"~  c #AF898F",
"^  c #B58789",
"/  c #B78788",
"(  c #AF929B",
")  c #B79092",
"_  c #BAA4AA",
"`  c #B5ACB6",
"'  c #B5ADBA",
"]  c #B7A8B3",
"[  c #C58C83",
"{  c #C98D83",
"}  c #C78D88",
"|  c #CB9286",
" . c #CC958B",
".. c #C7988F",
"X. c #CD9B93",
"o. c #C59290",
"O. c #D09D93",
"+. c #D09C99",
"@. c #D29A8D",
"#. c #C3A09F",
"$. c #D5A396",
"%. c #D7B9A6",
"&. c #CBADAF",
"*. c #DCC7AF",
"=. c #DECBB2",
"-. c #DECBBA",
";. c #DDD1BD",
":. c #E6D6BE",
">. c #ABBBCE",
",. c #A7B7CA",
"<. c #BDBAC5",
"1. c #B9B9C6",
"2. c #ACBDD2",
"3. c #B8BFD2",
"4. c #C6BCC9",
"5. c #C4BAC5",
"6. c #AEC1D4",
"7. c #AEC5DD",
"8. c #B3C2D4",
"9. c #BBCAD7",
"0. c #B4C4DB",
"q. c #B9C6DA",
"w. c #B6C9DB",
"e. c #BCCBDC",
"r. c #B9C5D2",
"t. c #BED0DF",
"y. c #BBC2CA",
"u. c #BCCCE2",
"i. c #B7CBE5",
"p. c #BFD1E3",
"a. c #BCD2E9",
"s. c #BFD8EF",
"d. c #C3C4CC",
"f. c #CAC4CC",
"g. c #CCCECC",
"h. c #D2CEC4",
"j. c #D6C4CC",
"k. c #DCD3C3",
"l. c #DDD9CD",
"z. c #D9D5CC",
"x. c #CDC6D0",
"c. c #C0CBD7",
"v. c #C2CDDD",
"b. c #C8C8D3",
"n. c #D2CDD4",
"m. c #D3CEDA",
"M. c #D7C6D2",
"N. c #C3D2DE",
"B. c #CBD4DE",
"V. c #D6D4D6",
"C. c #E2D5C5",
"Z. c #E5DAC5",
"A. c #E9DCC6",
"S. c #E4DDCB",
"D. c #E9DECC",
"F. c #F0DFCC",
"G. c #E5DFD2",
"H. c #E1C6C3",
"J. c #DFE0D4",
"K. c #E6E1CC",
"L. c #EBE3CC",
"P. c #E9E1C6",
"I. c #E6E1D2",
"U. c #ECE4D4",
"Y. c #EEE9D5",
"T. c #EDE6D9",
"R. c #EEEADB",
"E. c #E4E5D8",
"W. c #F1E5D4",
"Q. c #F1E9D5",
"!. c #F1E7DB",
"~. c #F2ECDC",
"^. c #F3F1DD",
"/. c #C1CEE2",
"(. c #C5CEE7",
"). c #C4D3E3",
"_. c #CAD5E4",
"`. c #C6D8E5",
"'. c #CDDAE6",
"]. c #CCD9E5",
"[. c #C4D4E9",
"{. c #CAD6E9",
"}. c #C5D9EA",
"|. c #CDDAE9",
" X c #CCDBEB",
".X c #D1DAE6",
"XX c #D1DDE6",
"oX c #D2DCE5",
"OX c #D1DEE9",
"+X c #D2DDEB",
"@X c #D4DAE6",
"#X c #CDDDF2",
"$X c #C3DAF0",
"%X c #D0DFF0",
"&X c #CDE2EC",
"*X c #D5E1EC",
"=X c #DBE3ED",
"-X c #D5E3F1",
";X c #DBE5F2",
":X c #DDE9F3",
">X c #EEEDE2",
",X c #E2E9EF",
"<X c #F2EEE2",
"1X c #F5E8E6",
"2X c #EDF2E8",
"3X c #F4F2E5",
"4X c #F8F4E6",
"5X c #F6F5EB",
"6X c #F8F6EC",
"7X c #F7F8ED",
"8X c #F9F9EE",
"9X c #F7F9E7",
"0X c #E2EAF4",
"qX c #E0E7F1",
"wX c #F6F6F1",
"eX c #F9F7F1",
"rX c #F7F9F1",
"tX c #FBFAF3",
"yX c #FEFEFB",
"uX c #FBF7F9",
"iX c #E4F1F9",
/* pixels */
").u.).[.u.[.[.+X0X_.e.).v.e.0.2.[.u.u._.*X*Xu.).{.0.).[.6.{.*X).].].].*Xe.p.q.N.&XXX|._.*X=X*X).OX=X).N.`.8.r.|.w.q.N.).",
"q.e._._._. Xu.v.+Xq.6.q.`.6.>./.u.`.[.e.9.).e.p.'.q.e.u.6./.N.).].].N.].e.8./.*X=XqX-X{.].t.q.w..XXX-X+X`.q.).N.8.e.9.c.",
"_.'._.,X=Xv.2.u.e.u.8.>.).v.e.).].u.2.2.u.N.8.2.`.u.e.e. X).v.'.B.*X=X=X+X].{.|.+X'._. X8.6.t.t.+XoX|.3.v.e./.).e.N.*X+X",
"=X`.*XXX|.|./.u.u./.`.).].|.XX'.).8.u.u.e.w.9.v.|.0.u.). X+X+X:X*X.X*X=X;X).[.).q._.N.e.8.9.6.N._.'.).q.u.9.e.q.q.|.|.`.",
"_._.8.v.0.)._.9.).).+X).|._.@X/.|.)./.p. X`.XX,XOX).N.+Xv.+X_.OX+X_.=X+X:XN.e.0.8.|.8.8.e.v.N.&Xr.e.>.,.q.`._.).).).8.2.",
").).B.e.q.9.}.[.i.a.[.:X&X|.;X`.#X).u.p. Xw.{.9.`.e.|. X[.}.%X%X-X;X`.).=X-X[.*X).*X6.0.]. Xs.p.e.*Xu.u.[.p.8.8.[.].t.u.",
" X}.oXN.w.#X3.` <.' 4.z.j.M.d.f.f.` ' 5.<.' x.1.x.n.n.<.d.<.m.m.x.m.d.f.n.V.f.4.M.M.` ' &.) / Y L G L / _ 4.u.7.6.[./.#X",
"'.v.i.}.m.L f B I m h h Y A A S S n n S f t 5 6 4 4 < 4 4 4 4 < : 1 < 1 1 ; g d n x x d s m w 6 < & @ @ & 2 G d.).{.[.e.",
"_.(.+X5.t w l 1 > & % * k j j j f a a k 7 8 X X O X X X X O O X X X O X X . y p t g a a a f 9 q * % o o # # + t m.].u.e.",
".Xe.d.8 - $ , M U S A A M Z Z S L H H H Y R E W [ W E E R I T { } { { { | { [ [ [ [ [ [ } [ } } | | O.%.[ 9 @ O z _.0. X",
"=X].z # o K >XyXyXyXyX7X7XyXtXyXyXyXyXyXyXyXyXyXyXyXyXyX7XL.<XyXyXyXyXyXyXyXyXyXyXyXyXyXyXyXyXyXyXuXtXyXyXT.U + X V s.w.",
"N._ # o [ yX1X5X4X5X6X<XR.>X5XeX6XtX3X5X5XeX5X7X5X5XeX4X!.:.S.3XwX3XeX5XeX3X5X3X4X5XeX5XeX8X<X5X5XwX4X~.>X<XyXH # * 4.{.",
"`.r X x yX>X3X<X<X5XeXeX<X8X5X5X3XtX5XtXeXyXeX8XeX8XyX8X<X*.U.rXyX7XyXrXyXyXyXyXyXyX8X5X5X8X4XyXrX5X>X5XwXwX3XeXq O C s.",
"5.* + H.yX2XwXeX5X5X<X4XR.4X>XyXeXyXeXyXeXyXtXtXtX8XtX5X!.%.D.5XtX3XuX9XrX5XrX7XwXeXeXyXyX5X^.R.3X3X5XyXwXeX!.yX+.O 3 8.",
"/ X q uX>X3X3X5XwXyX6X8XR.7X5XyX5X5X3X5X3X5X4X5XtX3XeX7XT.=.G.eXtX3XtX3X7X3X3X3X3X5X3X5XwXtX5X3XuXwXyX5X3X5XuXtX1X> % ] ",
"z . G yX2XtXwX<X<XwXeX5X3XyX3X3X<X6X5XyXeXrXuX5XyX6XyX6XT.*.U.rXyXeXyX7XyXuXyXyXtXyX5XuX4X5X8X5XtX7X5X3XuXrXyX3XtX0 O ( ",
"t . } yX4XeXrXrX6X5X4X<X7X8X~.yX5XuXrXeXtX6XuX5XuX4XtX3XU.=.L.5X7X2X5X3XeX5X5X5XwXeX9XtX7XuX5X3X5X3XeXtXyX5X5X3XyXb . ^ ",
"5 o X.yX5X>X3X3XyXuXtX3X5XeX8X8X4X3X3X3X5X<X4X>XwX3XeX7XW.=.U.eXyX3XeX5XeX5XrX5XeX6X3XeX4XuXtX7XtXyXyX8X5X5XuX8XyXM X J ",
"1 X X.yXuX5X8X3X5X3X9X3X8XyX8X3X3XeXyXwXyX5XyX3XyX7XyX5XU.;.U.eXuX7XyX5XyXtXyXyXuXyXeXyX5X5X8X6X5XtX5X8X8XtXeX3XyXM X F ",
"2 X ..tX5X5XuXuXrXuX3X7XuX5X5X5XyXtXuX5XyX3XuX3XeX5X5X3XU.;.U.5XwX3XrX3X7X3X3X5X3XeX4XtX8XyX8X7X5X8X8XtXyXeX5X4XyXN . F ",
"; X O.yX3X5X<XwX7XyX4X5XtX6XyX7X5X3X5X3XeX3XtX5XtX6XyXtXT.;.Y.yXyX5XyX6XyX7X8X7XeXyX5XeX5XtXeXeXyXtXyX8X8X5X8X6XyXN X F ",
"; X $.yXwXeX4X3X3X5X5X5X8XtX6X3X5X5XyX5XyXeXyXeXyXeX8X7XU.k.L.5XtX5XyX8XtX8XyXtXtXtX6XyX8XtX5X5X8X7X5X5X8X8X8X<XyXN X J ",
"; X O.tX<X4XeXeX8XuXyX3XeX6X5X8XyX5XyX4XuX5XtX4X5X6X7X5XY.;.Y.eXeX5XrX3X7X3X9X5X5X8X3XeX8XyXeX6X8X7XtXeXtX5X5X5XyXN X C ",
"; X O.yX3X3X3X5XeX8XtX5X5X3XyX8X7X3XeX5XeX6XyX6XtXeXyXyXR.Z.Y.uXyXtXyXeXyXtXtXtXeXyX5XyX4XeX8XtXtXeXyX8X3X4XuX5XyXN . C ",
"; X  .yXwXeX5XrX6X4XuX3XtXrX8X3XeX8XyX8XyX8XyX6XtXeX5X6XT.Z.Y.5X7X5XyX6XtXeXtXeX8XtX8XyXtXtX5X8X8X5X7X7X8XeXeXR.yXN . J ",
"; X | yX<X3X5X8XyX7XyX3XtX3XtX8XyX5XyX3XtX3X8X5X5X5X8XtX~.Z.~.tXyX8X7X9X8X4X4X7X4X7X5XuX5XyXtX8X8XeXtXeXuX4X5XeXyXN X J ",
"4 X @.yX3X3X5X3XrX5XeX9XeX7XyX7XeX5XtX4XyX5XyXeXyXtXtXtX~.S.Y.rXeXeXyXyXyXyXtXyXuXyX7XyX7XuX7XeX8XtX8X7X3X4XtX8XtXN X ! ",
"1 X | yX<X7XuX8XtX4XyX3XtXtXtX5XyX7XyXtXyXeXtX8X8X8X5XeX~.P.Y.tX8X5X8X8XeX7X9X8X8XtX7XyX8XyX6X8X4X7X3X7X5XyX6X^.tXN X J ",
"5 .  .tXR.>X5X5XyX8XyX7XtX7XtXeXyXwXuX7XtX7X8X8X8X8XtXyXR.K.T.yXyX8XtX7XeX6X7X8X7XtX5XuX5XtXeXyX3XyXeXyXuXwX3X5XyXN X J ",
"5 X +.yX5XwX8X5X7X5XuX3XtX8XyXtX8X5XtXtXtXtXtXyXeXyX8XtXQ.P.Y.uXeX8XyX8XtXyXyXyXeXyX8XyX6XyX8X8X4XyXeX6X3X3XtXeXtXm . J ",
"8 X X.yX<XwX8XtXtXeXyX3XyX8XeXeXtX8XyXtX8XyX8XyX9X6X7XtX~.K.R.tX8X8X8X5X8XeX7XeX7X8X7XtX5XyXtX6X<X5X4X6X8XeX8X3XtXN X F ",
"7 X  .rX>X3X4X6X7X8XyX3XeX5X8XtXyX8X5X8X5XuX6XeX5XyX8XyX~.K.R.tX8XtXtXtXtXtX8XyXrXyX7XtX5XtX8XeXtXtXyXuXyX6X3X4XyXb X D ",
"7 X +.yX3XtX5XeX3XrX5X9X6XtXtXyXeX8XtXyX8XyXtXyX8XyX5XeX~.P.R.yX5X8X8XyXeXtXtXyXeXyXeXyX8XyX5X5X6X8X8X4X8X<X6X5XtXb X D ",
"q . X.tXR.5X5XyXuXyXeX8X4XuX5X7XeXyXtXyXeXtX7X8X9XeX7XyX~.K.!.yXtXyX8XeX7XeX7X8X5X8X5XtX9XyXtX5X8X7X8XtXtX8X6X<XtXm X J ",
"y X | tX~.4X^.5X7XtX7XeX3X8XrXyXeXeX7XtX7XtX8XyXeXyXeXyXR.K.Y.yX7XyXtXyXrXyXeXyX8XyX7XyX8XtX8X7XeXyXyXrXtX6X<X5XyXv X D ",
"y . | yX3XyX6XyX3X8X9XrX5XtXeXtX5XeX8XyXeXyXtXyXtXtX5X8X~.P.~.yX7XtXeXtX7XuX3X5X3XuX5X8X8XtX8X5X5X8X7X4XeX6X4X5XrXb X ! ",
"r X E tXY.3X5XtXrXyXwXyX5XtX7XrX7XyX8XtX5XeX7X8X7XtXeXyX^.K.T.tX8XyX8XyX7XyX4XyX4XyX7XeX6X8XtX8XeXyXuXtXyXtX5X<XtXm X ! ",
"r X W tX3X7X>X5X3X7X4XtX7X5XrXyX7XuX4XrX7XyXrXyXtXtX7X7X~.K.Y.yX7X8X7XtX4X8X2XeX7XyXeXyX8XtX8X7X5XtXtXtX6X4X4X8XtXv O D ",
"r X W yX3XyX5XyX3XuX4XwX3XtXeXuX7XtXeXyXtXyXuXtX8XrX7XyX3XA.T.yX8XtX5XyX3XuX5XyX7XuX6XuX5XeXtX7X5X7X7X5X5X6X5X6X8Xk X J ",
"u X T 7X>X5X>XeXrXyX8XyX7XeX5XtXrXtXtXrX4X7X8X8XtXtXrXtX4XD.Y.tX8XyX8XyXrXyX7X8X8XtXtXyXtXtXtX9X7XyXuXyXeXyX4X<X8Xn X / ",
"u X W 9X<XrX2X4X2X5X4XuX5X5X8XyXwX7XwXtXrXtXyX8XtX7X7X8X3XK.Y.yX5XtX7XtX5XtX5XeX7X7X8X7X7X8XtX3X1XtX8XeX8X6X<X5XyXk X / ",
"u X W 8X5XtXwXuX5XyX6XtX^.yX8XeXwXtXtXtXtXrXeXeX7X7XtXtX2XZ.L.yXeXtX8XyXeXtXyXtXyXtXtXuXuX7X8X3X9X8X8X8X6X8X9X5X7Xk O ! ",
"s X T 4X>X3X5XwX9X8XeXyX^.rX5XtXtXrX7X7XeXeXtXeXtX7X8XuX^.A.U.eX8X8X7XuXrX5X7X7X8X7XtXrXyXuXyX^.5X8X8XyXtXyX4X<XtXj X F ",
"d . R 8X6X2XwX3X7X3XtX5X3X7XtXtX5X5XrX8XyX8XtX8XrX7XtXuX4X=.W.tXtX8XuXeXyXyXyXtXyXuX8X7X8X3XeX3X7XtX5X8X6X4X<X6XyXh O ! ",
"d . R ^.5X5XyXrXyXrXyX5X3X5X5X4X7X8X5X4X4X9X5X6XeXeXtX7X3XA.L.5XtX7X8X3X8XeXtX8XtXtXyXuXyX7XtX5X3X8X5X5XeX7X5X4X8Xk O ^ ",
"u . A K.1X>X3X3XwX5XeX4X2X~.7X4X3X4X5XyX8XyXtXtXtXtXyXtX4XZ.Y.yXyX8XtXrXyXrXyX7XtX5X7X8X8X8XtXyX5X5X3X4X8X8X4XR.yXa X J ",
"s o T 3XtX4X6X3X3X4X4X<X^.U.U.~.I.^.Y.3X3X5X3X6XyX6XrX5X<XS.U.8XtX8XtXuXyX8X7X5X8X4X4X3X3X^.^.^.3X^.^.4X3X3X3X9XtXi O ^ ",
"s X Y 3X~.!.G.L.l.D.U.-.-.F.C.U.l.U.R.Y.Q.~.^.1X4X9XI.~.Y.D.D.<XU.^.Y.K.K.I.Z.L.P.U.U.T.U.T.K.U.Z.U.Q.;.C.Y.~.4X9Xh O o.",
"s X A Y.Z.P.L.P.A.A.A.:.C.A.D.L.W.!.!.~.1X<X4X~.~.~.T.Y.U.D.U.Q.Y.Y.!.!.!.!.W.U.U.W.U.Q.Q.Q.W.Q.Y.~.U.P.L.P.W.W.^.h # ^ ",
"z X I L.:.:.C.k.h.h.k.k.k.;.k.k.z.S.G.I.I.K.D.G.D.S.K.l.S.S.S.S.Z.Z.S.S.l.K.S.S.S.Z.l.z.z.z.z.z.z.g.E.I.E.I.L.U.Y.0 # ~ ",
"z X S I.h.g.1.0.{.{.{.+Xv.B.v.v.v._.qX@Xv._.e.v._.B.].B.B.oXy.b.d.d.V.B.c..XB.v..X.Xv.e.)./.).v.|.+X0X;X_..X@Xl.~.0 O ~ ",
"s X I V.0.).i.p.[././.u.#X{./.).+X+Xv. X8.`.{.0.e.|.+X[.{.).2.2.i.)._. X[./.)./.[.|.`.u.`.#XN.XX=X,X=X=X{.#X`.r.C.7 O Q ",
"c X y <.[.v.e.[.u.q. Xe.|.N.@X.X].v.e.e.).9.).N.(.=XXX).*X8.q.3.8.c.XX]. Xe.p.u.).&X+Xv.,X.X_.*X=X=X=X].).XXi.0.) < + Q ",
"s X a @Xa.).w.u.w.p.u.[.]._.v.+Xv._.q.0.{.e./.+X-X`.e. X X0.0.e.>.e.'.+X{.(. X{.#X+XXXXX*X=X*X+X:X).).v.=XN.u.7.&.6 O ^ ",
"c X x #Xi.u.[.p.[. XN.).q.t.9.9.B.+Xv.v.).v.#X+XOX).8.*Xe.0.u.e.q.v.).'.+X_.*X]._.@X*X:X'.'.*X X|._.q.].*X/.`.[._.5 + ~ ",
"z # C i._.[.u.0.p.e.'.q.q.N._.q.`.+X+X_.e.#X[.e.*Xp.q.'.).8.9.).+Xv.`.]._.N.[.+X=X+X=X;X_._.*X). XN._.:X*X+X%X).v.3 X ~ ",
"e   ! }.].e.w.i.i.).0.2.2./.+X). X{.:X|.).{.2.2.|.e.).]..X_.N.'. X/.e.`.`._./.XX0X,XoX_.'.:X].*X*X+X:XN.).N.).).N.V 2 ] ",
"<._ r.{.9.q.).u.i.(.0.0.i.u.-X|.u. X).+X-X_.).t.].).].].B.B..Xc.].+X{.u.).+X_.=X,X,X;X`.:X+X X Xw.XX=Xe.{.]././.N.u.r./.",
"}.).}.{.[.N.*X{.).{./.[.u._.*X'.v.`.q.N.N.|.|.|.+X_.]._.v./._.N.).-X*X|.+XqX;X*X+X=X_.-X`.).+X|._.0X].}.u.).u.[.u.p.p.(.",
"[.v./.q.2.`.e.+X+X`.{.#X%X-X{.+X-X).t. X).{. X).).`.e.*X)._.*X+X+X-XiX;X;X*X*X].).|._.=X{.*X+X'.*X@X8.t.p.|.[.].u.[. Xa."
};
