/* XPM */
static char *result[] = {
/* columns rows colors chars-per-pixel */
"64 64 34 1 ",
"  c #85A2CE",
". c #8EA6D6",
"X c #8DAAD6",
"o c #8EAAD9",
"O c #93ACD6",
"+ c #94ADDD",
"@ c #95B1DE",
"# c #9BB4DD",
"$ c #9AB8DE",
"% c #A4BEDF",
"& c #96B2E1",
"* c #9BB5E3",
"= c #9EB9E4",
"- c #9EBAE9",
"; c #A3BCE5",
": c #A4BDEA",
"> c #A6C1DF",
", c #A6C1E5",
"< c #A8C2E5",
"1 c #A6C1EA",
"2 c #AAC3EC",
"3 c #ADC8ED",
"4 c #B1CBEF",
"5 c #A6C3F0",
"6 c #ADC6F1",
"7 c #AEC9F1",
"8 c #B2CBF4",
"9 c #B5CEF9",
"0 c #B6D0F5",
"q c #B8D2F6",
"w c #B7D0F8",
"e c #BAD4FA",
"r c #BFD9FD",
"t c #C1DBFE",
/* pixels */
":11155=--1$55--16:%%2622ett948wete99998642<;;289e999996696666:*:",
":---11=$$$5$$5152::288828et849eee998888886222669988699966:666:::",
"1--,,-1$5-1>-11<;;%2682248884ww9888848688862222226666:66:::66::6",
"51,--,5-55555511;;%2242222229998888866666622<;;;:266:;;::::666::",
"1-=-11555555111-2222244422<68842889862222:::;;;#::66:*:::::66:#:",
"-$&$$$----$5$51142:%::662<<48622688822<;;<22:<;%#::::6:66::66;#;",
"$$&&$=$$$$-$$5->:::%:<:42;<2622422842:;<;;;22222#;;:66666::6:::;",
"=$$=---=>-$$5>--;%264464<;;66228;266:;;2#;;;2266*##::6::6:::::#:",
"-$$$$$$55$-$-$5$%%:84:44:::%:%4::2;;;<22##;:2<:::::::66::66::::;",
"$$$$$-$$5$-$>5--::464::2t:44:4::<:2;:22:;;;<;;;;:::6666:##:#::::",
"$$$555$$5$555->54::::%::%:::4%::<;;222;2;;;;;2226::6666::::##:::",
"-555555$$555355-4:%:8t88:t:t4:%:;;#;#;;:;;;22499966666::666:::::",
"-5-5555>$5553555::44t:tttt:t82:42;###;<2;:<2689w966::6:66996666:",
"5---5$55$$5>5353::44:t::t:::4:%:2;;##2226626266666::::6669999966",
"5$5555>55555555>44t%4::tt%:t:;%;:;;;2222266222226:66669669966666",
"55333353555$5$5$::%t:::t::%t8;%%;;;<;;#;<;22222<666699666966::6:",
"33507355>55335$$333303334%2%2%24;%#;2228866%;22269996;2266822222",
"3337535$5333355$>>3300004<t444<28862222626222%226666886668882222",
"3353535535555$550qqq04334tttt4<42682;;;26666622<2266686688888222",
"7753355>5>$$>553qqrq0333ttttt<<%;2622;26888886666222666226862222",
"5535355$5-55555533qqqqrr84:44:%%22882269862268668622262;;2668228",
"$>5535$$$-$55555>>33qqrrt444tt4%22222;2882%2262262222666;2222222",
"$5555$$$$$$$$$$$3333qq03t4:tt::t822#;;%262226622222:::6:::222:22",
"5$$5-$$$$$$$$55535>30q4344ttt%tt862;%2666628996;2;:;##;::222;;;%",
"$5$-&&--&$&&$55535<38224342:4:::9822222%66::2662:6::::::66::::6:",
"5555-&&$-&&$--555>5083:2;:;;%:%:22;;2622:62:;2666666:::6:::*:::*",
"55$5-$&&$&-$-5553553::::;;;:::::2;226822:66:#;666666::::##:::::*",
"5-$$$$&o&&$--55545>$%;12%;;:::442222222;662:#;22:6::***:#:***:*:",
"$$&&&$&oo&&-555573,#@$;;%%:::2:49622;22;6::#*:6:::::****::::**::",
"XXX&&&&&&&&----55511%;;#;;:::48:62;;;;22::##:666:::***:*6::::**:",
"XX&&&&&&&&&-&-&-$15<:::;:::8898:;;;#;;;2#:*##::::*+*:6::6::::**:",
"&&---&&&5--&&&&&$51-:662;::6::::;;;#####::::#.**::**:6:::::::*.*",
"*****:::::::*++*;#;;;;226;22;;2;#266:.#*6:#::***6:*+*:666:::****",
":***+*+***:::*:*;;;;#;##;#;;;#;###:6::*::##::::6::::::::6:::*+*.",
":***++.+.*****::;#;;;;#;##;2#;#O.#::66:*..#:6:66::::::::::******",
":****...++*+****###;2222;;26%;;###:666:*##:::::666::#::::::****:",
".*+**+**:+******##;:2226;;892;2;:##:6:::#:2:;#;:::::::66:::#::**",
"+++++***:*:*:***;#;#%;;;2;882;2;;;;::6::#:::##;;.:666::6::::***:",
"*.*.*****:+**:::;;###;;;22882;2;:::6:::##;:###;%*:6666:6::::##:#",
"**+*.*.+...+**::;;;##;662288;;626666::##;;;###;#*::6::66:::#::##",
"..+...***+*:*:*+;#;;;;#:;28622686622;##;2;#;%;;###;22222:22;22;#",
"+++.*+++.*+*+***;###;#;2;66222226622;##;22;;2%;;;%2%22422:2;;22;",
"*.+++*++..+.+*:::;#####22222%;;222::%##%2222222<2%<22222:6:;;2;#",
"+*+****.*.*.+::::#######2222;;2222222%;<22;222<%;;%22222:::2;22;",
"+.**..+**++*###:;#######22;;;%222222<%<2%%%2222%2;2;22%2222%22%;",
".***+..+..*++##.#O#;;;;;2;;;;22622448<%8%22%222%%%;2%22%222<%22%",
"****..**.*++**######%#;;;;;#;;2626684<<22%22<<22%2%2<%<%%22<%2%%",
"::****++*****:;;2######;2;###;2222622%%222;%2222%%2222%<222%222;",
"..***+*+********:;;####;;#;#;;26666662;;:;;%%2222<>>%%%%%<2222%2",
"******+*+++****:2;###;;;;;;##;;;2;;;%22222222222<>><>>%%%<2%222;",
"**+**+********:::###;:;#%####;;;%;;##:2222622222>>>>%%2%%%2222;2",
".*..+++*****:::*O#%;22###O###;2622;;;:22;;;22;;;>4>><%%%%222;22;",
"*..+******+-::*..#:;2;;####;226666222;;2;;;2;2;;4>%2<%%<%2222222",
"*+++*:::*++*:*..O;;;#;;;#;;22226;;222:;;2;2;2226><<<<2<<2%222222",
"**+*****&&+***+.;;;O#;2#;2;22222;;;222:%22;;;2222<<<<<<<22222228",
"+..+**+.+***++**##%#;2;###;22222;22222222;;;;;:2<<<<2<<2<<2%2%22",
"&&&&o&&&&&+++&&&#;:22:;;2##662;262;2;;2;22;;;;:;;2262:;;%2;2;%%2",
"&&&&+&&&++&&&&+.###;;2222;;%;;26622222;22;222222;2262:2:;222%2;2",
"&&&&o&o&++&&&&+.OO##;;26;2;##;262222;22222222226::2:;:2222%;2%22",
"-&&-&o&&*&&+&&&&O###;;2;#26;#22;222;2;22;2222;::;::;;;::2222;%22",
"-&&--&&&-&&&----###;2;;##26;;;2%2;22;%22;;::::#:#::*:#::2222%222",
"&&&&--&-+&&&---&##222;##;22##;62;22;;#;;OO#;#::*##:*###:#22%;222",
"-oo--&&-++&&--&+##;;2;;#2;##;;26;22;###;O##;:;****:*;####22%%42%",
"&oo&&&+&-&&&&&-&O##;;;2%;##22;;;;22;###;###::#*+**::#####28<%22%"
};
