/* XPM */
static char *result[] = {
/* columns rows colors chars-per-pixel */
"64 64 39 1 ",
"  c #A4B3C4",
". c #A9B6C6",
"X c #A8B8C7",
"o c #A7B6C9",
"O c #ADBCCC",
"+ c #B1BDCE",
"@ c #AEBDD1",
"# c #B1BED2",
"$ c #B4C1CF",
"% c #AFC0D4",
"& c #B5C3D4",
"* c #B9C6D6",
"= c #BBC9D6",
"- c #B6C6D9",
"; c #B9C6DA",
": c #BCCBDC",
"> c #BECDE1",
", c #BFD0E1",
"< c #C1CEDE",
"1 c #C3D1DE",
"2 c #C1CEE1",
"3 c #C4D2E3",
"4 c #C9D6E5",
"5 c #C7D8E2",
"6 c #CBD9E6",
"7 c #C6D5E8",
"8 c #C9D6E9",
"9 c #C7D8EC",
"0 c #CCDAEA",
"q c #D1DEED",
"w c #CEDCF0",
"e c #D1DEF1",
"r c #D3E1EE",
"t c #D5E2F2",
"y c #D9E6F5",
"u c #DBE9F6",
"i c #DAE7F8",
"p c #DCEAF9",
"a c #E0ECFB",
/* pixels */
"153<<<<<<;8228e8:,&%=,,r5,,%9&,r,565==r648q8qq44+<<#,9$$,=,,&&,&",
"6651342<<;w8229;%:&&,5:,,,6,:%,,555==1yu442;4e61<4=+,,,,=&50&,,&",
"6111233482ee8#>;%>,,,:&&,%=::59:56rr76r0q4;#2e1*:3:4t95&:,9,%:5:",
"===<*+#<e3ee8;22,,r9,:&:&:,,:,trrrur5,372##;84*<:::89,e0955,&,,=",
"<<<3<&++8;22727790,5955,,rt,5,wrrqqt0;*2##2442##7=95%&,uw555,,,%",
"<:3qtq2#222;2>2;9w000,>,,5,=t,50q44tt2:8#282;;#;5&,5:>=,e,5995,&",
"$=<4qq4<887;2;;;5tw75%%5&&,55,,tqq23888y@;2;;422:%O:505790,=:,55",
"3qqq440082822#277r5>5*%50&%0,9,92422e082422<22##&:*77:7,,0,%%,5q",
"<qq24<2222484;;2,,,5,:,07&@003<<03033q<&28<28w@@=,95,,%$,9rw,:::",
"+2<q<4<qe2;88;#;5,,,,&=,*39y<#<242041q1=<42<872w,=,-,,$%&q,,p5%%",
"$22q44<4w2;;<222q,:,,$&,*540#<4242021q1<<2;:e782&,,=,=%&,,&,0,:&",
"2422q2;;882;;8881=,,,=,,,,&:288;2<04611<<2#<e28#%5r:,5,,==,t5,,&",
"24#8<8##<48qq2<4=%,,0,q,-:&52842<<46q361<6$34287:,5,55,5,rw55=-,",
"2*#;84*#;8qq82<4%%5,w0r=%,,r8<;2;<q4y1r6qq<q00w3,&:,&&-9rw,&&&55",
"2#;.e<2$;q82<444,-,,5,0%&97w2;*;<1qqy1a6q61qq82<:%,,%%,5-%,,%:w%",
";.##q4<*2<;28;;2t,5:,:9&:r,5<;#24266r1y1q161<*30=%,&%5r=%,:&&,5,",
";#>22>#24<$+<482282;;88;4*4<2*286r<6y1a<8e22w#28=&,::q,&&,, &r,:",
";;>@;84;<$*<<4e2;2228888$*q28884661666r68;22;;22,:,5905&,&&&,q=&",
";;;@*tq<q<2q<482##;2228e44e8e2;;<66r4q6q8#82;22;,,:90,5&,%,7,:%=",
"@@;#*144qqq44<#;8222228iq4e882;2*1qr66462#88;;2;5959>*,,,=55:::=",
"2#;<2<<q8q<<8;#;2442<28qqqy222<**44qq<q1;<2e2#;8,9t9-:>75,,3,9,&",
"w2;24qqyy<4q2282#<22244;yyy22;#+<4<<q<r4#e2q8#;e>:03:,:,3:,095,,",
"7##;4q4qa22e8282;2qqqq44y28282;;<<<*<44q<q4882;q=*,5:*:1:3606::5",
"9##2q4<qe2;;8;#;;88qqqqqyqy2qe8<<***$q4q8q84;8;2:>10:X:670956,:,",
"7>>98<<34qe<*2*#;;28q4<y64qqq848*<2<<q4qq4q4<$88$q<+4;*q35q40<=*",
">>>>22<<yq4##2282228q64q66qqqq244<;**q44q4q4<2e2;44444<4<<4qt3=#",
">,7>4422q8412<<4<;286664qqyqqq4<<84;$444y6q444e4424yqq4<3<44i0<<",
"-377662284q0<**q;<88<1q44qyqqy44<8q2<666y4<488q842<qqq4<333<0643",
">,,5532842ee2##44<4<<4qq<1q66y44444;1qq4y<<<444844*$464<;1<$1404",
"3,:>,,2e228882**4<;;<qq<<16666412;2;1qqqqt4<<44*44<+44q4*16<0q0<",
",,,=::28e42<<42<44<<44<*<1qq41<42<4<418t4yq4*4<*44<<44qq46e4e44<",
"&,,&-:2<8882284<4q8844<<*1r6<<<4e;41tqqq;qqq24<44<4e*;<<yqq16<*<",
">;>>-#27w22<;482411aeq22#<1e1<11486yt4<q<4q<4<2628q4<<<<5u1<11<+",
"2797>>272;#42;22<<166e4;41<41<160qtt6<**+<q18;<284qq<<11r6<161+<",
">7997397>#28w2;46<1eq4<<4014qqq6146444<*+<e4q;**q<<41166u5<1q<+<",
">->9w99>28222442416e4<<<<q66rry6t4q4844**<444<<<8**<5566rr<<4<<#",
">-:,22>>2w2#2422+1q<*<8<2q4<<166y6qqy86;<;<<<332<<*<<<1r663<4<3;",
">-,,-#>972;2242><161240<24<<++466<66y6q<4<<4<43234<*116q<<<2q;32",
">>,7>#2w7>278222r1qee<222*#<+<q661q<e<<*<348<8q481<*1yr<<+<<q*34",
",>,972222#28278461ye0;2<e##2+<q46qq*q<4<***8;qyi3<44<qu+1*<*2#83",
"--97,,-,8#82#eee46q6423682##<#0<6rq<6208<#*<34ei6+414a<84<+<#<*3",
"-,99,;>9w@222ew440ee4408#<#<#<0466114<66<#*1qq686<<1eq446<++<3**",
">w,w9-77w;282w8822qq278<#282<qee1<160<40<<<18<*<6<.6y4843*#+<*;<",
",,,w07,>77w2888w04qew8w2##82<0266<5yq1408qq6q2*461*qy<32242;<*3i",
",;>799;;72>2q84q028eeeew8>wweq:011quq606ee<3q62qyrqre<;<44<2<<*6",
">;9779>>7;#we22e433282222;770<O:<<6r66<144<<2;*36qur4<*<42<q<4<4",
",,7>>33722<8824e8e8482>;87874<&5$<1614*<643<*+*416r6<<;884ey41qq",
",,-->>7:22;<2eq<;yw<88>;90823<:9156611+1q<<**;3q6rq62;;8w>64<*66",
",--,7--77,%:w7:>07-300:-9,770&3a4;<q8<+<<4<*44446ar560rr55,,,999",
">>>>;:,9>@->7w,932:755&:5,550:5342442<*<4<<<q644r655u55,:,,-,,9,",
">,%o-09>7o:>>w>>q<243:,7:>995,5-44q<<<<44<<44466rrr10,&&-5,,>,9>",
"w7@ -w9-7-37>>:>t22;::wr=>06:,9:*<8<<44<4*<444qy6rr1&,=,,5-,,,,-",
"97--:2>>-7,,>@>wq23;<2e2,:59,56:#<0<4<4q<<<44qyqr1==$5,5>>->,>7>",
"7>->77>>-9-;7-3321438qq*,::090:O<*034<2q<<44qya461$,%==93-;7w979",
"3>-,w3-;09-:,;>-<44q88<<,,,000:O+:04;<<q4q4qyyq46=$:$ $93:9999>9",
"->797-->97w9;->>4828<;$4=60017=-O<qq<q4q4yqqq61q6=$$=%55,:t7>3@>",
">9e>>7:>9:>>>>>9<<*<<q<4<e4<<q.<*$665666y66qq4$q59,>,5>9:,7:,7>>",
"777->0,>2>3,>>-34$<<444*42q<<4*<61661qqqy664466y75:&3,::>33->w3>",
",7>>777>>-7>>:-><.4q<8y41+4<*44<05<111yr66y6qqq453;->,>-;>;%,w,>",
":9,ww>77>:3>>>:,*.<e<8e84+44446115<166aaq6y41qq13,>>;-;;--;>9w>-",
">97ww>>7,>>>>7>7<<44<4<4q1q16<145q6qrqarq6661q622>>>>->>>->9w9:,",
"37>77--:9,>>>9894qq4q<*24q4<444q6urryqq1646yqq<<83>7377>7>70w7>0",
"7,3>>-@-7>,>>009q8y4y4<q4qqq6ryuquuqqq16yq6664;3w7773907>30997>7",
"77w7>>@>2>,;;075844y6q<4*qqy6qq6qra66rqa61q6y1<27>>>->97-7w09w>>"
};
