/* XPM */
static char *_c77b1e540f14d1b9d011cbab7624f78Q5CqHgUmsdjvfFCf[] = {
/* columns rows colors chars-per-pixel */
"60 60 236 2 ",
"   c #020204",
".  c #05050B",
"X  c #0B0B0D",
"o  c #080609",
"O  c #120305",
"+  c #180505",
"@  c #0B0C13",
"#  c #0A0914",
"$  c #130D14",
"%  c #0B1216",
"&  c #0E131B",
"*  c #14131A",
"=  c #1B1A1D",
"-  c #161519",
";  c #10100F",
":  c #2C0203",
">  c #230406",
",  c #360405",
"<  c #26181C",
"1  c #331316",
"2  c #1B1B23",
"3  c #1A1321",
"4  c #251D24",
"5  c #1A2128",
"6  c #34282D",
"7  c #292933",
"8  c #2D323E",
"9  c #35353A",
"0  c #29272A",
"q  c #460407",
"w  c #520202",
"e  c #590508",
"r  c #571719",
"t  c #481419",
"y  c #690606",
"u  c #780405",
"i  c #461E20",
"p  c #7F1E24",
"a  c #482828",
"s  c #512E30",
"d  c #69282B",
"f  c #693131",
"g  c #65413F",
"h  c #3C3D46",
"j  c #553B42",
"k  c #453F42",
"l  c #3F424B",
"z  c #48454A",
"x  c #5A4446",
"c  c #4A4B53",
"v  c #584D54",
"b  c #575456",
"n  c #4C5155",
"m  c #644846",
"M  c #794647",
"N  c #695B5B",
"B  c #565A64",
"V  c #5F656C",
"C  c #796769",
"Z  c #6C6C77",
"A  c #73747A",
"S  c #6A6B73",
"D  c #8B0303",
"F  c #860507",
"G  c #9C0201",
"H  c #940508",
"J  c #98191A",
"K  c #8A1015",
"L  c #A30102",
"P  c #AB0202",
"I  c #A9060A",
"U  c #B40303",
"Y  c #BC0303",
"T  c #B4060A",
"R  c #BC0A0A",
"E  c #AE0F16",
"W  c #8B1F23",
"Q  c #B11C21",
"!  c #992727",
"~  c #943334",
"^  c #A92927",
"/  c #BB2C2B",
"(  c #B8393A",
")  c #AA3938",
"_  c #C30304",
"`  c #CC0203",
"'  c #CB040B",
"]  c #C3060A",
"[  c #D20103",
"{  c #D4030B",
"}  c #D9050B",
"|  c #D80407",
" . c #D90717",
".. c #C7131A",
"X. c #C90D14",
"o. c #E80816",
"O. c #D31724",
"+. c #EB0E20",
"@. c #CB2A35",
"#. c #C63436",
"$. c #D1262F",
"%. c #813642",
"&. c #B93B41",
"*. c #C13941",
"=. c #D63B42",
"-. c #9A494B",
";. c #8B5556",
":. c #A94747",
">. c #AD5A5C",
",. c #BC5555",
"<. c #B44D4E",
"1. c #A0685A",
"2. c #815F62",
"3. c #BC5F6B",
"4. c #A75F65",
"5. c #886E73",
"6. c #8F7171",
"7. c #AE6F6F",
"8. c #CB4E55",
"9. c #C85B68",
"0. c #C6737A",
"q. c #D06C74",
"w. c #EB4F58",
"e. c #767985",
"r. c #787F90",
"t. c #8E7882",
"y. c #A97D88",
"u. c #CC7785",
"i. c #7C838E",
"p. c #7E8897",
"a. c #88858C",
"s. c #9E898E",
"d. c #898A92",
"f. c #828793",
"g. c #889196",
"h. c #97979F",
"j. c #938A95",
"k. c #B28B94",
"l. c #969AA6",
"z. c #8790A0",
"x. c #BE9CA6",
"c. c #9FA7B2",
"v. c #A3A3AE",
"b. c #ACA7AC",
"n. c #A6ACB9",
"m. c #B6AEB7",
"M. c #ACB2BB",
"N. c #B7ABB0",
"B. c #D48A89",
"V. c #C4999B",
"C. c #D7989A",
"Z. c #CB8C8E",
"A. c #E88B98",
"S. c #C89FA5",
"D. c #D6A5AA",
"F. c #D6A7B5",
"G. c #D5B6BB",
"H. c #CBAEB4",
"J. c #E4B6B7",
"K. c #E8A9AC",
"L. c #C9A096",
"P. c #ADB6C2",
"I. c #ACBCCE",
"U. c #AAB7C9",
"Y. c #B5BAC8",
"T. c #ADBDD3",
"R. c #A9B9D3",
"E. c #B1BED2",
"W. c #B0BFD9",
"Q. c #CABBC8",
"!. c #D6B9C5",
"~. c #E1BDC2",
"^. c #B8C1CB",
"/. c #AFC0D5",
"(. c #AEC2D9",
"). c #B3C3D5",
"_. c #BAC6D5",
"`. c #BBC9D6",
"'. c #B4C4DA",
"]. c #B9C7DB",
"[. c #B6C9DB",
"{. c #BCCBDC",
"}. c #B7C8D6",
"|. c #BFD0DD",
" X c #BDCDE2",
".X c #B7C7E1",
"XX c #BED0E3",
"oX c #BCD5E9",
"OX c #AFCFE1",
"+X c #C4C3CB",
"@X c #D9C3C9",
"#X c #C1CEDD",
"$X c #C5CAD4",
"%X c #C3D1DE",
"&X c #CBD4DE",
"*X c #CDDADD",
"=X c #D2CBD8",
"-X c #E4C5C7",
";X c #ECD5D9",
":X c #ECD2D5",
">X c #F3E2DE",
",X c #C1CEE2",
"<X c #C9CFE5",
"1X c #C4D3E3",
"2X c #CAD5E4",
"3X c #C5D8E6",
"4X c #CCD9E6",
"5X c #C5D5E9",
"6X c #C9D6E9",
"7X c #C6D9EA",
"8X c #CCDBEA",
"9X c #D1DCE6",
"0X c #D2DEEB",
"qX c #D9D8E7",
"wX c #CEDEF1",
"eX c #C5DFF1",
"rX c #D1DEF1",
"tX c #E4DEE7",
"yX c #CFE0ED",
"uX c #D9E1E7",
"iX c #D5E1ED",
"pX c #DAE4ED",
"aX c #D4E6E9",
"sX c #CCE6F3",
"dX c #D5E2F1",
"fX c #DBE5F1",
"gX c #DDE9F4",
"hX c #D9EBF8",
"jX c #DCF0F5",
"kX c #E1E9EE",
"lX c #E4E4ED",
"zX c #E3EBF3",
"xX c #E3EDFA",
"cX c #E0E7F0",
"vX c #E8F4FA",
"bX c #F0FBFF",
/* pixels */
"1X.X,X5X X5X5X0XxX2X2X4X1X#X{._.4X%X5X2XpXpX2X2X9X{.3X4X].4XgX2X9X2XkXa.V $X4X3XiXiXuX9XuXpXiX4XaXdX5X%X4X).).8X[.[.%X2X",
"{.{.2X4X4X8X X#X9X'.).].6X^.U.#X{.5X1X]._.%X{.%X4X`.{. XW.,X%X%X2XaXa.v 0 4 i.pXiXgXuX3X7X%X[.).9X9XiXiX1X`.2X%X_.[.`.`.",
"4X4X2XkXpX#XT. X{.{.{.E.2X{.{.5X7X XT.'. XXXT.).2X X X{.8X1X%X4X&XiXc = < X * ^.dX4X4XwX(./.{.|.pXqX4XE.{.{.1X1X{.%X0X0X",
"pX1XiX9X4X0X,X.X X,X0X,X5X4X9X8X2X_..X[.XX].`.%X8X'.{.%X8XiX8XfXgXM.6 -   5 0 i.6X1X|..X_.[.).%X4X0X,X[.|.{.]._.].8X0X1X",
"2X1X_.{.'.,X6X{.5X5X0X2X9X2X0X1X4X1XXX1XwX5X4XzX9X2X1X9X{.0X4X9XgXv.m x j 6 = p.%X4X).).].%X2X4X#X6XI.R.[.1X1X3X1X1X}.T.",
"2X#X6X{.{.{.6X X.X X6XfX9X2XrX,X8X%X{. X7X'.1X].1X`.8X1X5X5XyX4XhXk.f 2.1.7.C ^.1X4XI./.1X4X|.'.].iX)..X#X%X_.).5X4X X X",
"4X6X0X5X_.,X{.^.1X'.2XpXiXdX0X8X3XT.'. X].I.6XW.5X8X9X_.5X XqXqXsXv.C L.L.V.s.$XfX0X).).5X{.[.'.#X9X[..X1X{.).(./.1X XrX",
"4X#X{.1X4X%X,X).1X7X,X2XgX X{.1X X X.X.X9XdX%XI.'.2X,XdXD.w.w.@.u.+Xg L.Z.H.h.4X{.2X5X1X1X1X5X`.2X4X'.T..XT.5X'.1X8X5X X",
"2X1X6X%X0X4X,XW.).2X#X4X1X X X5X5X X X4X2X2X#X).%X4XpX@X#.| o.[ H 1.s 7.1.s.`.yX`.'. X5X5X`.5X5XiX9X{.).(.].7X X8X6X1X].",
"9X_.{.5X].4X#X)._.].0X6X[.1X8X X5XT.I.|.%X_.#X0XaXtXC.^ [ o.o.` H -.x M B.g.hX%XyX'. XXX XyX X{.iX%X6X7X7X{.]._.7X{.'.8X",
"pX6X{.'.].#X5X7X].2X0X5X1X'.5X X1X/.T.1X{.%X4X#X$X8._ I }  .| ` P J 7.;.a 7.kX%X%X1XXX{.XX'.'.5XgX2X4X1X X'..X8X8XT. X X",
"`.iXdX_.#X1X4X1X1X6XrX). X X.X1X2X,X5XdX1X[.#X XqXq.U T D P _ Y U P f x X G 8.aX4X'.%X2X5X/.].7XpX%X#X{.{.'..X8X1X6X8X,X",
"%X%X6X0XpXpX,X'.%X4X,X'.T.5X1X#XdXdX4X2X'.W.XXD.$.-XK.R D y H ^ U U F e y T _ Z.jX%X1XaX2X[.8X8X6X4XhX6X1X,X1X2X1X1X].{.",
"4XiX{.8X0X`.1X5X{.3X2XT.'.{.8X2X8X7X1X2X].R.4XB.X.` D.K.u e F *.#.U _ ] T Y _ #.qX8X2XiX9X5X4X4X0XiX6X1XXX1XE.#X{.].[.(.",
"6X{.XX8X#X4X,X'.1X#XiX1X{.7X{.5X{._.0X2XT. XJ.K.>X=._ D.f w F U ' ` Y ` ` ] ` } @X0X9XuX{.8X0X#X6X1X.X5X7X{.E._.1X X'.W.",
"2X X X].].6X2X{.XX5X0XpX4X1X{..XoX[.pX'.{.iX8.` #.q.K r 1 y P R ` R ] [ } ] ` } !.iX&XfX6X1X,X,X8X].'.8X4X).).].8X'..X X",
"6X{.'.).{.I.%XgX7X{.1X].5X5X%X].[.7X4X1X5X$XO.{ G H y O : u ! H ,.9.R ` | _ _ { F.eX8X#X8X1X/.sX8XE. X,X,X{.{.1X5X{.,X4X",
"0X{.).,X4X4X5X1X0X1XXXW.R.5XXX5X8X4X`.uX5XQ.Q Y R U } K , d ;.4.-.:.( R | R ] | D.eX0XT.{.5X X X_.8X,XoX'.1X X5X,X5X8XpX",
"9X9XpX8X9X1X3X X'.{.2X X).1X4X`.#X*XiXpXzX@X] _ U _ ` } F a + d F J 8._ ' H ] [ !.wX8X_._.5X7X].`.0X{.'..XXX4X8X%X6XrX X",
"uXdXiX%X5X5X{.).'.T.6X0X4X1X).2X`.{.8X1XpX0X#.Y Y _ U U ] , . 4 y ) 9.X.Q y U 8.#X7X,X.X2X2X4X%X,X].(.{.1X7X1X9X4X4X{.T.",
"cX#XT.9X7X1X1X1X1X{._.#X#X`.6X4X%X1X2XOX5XjX-X.._ _ P I F , & v w H ) ( <.G.C.@XaX<X/. X8X2X4XiX1X_.W.8XiXXX].8X4X4X{._.",
"vX4X{.7XrX5X1X6X5X#X%X].#X0X$X4XiXiX|.%X5XgXD.L P R I F F q . . q F <.^ r ^ #.S.dXfX X1X5X5XiX4X0X%X#X#X9X/.{.'.%XaX{.,X",
"fX2X_. X{.7X{.{. X{.`.1X4X0XpX9XaX9XhXdX0XvX7.P T U G y u > . . 1 ,.#.p k.3.9.=X5X8X8X6X8X6X4X1X2X9XE.,X1X2X).2X4X2X#X).",
"&X0X8X5X{.).1X'.W.).`.2X#X{.6XiX8X1X1X4XrX!.F.J.J G T y e s %   = ! G , r ;.V.uX1X4XiX%X8XpX8X{.,X#X].0X#XI.iX1X_.I.7X'.",
"0X0XiX X'./.].7X5X1X2X1X.X X4X4XiX7X2X3XjX8._ B.G.W D H e a -   X e F q , y 7.sXiX%XdXuX2X0XdX1X5XE.iX8X5X{.%X&X2X,X0XpX",
"cX#X4X8X.XXX{.1X8X%X2X{.{.,X9X5X7X3X4X1XsXA.O.D >.G.-.u u t 9     e I q w D G.8X9X1X9XzX1X9X5X{.wXzX2X8X#X2X1X4X0XgXrX%X",
"6X1X0XqX1X1X1X'.).0X9X_.{.8X2X5X X1X9XhXD.K.;X4.D p t.;.y e + = < H I , u T @X3X8XiXiXpX5X1X9X1X8X8X8X0XaX#X9X X1XdX8X0X",
",X6X4X9X9X1X).). X#X9X#X9X#X[.5X].7X9XdXy.H #.J.D.! , g 6.r 1 s 0 F y : H / zX8X8X2XpX4X2X_.6X{.7X0X2X4X9X%X6X|.#X].{.dX",
"3X2X1X1X0X1X#X#X'.W.2XqX4XT.XX1X1X4X9X7XI.4 , F 7.:Xy.: 1 m s ;.6 g f : u ( 8X4X0XdX9XiXqX9X2X7X1X8X2X%XW.1XiX`._.R.5X4X",
"yX2X4X5X{.%X4X%X#X8X4X2X4X{.5X1X%X8X,XwXi.@ % X w W C.H.A m d Q e N G.$ : 4.yX2X0XfX7X8XxX4X4X4X'.8X1X X#X7X%X1X4X0X{.#X",
"4X8X7XXX1X{.7X9X2X_.0X8X4XiX2X9X2X8X2X_.8 . @ X . + w ~ 0.S.k.4.k.s f -   h.xX8X4XrX,X#X9XpX%X6X8X8X[.5X2X2X`.4X%X9X1X5X",
"8X{..X5X{.{.].5X1X4X6X6X,X%XuXiX6XdX0Xl.# * $ # o   . O : : : : a M k -   9 {. X{.6X X].1XcX1X,XiX{.1X5X&X2X4X4X8X1X1X'.",
"{.'.'. X8X6X).{.1X2X2X].5X{.2XcX7X2XzXZ @ * @ o o . . .   .   .   X b ;     e.1X1X'.'..X X9XdX,XiX{.)..X8X8X8X1X8XiX%X].",
"3X X{.6X8X6X7X{.2X{.iX8X).1XfX4X1X7X#Xh * * @ # . . .   o . . $ - @ z N N o h.dX1X).I.'.1XdX6XfX%X4X/.XX XiX1X{.1X2X&X2X",
"5X8X5X{. X X#X1X2X8X2X2X4X9X9X6X{.rXn.2 2 @ # o . .   o * @ & * * & * 5.s.  v.rX6X{.).&X4X{.2X%X3X*X1XXX.X7X{.5X_.).1X2X",
"7X{.wX.X.X{.1X5X'.#X%XE.4X4X4X{.].1Xp.& 2 % O . . X o = 4 * - * * 7 4 z n   M.8X6X{.].1X`.2X%X`.4X4X2X'.6X1X X1X{.#X`.4X",
"6X5X.X X.X5X5X X5X{.4X0X].iX2X%X8XfXB * * @ . .   r.h # 5 3 3 * 7 e.- C 9 v pX,X5XXX#X8X4X_.4X%X#X2X4X#X8X7X5X1X_.{.2X4X",
"6X].,X,X8X6X X5X7X X9XiX4XiX9XiX9X#Xh $ - @ #   9 3X%.E 1 % 7 h B gXn 0 5.6.hX].%X{._.|. XXXdX1X,X9XiXiX0X1X5X X2X2X'. X",
"#X'.1X,X5X5X5X8XdX1X4X1XdX9XiX4X[.sXA O $ @ #   p.H. .+.O.q & 3 n.bXpXn 6 g.8X5X4X1XXX_.W.'. X].5XiXiXcXpX2XXX1X8X5X,X1X",
"#X X X1X XT.6XcX0XdXiX3X5XaXiX4X3X!.-.w : O . * '.9.| +.+.R O B iX5XgXl.a.e.1X1XiX6X X_.'.'. X1X9XdX8X8XiX4X'.5X1X X8XcX",
"4X/._.,X,X1X4X4X{.8X6X7X8XiX9X1XsXq.| R H y > e.qX$.| { } ' > M.0X#X2X^.qXd.n.8X4XiX%X{.].`.,X4XgX2X,X'.iX2X1X XR.{.pXkX",
"4X4X8X4X9X1X2X4XdX4X7X8X8X2XhX7XhXq.[ ` _ G 7.sXm.U [ ` } I V aX8X#X1X2XzXY.e.2XiX&X4X1X7X6X|.iX$X%X X).2X%XiX'.).9XkXuX",
"#X2X8X`.#X2X4X1X7X2XgX{.,XwX0XgX!.D./ U U J Q.oX!.B.&.U [ 8.sX*X8X#X2XfXpXxXr._.dX8XpXfXdX6X2XpX0X0X1X7X3XgX9X9X4XpXaX{.",
"iX].).6X9XqX2X1X XpXiX1X5XXX2XhX0.u.-X^ L k. X X3.q.:XB.R 9.oX3X`._.4XfXpX8Xn.g.5X#X4X2X9X%X%X`.2X%X_.5X7X9X9XgXpXuX9X1X",
"5X'.[.1X0X2X5X.X8XpX<XrX8X6XwX=XJ./ 0.;X@X8X5XqXB.@.8.!.-XI. X4XU..XrX4XqX6X%Xe.,X,X2X8X2X1X5X].#X).T.2X2X5X9X9XaXqX%X%X",
"2X1X X].5X7X7X4X0X2X,X8XxXqXoX9.A.-XJ :.uX7X9X9.:XJ.@.&.Q.XX%X1X,X8X,X9X*X%X0Xf.l.7X8X9X{.|.{.[.{.{.{.6X4X6X0X9XpX&X%X X",
"8X,X.XW..X7X4XpXE.#X0X4X9X.X,X@._ B.~.S.{.5X~. .O.J.>XB.Y.1XpXiX2X,X).4XpX4X,XU.Z 6X4X1X'.XX'.7X].0X6X0X%X9XfXzX4X3XpX1X",
"4X'.T..X1X8X0X1X#X6X4X,X#X.X!. .' P E x.XXsXq.| ` _ 8.!.OX XgX0X,X&X,X0X0X1X].6Xp.P.%X8X{.{.{.6X7XuX2X%X7XiX0XfX#X8XqXpX",
"].W.W.{.7X#X4X,X1X1X2X9X].wXV.{ ] U I Y.rX8X=.{ ' { { x.XX8X{.).rX2X<X0X{.1X].wXn.j.wX4X6X{.1X2XiX9X1X0X9X6X9XpX0X0XrX#X",
"5X]. X6X_.1X,X X1X{.uXfX X7Xq._ I L 0.jXrXQ.O.` ' ` q.oX5XiX]. X X,X0X0X'.1X1X{.dXe.'.6X{. X8X1X2X%XuX0XdXiXfXuX8X{.'.2X",
"5X X5X1X2X4XE.'.1X7X4XiXOX8X3.P P ) tX8X XQ.Q Y [ =.*X5X1X9X]. XW.'.iX2X{.8X6X{.fXl.z.6X X1X6X#XiXuXzXgX0X4XiX#X,X2XT.{.",
"'.0X].].{.,X]. X5X,X1X XrX5Xb.~ F k.sX1X<Xe.j :.E !.dX6X4X1XT.T.].2X2X4X7X{.1X1X5X2XZ _.5X9X#X9XuXkXkXpX6X4X6XW.'.6X).R.",
"8X9X1XT.1X,X X,X.X.X8X{.4X<XZ 5.x.#X].#X7Xb # z x.gX4X%XrXW.].'.).{.0X4X7X{. X X5XgXd.P.xX9X4X0XcXpXpX4X%X9X X/.'. X'.T.",
"4X1X8XwX5X,X[. X.X X7X6X9XcXQ.S P.9X'.[.Y.=XV c 9X2X{.8X0X.X'.].I.].4X9X6X2X7X7X7XrX+Xv.zXqX0X0XfX2X%X#XpX1XXX(./.'.1X).",
"9X2X.X1X.X X5X X5X8X4X%XM.m.m.M.&XiX|.{.;XlX$XqXpX X'.0X#X'. X{.].#X2X4X0X4XdX4X6X0XzXA Y.iXiX7XfX0X'.4XiX{.1X5X5X1X8X{.",
"{.'.7X).5X5X X.X X{.9Xd.b.N.j.Y.7X8XiX9X+Xm.Y.{.0X#X].4X&XE.`.#XdX#X2X4X1X#X6X0XuXiXxXn.f.iXrX0XM.&X4XgXpX8XdX1X].I.1X5X",
"]. XsX{.4X[.{..X X1X`.7 n l.v.4X8X8XpXA b.M.P./.8X X2X2X4X2X%X0X8X{.#X1X2X2X%XiXzXpXaX9Xf.uX%XV % P.vX#X1X%X2X,X#X_. X,X",
"{.1X].8X#X{.1X.X.XXX5Xr.# l.xX2X[.rX%X7 = l.1X X8X1X9X2X&X&X4X$X2XiX7X X5X8X2XuXpXzXpXdXv.z z . 7 &XfX#X7X5X,X,X#X{._.].",
"5X{.6X6X1X|.iX6X5X3X1X5XU.6XiX8X#X6X%X$Xz c.iX4X0X1X4X&X#X%X2X,X5XfXiX8X8XgXuXiXiXpX1XpX9Xh Z Z ^.vX6X7X X2X X1X XXXXXXX",
"5X#X,X].T.1X%X9X4X4X8X0XgXpXiXfXpX8X{.9X9X9XaX4X6X9X2XiX4X0XlX0X9XcXvXpXzXkXuXiX9XqX4XcX9X*X=XpXkX9X).#X1X8X5X4X XXXwX5X"
};
