/* XPM */
static char *result[] = {
/* columns rows colors chars-per-pixel */
"64 64 223 2 ",
"   c #040404",
".  c #0D0E0E",
"X  c #040B0C",
"o  c #110F0F",
"O  c #0E1010",
"+  c #121212",
"@  c #1B1A1A",
"#  c #1A1716",
"$  c #10100F",
"%  c #231B1B",
"&  c #381D19",
"*  c #121F21",
"=  c #1A2021",
"-  c #252424",
";  c #2C2C2C",
":  c #282626",
">  c #342827",
",  c #333333",
"<  c #3D3C3D",
"1  c #353B3C",
"2  c #481B16",
"3  c #571D16",
"4  c #47160F",
"5  c #621B14",
"6  c #4A241F",
"7  c #5A211A",
"8  c #61231C",
"9  c #78261D",
"0  c #4A2B28",
"q  c #45312F",
"w  c #443D3D",
"e  c #433432",
"r  c #553936",
"t  c #552B26",
"y  c #662D25",
"u  c #762B22",
"i  c #7C3329",
"p  c #7C3931",
"a  c #6D3730",
"s  c #3C4141",
"d  c #434343",
"f  c #4C4B4C",
"g  c #4F4746",
"h  c #5A4E4C",
"j  c #4E4F50",
"k  c #525252",
"l  c #5C5C5C",
"z  c #585859",
"x  c #4D5154",
"c  c #634B48",
"v  c #635C5B",
"b  c #71534F",
"n  c #6B605F",
"m  c #5C6263",
"M  c #636363",
"N  c #6B6B6B",
"B  c #656C6C",
"V  c #747374",
"C  c #7C7B7B",
"Z  c #777676",
"A  c #726D6C",
"S  c #86281C",
"D  c #9C2C1E",
"F  c #962A1D",
"G  c #AA2A1B",
"H  c #B72C1C",
"J  c #B7311E",
"K  c #842D22",
"L  c #8C2B20",
"P  c #972E21",
"I  c #8A3328",
"U  c #9B3426",
"Y  c #843D36",
"T  c #973D32",
"R  c #A32F22",
"E  c #A13324",
"W  c #AC3425",
"Q  c #AC3A2C",
"!  c #A73729",
"~  c #B43425",
"^  c #BB3423",
"/  c #B83A2B",
"(  c #A33D31",
")  c #C72C1A",
"_  c #D72C1A",
"`  c #C4321F",
"'  c #DC321E",
"]  c #D2311F",
"[  c #E52F1B",
"{  c #C23323",
"}  c #CC3524",
"|  c #CD3925",
" . c #CA3C2B",
".. c #C43B29",
"X. c #D23624",
"o. c #DC3623",
"O. c #D53926",
"+. c #DC3926",
"@. c #DC3C29",
"#. c #D53C2A",
"$. c #E13A25",
"%. c #E23824",
"&. c #8A433A",
"*. c #9D463B",
"=. c #954238",
"-. c #A4463A",
";. c #A84438",
":. c #B8493B",
">. c #C24333",
",. c #CB4A3A",
"<. c #DD4532",
"1. c #D64736",
"2. c #E24633",
"3. c #8A4D46",
"4. c #84544D",
"5. c #885A54",
"6. c #9C5D55",
"7. c #955D56",
"8. c #985047",
"9. c #AA5348",
"0. c #B85347",
"q. c #AD5D53",
"w. c #B65C52",
"e. c #AC655C",
"r. c #B96258",
"t. c #876763",
"y. c #996861",
"u. c #8C716D",
"i. c #96716C",
"p. c #827E7D",
"a. c #837877",
"s. c #927B78",
"d. c #A76B64",
"f. c #B96C63",
"g. c #B8756C",
"h. c #BA7B74",
"j. c #AE766F",
"k. c #D75949",
"l. c #DB4F40",
"z. c #E25A48",
"x. c #C86659",
"c. c #D9685A",
"v. c #E16353",
"b. c #D16E61",
"n. c #CA746A",
"m. c #D67669",
"M. c #C87F76",
"N. c #CF766A",
"B. c #85807F",
"V. c #AC827D",
"C. c #CA847B",
"Z. c #C38179",
"A. c #D6887E",
"S. c #7A7F80",
"D. c #807F80",
"F. c #858484",
"G. c #8C8B8B",
"H. c #888787",
"J. c #988785",
"K. c #9A908E",
"L. c #8B9192",
"P. c #949494",
"I. c #9A9695",
"U. c #9B9B9B",
"Y. c #908F90",
"T. c #A58783",
"R. c #BB8C86",
"E. c #BD938C",
"W. c #A39C9B",
"Q. c #AD9997",
"!. c #B99A95",
"~. c #BAA29E",
"^. c #9DA3A4",
"/. c #A3A2A3",
"(. c #ACACAC",
"). c #ABA9A8",
"_. c #B3AEAD",
"`. c #B9A8A5",
"'. c #ADB0B1",
"]. c #B5B4B4",
"[. c #BBB5B4",
"{. c #BCBBBB",
"}. c #B6BABB",
"|. c #B0AFB1",
" X c #C48D86",
".X c #D58D85",
"XX c #C4938C",
"oX c #CB928A",
"OX c #C69B95",
"+X c #D3978F",
"@X c #C6A19C",
"#X c #C9B2AE",
"$X c #CBB6B3",
"%X c #CBB9B7",
"&X c #D7BBB7",
"*X c #CBACA7",
"=X c #D5C1BE",
"-X c #C4C0BF",
";X c #B5C0C2",
":X c #C3C3C3",
">X c #CCCCCC",
",X c #C6C6C6",
"<X c #D9C9C7",
"1X c #D4D4D4",
"2X c #DCDCDB",
"3X c #DAD4D3",
"4X c #D7D0CF",
"5X c #E2D9D8",
"6X c #E4D0CD",
"7X c #DEE2E3",
"8X c #E4E4E4",
"9X c #EAE6E5",
"0X c #E5E9EA",
"qX c #ECECEC",
"wX c #F2EAEA",
"eX c #EEF0EF",
"rX c #EEF2F2",
"tX c #F6F6F6",
"yX c #F8F7F7",
"uX c #F6FAFA",
"iX c #F9F9F9",
"pX c #F7F8F8",
"aX c #EEEFF0",
/* pixels */
"iXtXtXpXtXtXpXtXtXpXtXtXpXtXpXpXrXiXtXtXiXtXtXyXtXtXiXtXtXiXrXyXyXtXiXyXtXiXtXtXpXtXtXpXtXtXiXtXyXyXaXpXtXtXpXtXtXyXtXtXuXtXtXpX",
"tXpXpXtXpXtXtXpXtXtXpXtXtXpXtXtXyXtXyXuXrXtXtXtXtXtXtXyXtXtXiXyXtXyXrXtXyXtXyXtXtXyXtXtXpXtXtXpXtXtXpXtXtXyXtXtXyXtXtXyXtXyXyXtX",
"pXtXtXpXtXtXpXtXtXyXtXtXpXtXtXtXtXyXtXtXyXtXtXyXtXtXtXtXtXtXtXtXtXtXyXtXtXyXtXtXpXtXtXtXtXtXpXtXpXpXtXpXtXtXpXtXtXyXtXtXyXtXtXyX",
"tXtXtXtXpXtXtXpXtXtXtXtXtXpXtXtXuXtXtXtXtXyXyXtXtXtXtXtXtXtXiXtXtXyXtXtXtXtXtXtXtXtXtXtXtXtXtXpXtXpXpXtXtXyXtXpXyXtXtXyXtXtXtXtX",
"tXtXtXpXtXtXyXtXtXpXtXpXpXtXtXtXtXyXtXtXuXtXtXyXtXtXuXtXtXyXtXtXtXtXtXtXtXpXtXtXyXtXtXyXtXtXyXtXyXyXtXpXyXtXpXyXtXyXtXtXtXtXtXyX",
"tXtXtXtXpXpXtXpXtXtXpXtXtXyXtXtXyXtXtXyXtXtXyXtXtXtXtXyXtXtXiXiXiXiXiXiXyXtXtXtXtXtXyXtXtXyXtXyXtXtXtXtXtXtXtXtXtXtXuXyXtXtXtXtX",
"tXtXtXtXtXtXpXtXtXpXtXtXtXtXyXpXtXtXtXtXtXtXtXuXtXtXyXtXtXtXiXaX8X9X7XqXyXyXtXtXtXtXtXtXtXtXpXtXtXpXtXtXtXtXtXtXtXyXtXtXyXtXtXtX",
"tXtXyXtXtXtXtXtXtXtXyXtXtXtXtXtXtXtXyXyXtXtXtXtXtXtXtXtXyXuX>XG.Y.G.H.C :XtXyXtXtXtXtXtXtXyXiXpXiXtXtXtXpXpXtXtXtXtXtXtXtXtXtXtX",
"tXtXpXtXtXpXtXpXtXtXtXtXtXpXtXtXtXtXtXtXtXtXtXtXyXtXtXyXyX7XZ < f < g @ M 1XuXuXuXiXiXiXiXpXwX5X9XpXpXyXtXyXtXtXtXtXyXtXtXtXtXtX",
"tXtXtXyXtXtXyXtXtXpXtXtXpXtXpXyXtXyXtXtXuXtXtXtXtXtXtXyXaX/., , s < , @ - D.$X=X<X8X0XqX9X<XXXR.@X5XtXpXtXtXyXtXtXyXtXtXyXtXtXtX",
"tXtXtXtXpXtXtXtXtXtXtXpXtXtXtXtXtXtXyXtXtXyXtXtXyXyXtXyX8XV : , f f - ; ; q T 0.w.M.OX`./.e.~ f.h.V.=XqXtXyXtXtXuXtXtXtXtXtXpXtX",
"pXtXtXpXtXtXpXtXtXpXtXtXpXtXpXtXtXtXtXtXyXtXtXyXtXtXyXyX8XV , f f j f d < > P ] ] O.1.w.a.4.>.k.m.>.:.OX9XyXyXtXtXyXtXtXpXtXtXtX",
"tXpXpXtXpXpXtXpXtXtXyXtXtXyXtXtXyXtXyXyXtXyXtXtXyXyXtXtX6XD.f l N V z z j r ( @.#.o.$.k.J.i. ._ _ ^ ) T %XuXpXyXyXtXpXpXtXyXtXtX",
"tXtXtXtXtXtXtXtXtXpXtXtXpXtXtXpXtXyXtXtXtXtXtXtXtXtX9X$Xf.4.a.W.P.|.S.|.|.n K P P ~ >.r.Z.k.{ Q ;.*.T F E.qXiXyXtXpXtXtXpXtXtXtX",
"tXpXpXtXpXtXtXtXtXtXpXpXtXpXtXtXyXtXyXyXtXyXtXtXtX1XE.l._ ,.y.}.aX8X2XaX(.c R  .-.I L L I 7.V.).,X;X5.G h.7XuXtXtXtXtXpXtXtXpXtX",
"tXtXtXtXtXtXtXtXtXtXtXtXtXtXtXtXtXtXtXtXtXtXtXuX<Xw.] #.$.o.S , I.]./.W.g 4 / .X+Xz.o.O.l.#XeXrX6X2X).p T %XuXyXtXtXtXtXtXtXtXtX",
"tXtXtXyXtXpXpXtXtXtXtXtXpXtXyXpXtXpXtXtXpXtXpXqX X| 2.@.$.#.9 4 ; m A &.& 5 >.A.@Xm.<.' #.C.1X%X-..XwX`.( oXwXpXpXpXpXtXpXtXtXtX",
"tXtXpXtXtXtXtXtXtXtXyXtXtXpXtXtXtXtXpXtXtXtXuX$Xe.r.1.[ o.} u { S 4 t u.r G %.1.b.k.+.1.+XqXtXeXOX...X!.i 5.[.0XpXtXpXtXtXtXpXtX",
"tXtXtXtXtXtXpXtXtXpXtXpXpXtXpXtXtXtXtXtXpXpXrXXX6.V.g.r.N.0.9 o.] ` E &.I ] 2.b.c.'  .:.-XiXtXaXwXT.y 0 c M F.>XpXpXyXtXpXtXtXtX",
"tXtXpXtXpXyXtXpXtXtXtXtXtXtXtXtXpXtXtXpXtXpXqX X8.A D.@XN.( F %.' <.+.| ] ' <.C.b.k.N.e.[.iXtXtXaX(.F.W.(.}.'._.2XiXyXyXtXyXtXtX",
"pXtXtXtXtXtXtXtXtXyXtXpXtXtXyXtXtXpXyXtXtXuX8Xg.:.:.w.k.O.*.d.<.O.O.' $.2.' z.A.b.c.~.~.6XiXpXtX0X_.I.I.).%XoXe.E.9XpXtXtXtXtXpX",
"tXtXpXtXpXtXtXpXtXtXpXtXtXpXtXtXtXtXtXyXtXuX3Xr.) $.$.%.] 6.=X,.{ ~ 1.<.v.z.A.+X~.E.C.V.7XiXtXyXtX`.h h v 3.:.:.6.%XiXtXtXpXtXtX",
"tXtXtXpXtXtXtXtXtXpXtXtXpXtXpXpXtXtXyXtXpXiX%X9./ 1.+.' ~ B.qXe.H / c.c.C.OX#X#X~.C.0.&.-XiXaXtXiX_.; % ; 0 K &.u.1XiXpXpXtXtXpX",
"tXtXyXtXtXpXtXpXtXtXpXtXtXpXtXtXpXtXyXpXpXiXQ.T x.C.1.' / K.eX_.e.Z.E.XX*X*X$X~.C.n.I I $XiXtXtXtX2XN , - ; & h {.tXtXtXtXtXtXtX",
"tXpXtXtXpXpXtXtXyXtXpXtXtXpXtXtXyXtXtXtXpXiXG.L x.OXx.[ ;.W.yX9X~.oXR.~.oXx.x.n.b.0.P :.3XiXtXtXpXiX].H.v , , P.wXiXtXtXtXpXtXtX",
"tXtXtXyXtXtXpXtXtXpXtXtXpXtXtXpXtXpXtXtXpXpXS.9 >.r.9.) ! J.7X9XT.;.0.e.-.G ` ,.>.J >.A.eXuXyXyXiX>X/.>X;XH.^.9XiXpXpXtXpXtXtXtX",
"tXpXpXtXpXtXtXtXtXtXpXtXtXtXtXtXtXtXpXtXpXpXH.y ` } ! ~ W 3.K._.J.i S F K U >.` ^ J -._.iXtXtXiX2XZ I.9XiXtXpXiXpXtXpXtXtXtXpXtX",
"tXtXtXpXtXtXtXtXtXpXtXpXpXtXyXtXtXpXtXtXpXiXW.a D +.%.O.] J -.6.].T.=.R J ` W W W 9 & B aXpXpX9XU.C 8XpXyXyXpXtXpXpXtXtXpXtXtXpX",
"tXtXtXtXpXtXtXtXpXtXtXtXtXpXtXtXpXtXtXtXtXiX/.e 2 u | %.+.2.%.H t.4XB.4.*.U W U 6 +   : (.pX8X(.G.8XpXtXtXtXtXtXpXtXtXpXtXtXtXtX",
"pXtXtXtXtXtXtXtXtXpXtXtXtXtXtXtXtXpXtXtXpXiX].d X # 7 { $.' +.O.L u.u.).!.*.8 % X O $ . d ,X].G.2XiXtXpXtXtXtXtXtXpXtXtXpXtXtXpX",
"tXtXpXtXpXtXtXtXyXtXpXtXtXpXtXtXpXtXtXtXtXiX1Xz o + O & S P E ` $.S D =.Q.G.; . + O O # : V I.2XpXtXpXtXtXtXtXtXtXtXtXtXtXtXtXtX",
"pXtXtXyXtXtXtXtXtXpXtXtXtXtXtXtXtXpXtXtXpXiX2Xl . o o . O $ # 8 9 K O.' K v v B.U.z @ s D.C ].pXtXtXtXpXtXtXtXtXtXpXtXtXyXtXtXpX",
"tXtXpXrXpXtXtXpXtXtXpXtXtXtXtXtXiXrXtXyXtXiX>Xj . + . + o + . . $ > b i t.U.'.=X&Xt.> k M ; A aXtXtXyXtXtXpXtXtXpXtXtXtXtXtXpXtX",
"yXtXtXpXtXtXtXtXtXtXtXtXtXtXtXtXtXiXtXtXyXiX2Xm + # . . . . O + . : }.j M ^.I.e.o.{ 4.V q 0 H.aXyXyXtXyXtXtXtXtXtXtXtXtXpXtXtXtX",
"tXtXtXtXyXtXtXtXtXtXyXtXtXpXtXtXyXtXtXyXtXyX9XV # + . . . o + . . # -XH., < d r T ,.q.M y  .n.5XtXtXyXtXtXpXtXpXtXtXtXtXtXtXtXtX",
"tXtXtXtXtXtXtXtXtXtXtXtXyXtXtXtXtXyXtXtXyXyXaXD.@ O + . + . . o $ . _.2Xf $ - ; w 3.8.c J $.o. XtXtXtXtXtXtXpXtXtXtXtXtXtXtXtXtX",
"tXtXtXtXpXpXtXyXtXtXtXtXtXyXtXtXyXtXrXyXtXyXiXI.- . + . o . + . +   G.eX-Xl ; , s w p :.o.+.} -.%XtXpXtXtXtXtXtXpXtXpXyXtXtXtXtX",
"tXtXtXtXtXtXpXtXtXpXtXtXtXyXtXtXtXyXiXyXtXqX7XY.; # @ . o . . o +   j 2X{.M A L.b u ~ @.+.o.) ^ XX9XtXtXtXtXtXtXtXpXtXtXtXtXtXtX",
"tXyXyXtXyXtXtXpXtXtXyXyXiXiXiXiXiXyX>X}.9X}.d.T > * = X . o . . .   : B.C G.1X0X#Xq.^ ) ] 1.c.oX!.Y.0XtXtXtXtXtXpXtXtXpXtXtXpXtX",
"tXtXtXyXtXyXyXtXyXyXyXpXqX8X7X:X(.G.f Y.<Xy.G R 9 t 0 # . . X o = + , p.'.8XpXiXtX&Xj.0.m. XT.Z x : (.tXtXtXpXpXtXtXtXtXpXtXtXtX",
"tXtXtXpXtXtXtXpXtXqX9X}.C Z N d , %   L.OX( ) ..~ / E u y 3 3 r z k Y.1XuXiXyXtXuXtX>XJ.a.m 1 #     z 2XpXtXtXtXtXpXtXtXtXtXtXtX",
"tXtXpXtXyXtXpXpXwX2X,XC @ ; : + X $ X z Q.9.^ } { X.X.^ ^ { Q 5.G.].9XiXtXtXyXyXtXtXeX'.1     . + . # '.tXpXtXtXpXtXtXpXtXpXpXtX",
"tXtXtXtXtXtXtXpXtX1X|.F., d , ; o @ + # V i.T ` } ^ { / ~ 9.d.P.-XtXiXtXtXtXtXyXyXtXuX9XH.@ O $ o +   C 0XyXtXtXtXtXtXtXpXtXtXtX",
"tXtXpXtXpXpXtXtXyX8X}.F., < k k @ o o . d K.D.d.n.n.n.w.6.J.}.0XiXtXtXpXtXtXtXyXtXyXuXiXqXF.= . + +   j 1XpXtXpXpXtXpXpXtXtXtXtX",
"pXtXtXtXtXtXpXtXpXtX1XV @ , V D.k : @ ; W.7X8X0XaX7X;X^.^.2XtXyXyXtXuXtXtXyXtXtXyXtXtXtXuXeXG.# $ $ o s >XpXpXtXtXyXtXtXtXtXtXyX",
"tXpXpXtXyXtXtXtXpXyX2XC # , V F.:X(.D./.9XiXuXtX2X_./.>XaXiXyXtXtXyXtXtXyXtXyXuXtXyXtXtXtXpX9Xl - ; s C >XtXpXtXpXtXtXpXtXtXpXtX",
"tXtXtXyXtXtXtXtXtXyX9XF.@ ; C Z 1XpXuXiXuXpX2XU.Y.{.8XiXpXpXtXpXyXtXtXtXtXyXtXtXtXtXtXtXtXtXtX{.C H.f v G.1XpXpXtXpXtXtXpXtXtXtX",
"tXyXpXtXpXtXtXpXtXtXtX].s @ l j 1XtXtXyX8XI.l D.>XyXpXtXtXpXtXtXtXyXtXtXtXtXtXtXtXtXuXtXtXyXtXaX{.V Z G.Z I.>XaXyXtXtXtXtXpXpXtX",
"tXtXtXtXtXtXtXtXtXpXtX2XI.M d C 0XyXaX].V Z :XaXyXtXtXtXtXtXtXtXtXtXtXtXtXtXtXtXtXtXtXtXtXtXtXpXtX/.Y.P.W.U.V /.tXiXtXtXtXtXtXtX",
"uXtXtXtXtXtXtXpXpXtXtXtX7X2X1XqXpX,XY./.>X0XpXpXtXyXtXtXtXpXtXpXpXtXpXtXtXpXtXtXpXpXtXpXtXtXtXtXyXqX/.D.C M : d {.iXtXtXtXtXtXpX",
"tXyXtXtXtXtXtXtXtXpXuXiXiXiXtX{.C U.>XqXtXyXtXtXtXtXtXpXpXtXyXtXtXtXtXpXpXtXtXyXtXtXtXtXpXpXtXpXtXtX0XW.s % , D.2XiXyXtXtXpXpXtX",
"tXtXtXyXtXtX2X1X1X1X,XU.P.C z N ).8XtXpXyXtXtXpXtXtXpXtXtXpXtXtXyXtXpXtXtXpXtXtXpXtXtXtXtXtXtXtXtXtXtXqX}.U.).{.8XuXpXtXtXtXtXtX",
"tXtXpXpXrX8X>X>X:X/.N ; ; k P.>XqXyXyXtXtXtXtXtXtXtXtXpXtXtXtXtXtXtXtXtXtXtXtXtXtXtXpXtXtXtXtXtXtXrXaXaXwX8X2X2X8XtXpXpXtXpXtXtX",
"tXtXtXpXrX9X8X2X1X:XP.G.U.,XqXpXpXtXtXpXtXtXtXpXtXtXyXtXtXtXtXpXpXtXtXtXtXpXtXtXtXtXtXtXtXtXpXtXtXtXtXrXtXtXtXaXtXtXtXtXtXtXtXtX",
"tXtXyXtXtXtXtXtXtXwXqXqXpXiXpXtXtXtXpXtXtXtXyXtXpXtXtXtXtXtXpXtXtXpXtXtXpXtXtXpXtXtXtXtXpXpXtXtXtXtXyXtXtXtXtXyXpXtXtXyXtXpXtXtX",
"tXtXtXtXtXtXtXtXpXpXiXiXpXtXyXpXtXpXtXtXpXtXtXtXtXtXpXtXtXpXtXpXpXtXpXtXtXpXtXtXyXtXtXpXtXtXpXtXyXyXtXyXtXtXtXtXtXtXtXtXtXtXtXtX",
"tXtXtXtXtXtXtXtXpXtXtXtXtXtXtXtXtXtXtXtXtXtXtXpXtXtXtXtXtXtXtXpXtXtXtXtXtXtXtXtXpXtXtXtXtXtXtXtXtXpXtXtXtXtXtXtXtXpXpXtXtXtXtXtX",
"tXtXpXtXtXtXtXpXtXpXpXtXtXtXtXtXtXtXtXpXtXtXtXtXpXtXtXtXtXtXtXtXtXyXtXtXpXtXtXtXtXtXtXtXpXpXtXtXtXtXtXtXtXpXtXtXpXtXpXtXtXtXtXtX",
"tXtXtXtXtXtXtXtXtXpXtXtXpXtXpXtXtXtXtXtXpXtXtXpXtXtXtXtXtXpXtXpXpXtXpXtXtXtXtXtXtXtXtXtXtXtXpXtXpXpXtXtXtXtXtXtXtXyXtXtXpXtXtXpX",
"tXyXpXtXpXpXtXtXpXtXtXtXtXpXtXtXpXtXpXpXtXtXpXtXpXpXtXpXtXtXpXtXtXyXtXtXpXtXpXpXtXpXtXtXpXtXtXpXtXtXpXtXtXpXtXpXtXtXpXyXtXtXtXtX",
"pXtXtXtXtXtXtXtXtXpXtXtXpXtXtXtXtXtXtXtXpXtXtXtXtXtXpXtXtXyXtXtXpXtXyXtXtXpXtXtXtXtXtXpXtXtXyXtXpXtXtXtXtXtXpXtXtXtXtXtXpXtXtXyX",
"tXtXtXtXpXtXtXtXtXtXtXtXtXpXtXtXpXtXtXpXtXpXtXtXtXpXtXpXtXtXyXtXtXyXtXpXpXtXtXtXtXpXpXtXyXtXtXyXtXtXpXtXtXtXtXtXtXtXtXpXtXtXtXtX",
"pXtXtXpXtXtXpXtXtXpXtXtXpXtXpXtXtXpXtXtXpXtXtXpXtXtXpXtXtXyXaXpXtXtXyXyXtXtXtXtXyXpXpXyXtXtXyXtXyXyXrXyXtXtXpXtXtXtXpXtXyXtXtXpX",
"aXpXtXtXpXtXtXpXtXtXtXtXtXpXtXtXyXtXpXyXaXyXtXtXtXtXtXyXyXtXuXtXtXyXaXtXpXtXyXpXtXyXyXaXyXtXrXiXtXtXyXtXtXpXtXtXpXtXpXyXtXyXyXaX"
};
