/* XPM */
static char *_b6fd4f9a6d54d28cc6ce052d3f9410cn5UkYh0Kp8u2TQZv[] = {
/* columns rows colors chars-per-pixel */
"60 60 234 2 ",
"   c #1C1C1C",
".  c #151415",
"X  c #0F0F10",
"o  c #380405",
"O  c #351715",
"+  c #242426",
"@  c #34373A",
"#  c #2C3036",
"$  c #4A0705",
"%  c #5A0302",
"&  c #570505",
"*  c #591916",
"=  c #4D1614",
"-  c #6C0203",
";  c #680706",
":  c #730303",
">  c #7C0203",
",  c #79080B",
"<  c #681C19",
"1  c #781515",
"2  c #6D0E0D",
"3  c #7E221E",
"4  c #7D1F22",
"5  c #562C2B",
"6  c #762624",
"7  c #712D2C",
"8  c #7B433D",
"9  c #353B42",
"0  c #7B3F40",
"q  c #3F4146",
"w  c #45494B",
"e  c #484C53",
"r  c #52555A",
"t  c #4E5054",
"y  c #595D65",
"u  c #5C6169",
"i  c #73747A",
"p  c #777675",
"a  c #6A6C71",
"s  c #850303",
"d  c #8C0202",
"f  c #870A08",
"g  c #940302",
"h  c #9B0302",
"j  c #950B0D",
"k  c #98070A",
"l  c #8B120E",
"z  c #960F13",
"x  c #8A1A1A",
"c  c #891515",
"v  c #971616",
"b  c #96110E",
"n  c #A40303",
"m  c #AC0304",
"M  c #A5040A",
"N  c #AC0C0B",
"B  c #A70A09",
"V  c #B30404",
"C  c #BA0104",
"Z  c #B4040B",
"A  c #BC0609",
"S  c #B60B0B",
"D  c #A30D12",
"F  c #AC0C12",
"G  c #A71716",
"H  c #B8141A",
"J  c #B60F15",
"K  c #99211D",
"L  c #8B231C",
"P  c #B0221D",
"I  c #971F24",
"U  c #A71C23",
"Y  c #BC1C27",
"T  c #882525",
"R  c #992625",
"E  c #89352F",
"W  c #952E32",
"Q  c #883636",
"!  c #9A3130",
"~  c #A72628",
"^  c #B72729",
"/  c #A73738",
"(  c #B83734",
")  c #AD2E32",
"_  c #C3040B",
"`  c #C70408",
"'  c #CD0A12",
"]  c #C91A21",
"[  c #C3282B",
"{  c #94433B",
"}  c #B64234",
"|  c #993D42",
" . c #AC3A42",
".. c #954746",
"X. c #995856",
"o. c #8C4949",
"O. c #A64746",
"+. c #B44449",
"@. c #A94C59",
"#. c #AA5959",
"$. c #AC5351",
"%. c #92615C",
"&. c #BA695E",
"*. c #965C66",
"=. c #A65965",
"-. c #BB5E6B",
";. c #9A6966",
":. c #877475",
">. c #906F66",
",. c #A86667",
"<. c #B76666",
"1. c #A96974",
"2. c #A87B77",
"3. c #B77879",
"4. c #B57070",
"5. c #C54D53",
"6. c #CC5964",
"7. c #C36667",
"8. c #C8797A",
"9. c #978378",
"0. c #A8867A",
"q. c #BD837A",
"w. c #CE817B",
"e. c #747B84",
"r. c #987E85",
"t. c #B27C88",
"y. c #C37A82",
"u. c #7D8188",
"i. c #878486",
"p. c #848C94",
"a. c #96979B",
"s. c #919094",
"d. c #A88586",
"f. c #BA8987",
"g. c #B69488",
"h. c #B69797",
"j. c #AD8E94",
"k. c #A0A19B",
"l. c #949BA6",
"z. c #8F99A6",
"x. c #9CA4AE",
"c. c #A4A6AC",
"v. c #A3ABB4",
"b. c #A4AFBD",
"n. c #B6AAB6",
"m. c #AEB3BC",
"M. c #B5B5BA",
"N. c #B6A4A9",
"B. c #C68889",
"V. c #C39599",
"C. c #C69D9E",
"Z. c #D79D9D",
"A. c #C5938A",
"S. c #D5A39C",
"D. c #C6A39B",
"F. c #C899A6",
"G. c #C7A9A7",
"H. c #D5A9A7",
"J. c #C9B3AA",
"K. c #C3A7B3",
"L. c #C8B6BC",
"P. c #D6B7B6",
"I. c #D1C0BC",
"U. c #ACBBCD",
"Y. c #A8B6C4",
"T. c #B6BBC7",
"R. c #ACBCD2",
"E. c #A7BAD4",
"W. c #B1BED4",
"Q. c #B2BEDA",
"!. c #B8AEC1",
"~. c #C7B9C7",
"^. c #CAB9CC",
"/. c #BBC2C9",
"(. c #AEC1D4",
"). c #AFC1D9",
"_. c #B3C3D5",
"`. c #B9C6D5",
"'. c #BCC9D6",
"]. c #B5C4DA",
"[. c #B9C7DB",
"{. c #B6C9DB",
"}. c #BCCBDC",
"|. c #B7C9D7",
" X c #BFD0DD",
".X c #BDCDE2",
"XX c #B8C9E3",
"oX c #BED1E3",
"OX c #BCD4EA",
"+X c #C6C5C9",
"@X c #D7CACB",
"#X c #C1CEDD",
"$X c #C8C8D5",
"%X c #D7C7D2",
"&X c #C4D1DE",
"*X c #CBD3DE",
"=X c #D4D6DB",
"-X c #D9D1CC",
";X c #E5DAD8",
":X c #E6CDCB",
">X c #ECE5DE",
",X c #C1CEE2",
"<X c #C0CFE8",
"1X c #C4D3E3",
"2X c #CAD6E4",
"3X c #C7D8E7",
"4X c #CCD9E6",
"5X c #C5D5E9",
"6X c #C9D6E9",
"7X c #C5D9EA",
"8X c #CCDBEA",
"9X c #D1DCE6",
"0X c #D2DDEB",
"qX c #D7DBE6",
"wX c #CCDDF1",
"eX c #D4DFF1",
"rX c #CEE1ED",
"tX c #D5E1ED",
"yX c #DAE3ED",
"uX c #D9E5EB",
"iX c #CDE3F3",
"pX c #D5E3F1",
"aX c #DBE5F2",
"sX c #DCE9F4",
"dX c #D7EBF9",
"fX c #DDF3FC",
"gX c #E2E9EE",
"hX c #E3E4E7",
"jX c #E2EBF4",
"kX c #E3EBF5",
"lX c #E7F2F9",
"zX c #F9FFFE",
"xX c #F0E8E0",
"cX c #D4E3DD",
/* pixels */
"1XXX,X5X.X5X5X0XkX2X}.,X&X[.].E.oXXX5X8XaXeX,X1X6X_.1X5X_.2XtX5X4X3X4XtX[.OX}.&X9X9X4X2XtXyXtX1X0XyX5X&X4X_.`.8X{.{. X1X",
"'.}.2X4X2X8XXX#X0X[._.[.3X(.U.,X1XiXF.X.h.2X.X,X9X[.}..X)..X&X&X8X4X&X4X'._.1X0XaXsXpX6X8X}.}.{.4X9XtX0X1X'.1X&X_.[.'.&X",
"4X4X4XgXaX#XW..X'.XX_.U.1X&X'.7X$X1.v m k *.T.(.5X,X}.}.wX1X#X4X*XuXuXyX0X4X8X4X9X9X2X0X_.(.}.}.0X9X8XW.#X}.&X1X.X#X0X9X",
"yX1XtX9X4X8X.X}.1X<X2X,X4X4X8X9X@.5.&.R B g =.4X3X_..X&X8XqX0XsXtX9XqXyXaX&X5X1X[.4X#XXX_.}._.1X2X9X,X[..X}.[.|.}.0X4X5X",
"4X1X|. X].1X2X}.<X6X0X1XqX2XeXn.J } +.6.G h R K.uX1X1X9X}.0X4XtX0X2XaXeXsX&X}.{.`.4X_._.}.#X4X0X|.}.U.U.'.1X1X2X1X3X|.U.",
"1X#X2X[.[.}.1X1XXX.X,XeX8X<XeX~.^ G H D P k b *.5X[.2X4X1X1X4XrX0XuX&X1XuXtX1X8X#X4XU.R.1X6X}.{._.4X_.].}.1X_._.1X8X.X.X",
"2X2X0X5X|.,X}.(.<XQ.<XkXkXdXdX=X} [ ^ G x l ! ;.#XtX4X[.1X.X0X8X5X8X}.oX4X9X3X1XpXeXW.|.5X'.}._..X4X}.XX1X}._.].(.1X.XeX",
"4X#X}.1X2X1X,X_.wXpX$XF.B.t.j.B.~ ~ ~ ~ c , E >.v.4X#XeX7X6X6X1X1XwX1X.X1X0X4X4X,X1X5X1X1X1X5X{.2X4X].R.XXR.5X].1X6X1X.X",
"2X2X1X1X8XwX6X$Xt.<.Y Z C C V M K X.{ O.o.X.0.p m.4XuX4X`.#X1X}.wX5X1X1X8X5X4X4X[.]..X7X7X{.5X7X9X0X}._._.[.4XOX4X2X1X}.",
"9X}.}.1X.X$Xn.,.n ' ` _ A A Z g { ;.0.0.0.9.9.9.9XsX&X`.'.1X[.5X5X,XeXwX1X|.uX XrX]..X.XoX8X.X}.8X}.5X8X7XXX{.].3X}.].8X",
"gX1X#X].!.h.4.S.^ ' _ ` m m M g $.>.g.J.g.0.2.0.$X4X X_.9X1X}.4X7X5X8X7X#XtX4X&X&X1XoX}.oX].].5XtXoX4X&X.X].XX8X0XR..X.X",
"[.qXfXN. .P.,.P.8.C _ C n M n h { g.0.G.g.9.$.) j.&X#X#X9X2X5X,X,X.X5X8X8XtX&X3X9X|.#X2X5X(.].4XtX&X&X X].].}.0X,X5X8X,X",
"$X7XL.] C F.:XZ.^ V A _ Z m m h 2 J.J.9.2.o.2 h G P.eX2X#X1X}.2X}.].7XaX2X3X*X2XtX1X*X0X2X[.8X8X1X1XsX6X5X.X,X1X1X1X[.}.",
"4X*X..[ V &.,.s m m Z Z g h n g > 0.D.8 ;.7 : , n +.qX}._.XX#X1X'.OX8X2XuXsXuXtXtX4X2XuXtX7X4X4X4X4X6XoX5X1X_.#X}.[.}.).",
"5X$X;XxX8.s s B S Z N N w./ g k h 3 ;.E < - s s g n f.OX<X)._.2X&X X4X4XtXtX1X2XgX4X9XyX'.6X8X#X6X1XXX5X5X}.W.`.1X.X].Q.",
"1XlX:XS.7.N g k g d g / ;X#.g g g L < b f d d d g n O.XXQ.}.2X&XtXtX4X1X*XaX1XtXyX9X2XaX2X5X1X1X6X)._.0X2X_._.[.8X].XXXX",
"4XB.H C V V s - T 2.O.B.P.L h h d , k ` n n h h g n U +X5XeXeX1X5X9X9X'.4X9X0XtXrX1X9X#X4X1XR.iX5XR.,X5X,X}.{.5X5X}.,X4X",
"aX7.` ' ` m 1 1.>XzX:XW R s g s j s B n M m m n n n h V.iX.XW.1X1X8XtX&XtX4X0X4XiX1X0XW.}.7X.X1X_.5X.X.X].1X.X1X.X5X4XyX",
"dXB.` ` ` ` f @XzXzXf.6 2.W s f g h n h S m n m n M h @.5X[..X.X,X6X1XpXyX4X2X0X8X6X8X}.'.2X6X'.|.6X[.].XX.X6X0X&X2XeX.X",
"kX^.Y ` ` A - h.zX;X/ S.G.C.A.q.O.b h m A V m m m n h | ].,XOXE.}.}.4XsX0X4X2XtX&X6X,XXX1X1X4X&X}.}._.{.1X8X1X9X9X6X.XR.",
"gX7Xy._ _ n > <.V.| ~ 2.g.C.V.g.D.B.7.G G H N h M h $.A.,X.XE.E.1X0X8X'.4X8X&XtXtX6X)..X8X1X4XtX}.R.].wXtX X[.4X4X4X}.|.",
"lX6X^.^ m m B g : > ~ #.h.h.1.3.q.D.V.H.A.K d g h g O.o.}._.|.}.1X2X].}.'.4X1X*X4XdXoXoX5X6XtX4X0X'.'.,XtX(. X].&XuX'.,X",
"yX1XXX1.h J F v E E v $.3.q.3.3.3.,.#.V.4.- g g g d R A.4X4X#X}.1X[.].}.[.U.4X2X&X8X8X4X8X2X8X1X,X4X_.,X&X1X(.1X2X2X1X_.",
"2XeX8X$X#.J J +.Z.{ c I O.$.<.f.f.3.B.<., : j h n g ! 4.$XoX8X4X'.XX#X1X1X{.4XaX1X9XtX&X8XyX4XoXXX}.[.0X&XU.tX2X].U.8X].",
"qX0X0X.X.X1.h K c - T 4.T c > R ) ) v > : ; g g d g j > j.iX1X}..X1X2X'._.XX1X8XtX1XtXuX1X0XtX5X.XW.tX8X7X X}.*X6X,XqXyX",
"aX1X2X2X.X~.G h g s 1 { 6 6 T s s s s - % $ s s c x k j ^.fX.X5X,X1X9X1X{.).2X2X9X1X0XjX1X8X2X}.8XaX4X6X X*X1X0X0XsXpX#X",
"2X1XpXhX4X`.R M k , , : $ $ < o...1 1 < * * I  .$.S.4.| gX<X1X6X1X2X8X6X1X].6X5X4XtXqXyX6X1X8X1X8X3X8X0XtX#X0X}.1XpX4XeX",
",X2X4X4XtX~.c j j > : : : : & 5 d.h.d.>.5 5 / Y J ) J.=XaX6X6X2X#X,X6X1X.X}.sX8X0X&XuXtX1X[.4X}.7X8X2X2X4X&X2XoX,X[.'.pX",
"4X1X1X1XtX$Xc s z s - - - : : & o O O o o $ F _ _ n h.dX2X9X.X}.2X1X,X,X{.}.4X6X0XpX0XtX9X9X2X6X.X5X4X&X_.1XtX|.[.E.5X2X",
"tX1X4X6X'.1XL.;., k T x c 2 - ; o o % ; & % H _ Z v ^.6X#X}.8X9X,X[.1X1X1X4X&X8XtXaX4X4XlX4X2X4X).5X1X}.1X4X&X&X4X9X#X#X",
"3X8X6X,X1X}.8XsXh.U / ; ! H.0 & $ & ; % % ; J B g ~ $X].5XXX,X0X1X1X1X#X9XsX8XpX8X8X1X}.0XyX1X7X7X7X{.3X4X1X'.4X&X4X1X5X",
"8X}.XX7X{.}.].7X+X6.<.2 & ;.J.>.* - : : s s Z M d / aX}.}.,X,X1X2X0X0XaXkX4X6X}.}.6X.X].2XaX,X,X9X[.1X1X2X2X4X4X9X1X5X].",
"}.].].}.7X6X_.OXK.5.( s - > 7 G.h.* ; f F N V S G +.uX&X}.2X4X6X4XyX4XpX0X9X1X_.1X[.].XX,X9XeX1X9X'.(.}.4X4X8X5X8XuX&X{.",
"3X.X.X5X8X6X4X5XF.J S s > f % * N.%X8 ; N A C m V ~ @XaX9XjXtX1X2X1X9X9X1X9X4X8X2X_.R.].1XpX2XpX&X1X(.OX.XpX1X[.1X*X*X1X",
"6X8X1X.XoX.X[.wX8.k M > ; & & T v.N.g.d.R V G ( F h h.aX*XyXtXqXaXtX2XpX2X2X0X1X4X}.].#X4X}.1X4X X&X1X XXX3X}.5X_.`.4X2X",
"6X.X7XXX].{.1XwX=.k ] M ; & 2 & p.m.- 3.G.6 f.S.g G d.oX#X2X4X2X9X.X8XsXpXaXaX1X2X#X].*X'.&X*X'.4X4X4X_.6X&X.X1X'.}.'.4X",
"5X5X].<XXX5X5X7X<.' ' m f d ..r.c.pXQ : 6 >.D.q.z v j.OXoX,X9X0X8X[.2X6X4XtXtX1X1X1X&X4X4X'.4X1X[.1X4X#X4X4X7X1X'.'.1X2X",
"5X}.,X<X4X5X.X6X5.' Z h g c ~.fXaX2Xn.f v ..) ) ^ ! d.{.}.4XtX6XpX8XtX5X}.8X4X.X1X}._.,X}.oXpX1X.X6XtXuXtX&X5X}.2X6X]..X",
"#X_.1X,X6X1X7X^.] _ m h h =.lX2XXX1X6X7 z ~ d j x T K.1X|.pX4X,X8XkXqX.X}.pX#X6X6X1XoX|.).].}.[.1X8XtXjXyX1X}.5X8X5X,X1X",
"&X.X.X1X.XU.iXH.Z A m k g F.dX4X5X.XlX*.g ~ k b x 7 :.Y.4X7X,X6X8X4XqX5X2XtX,X1XpX2X#X].].]..X1X4XpX8X4XtX4X].5X5X.X8XgX",
"4X_.].1X.X,XpXC.A A m m R 1XrX1XtX0X1Xs.: D z v K 6 i.a.T.&XpXyX5X#X#X2XeX2X}.&X9X0X1X}.'.[..X0XyX,X1X].tX2X1X.XE.}.yXhX",
"4X4X8X4X6X*XpXy._ A A m 3.wXsX0X8X&X0XT.1 g : s k s j.#Xj.l.qX9X2X.X1X2XyX0X'.&XtX2X2X1X6X2X}.tX'.}..X_.4X&XtX(.|.9XaXuX",
"}.*X4X[.&X2X9X6.] N V x T.pX9XaX0X4XaX9Xx s : s k n 4.pXtXc.u.T.9XoX1XaXyXyX1X0X0X9XaXaXpX4X4XuX0X0X2X6X2XsXtXtX4XyXuX X",
"tX}._.3X2XsX^.[ ] ^ P B.wX,X5XrX4X1X<X5X@.g k h k n -.iX X|.T.+Xc.T.aXyXhX#XaX0X`.1X4X2X4X#X&X#X,X#X|.2X4X6X9XaXyXuXqX1X",
"1X_.XX1XtX7XL.F A P G 3.aX7XwX1X1X5XXXXX~.I m h h G <.1X1XE.,X2X/.u c.tXaX#X5X[.1X.X6X4X2X1X1X}.}.(.Q.5X1X5X0X9X9XuX#X#X",
"4XOX.X[..X5XjX7.h h g F.lXrX].6X6X8X.XXX<Xj.j n Z Y 3.4X[.XX1X1X4Xm.r i.*X8X&X{.Q.,X0X4X}. X.X[.].].}.2X4X2X0X9XyX*X#X,X",
"8X,X].].}.7XsXxXH.8.C.qX0X'.<X8X6X5XwXXXXX6XJ.=./ +.2.v.oX.XaXpX1X6X|.p.i n.eX_._..X4X2X[..X_.7X|.1X5X0X&XtXyXjX4X1XyX1X",
"2X`.R.XX5X8XhX;X-X>XqX1X,X].,XpX6X<X.XXX].6X8XuX~.n.s.u.OX XyX0X1X,X,XkXY.t i 1XOX1X|.0X}.}.,X6X5XtX2X#X4XtX0XaX&X0XqXyX",
"[.Q.Q.}.4X$XhX;X-X-XcX9X}.5X1X7X5X]..X5X8X1XQ.5X$XM.a.i .X8X'.].eX1X1X0X1X'.u w b.pX,X8X5X.X1X4X4X4X1XtX4X*XtXuXpX8XeX#X",
"6X].XX2X`.2Xf.H.@XH.G.kX,X<X5X_.5X].,XpX8X].OXOX2Xc.k.p 1XtX[..X.X,X0XqX].5XwXs.# e.0X4X[..X8X*X*X'.yXqXtXuXyXtX6X5X].<X",
"<X,X5X1X2X6X) k v v F.dX.X5X,X[.1X2XyXtX.X5X'..X1Xc.s.i /.pX{..XQ.`.tX2X.X4X5XwX`.r w Y.eX}.5X#X9XqXjXjX4X4X0X,X1Xx.Y..X",
"[.eX}.].#X*XU M n +.7XXX8X6X,X1X8XtX&X4X|.5X2X_.5Xa.+ X T.7XR.R.}.1X1X4X5X,X,XoXwXaXp.# p.jX&X9XuXjXuXyX1X2XeXT.r X u _.",
"8X4X1X(.<X=XO.d h 1.dX].8X*X9X4X4X}.[..X1X[.5X X7XT.. @ yX].]._._.}.0X4X7X,X.X.X5X9XjXT.e r $XsXyXuX0X4X0XaXz.#     @ U.",
"4X1X7XdX*X=XP.X.< !.5X1X4X1X#XtX#X1X[.|.2X}.1X0XpXeXx.Y.0X].].[.U.}.4X9X6X1X4X6X8X9X4XyXsXu.@ a.lXtX8X4X/.r .     + s.XX",
"4X3X'.c.$X=X+X9.i.pX}.2X[.}.}.'.2XeX#X1X1X.XwX0X0X,X}.sX#X_..X}.`.#X1X9X0X2XpX2X1XeXtXaX4XsXT.w e p.u.r + . .   y T.pX}.",
" X[.#X@ a +Xi 9 Y.oX4X'.[.1X*X[.2X9XqX1X}.eX5X[.0X,X].2X1X_.'.1XtX,X5X4X*X,X2XtXyXqXuXsX2X5XaX4Xi   . X X . w l.&XW.oX4X",
"{.OX`.+ X t u U..X1X].U.R.1X0X1X8X8XaX0X1X6XR.(.8X}.1X9X4X2X&X9X8X}.#X1X5X2X,X9XjXhX0X2X4XsX4XyXkXM.r @ y v.4X0X}.].}.1X",
"}.1X&Xa.w p -X1X[.1X].]..XXXpX4X}.wX1X9XpX2X1X}.4X1X4X4X&X=X4X$X2XtX6X.X5X4X4XuXgXgXaX2XsX0X4XwX].pXaX}.dX0X.X}.1X[.|.[.",
"2X,X`.+XM.+X2X5X5X6X.X5XXX2XtX4X}.4X[.&X&X8X6X4X8X2X4X2X#X2X4X&X5XpXpX8X0XjXyXtX0XaX2XyX1X1X0X4X&XsX4X8XXX,X.X1X.X,X1X.X",
"2X#X`.U.U.1X&X0X0X3X5XwXeXpX4X9XaX5X X6X1X6X0X1X1X6X'.0X1X1X0XtX0XtXlXyXaXtXtX4X1X4X2XtX8XtXtX4XtXqX_. X1X8X7X4X.X1XwXOX"
};
