/* XPM */
static char *result[] = {
/* columns rows colors chars-per-pixel */
"64 64 95 2 ",
"   c #C8B237",
".  c #C5B43C",
"X  c #CBB63A",
"o  c #CDBA3C",
"O  c #D0B73D",
"+  c #D3BC3E",
"@  c #D5C23F",
"#  c #C8B741",
"$  c #C7BD46",
"%  c #CDBE42",
"&  c #C8BD49",
"*  c #D5BE41",
"=  c #C5B753",
"-  c #C7BB52",
";  c #CCBE59",
":  c #CABD65",
">  c #CEBF68",
",  c #CEC141",
"<  c #CDC34B",
"1  c #D4C242",
"2  c #D8C342",
"3  c #DAC945",
"4  c #D0C74D",
"5  c #D2C94E",
"6  c #DBCB4B",
"7  c #CFC353",
"8  c #CEC15A",
"9  c #D1C654",
"0  c #D4CA52",
"q  c #D2C45C",
"w  c #D3C859",
"e  c #CEC065",
"r  c #D2C564",
"t  c #D3C669",
"y  c #293D8F",
"u  c #2B3F92",
"i  c #29428F",
"p  c #2C4393",
"a  c #2F4896",
"s  c #2F4998",
"d  c #304998",
"f  c #465B94",
"g  c #495E96",
"h  c #4A5F98",
"j  c #4C6297",
"k  c #4D629A",
"l  c #51659C",
"z  c #546B9D",
"x  c #566AA1",
"c  c #586EA3",
"v  c #5972A2",
"b  c #8794BB",
"n  c #8996BD",
"m  c #8B99BF",
"M  c #CBC486",
"N  c #CDC48C",
"B  c #D5CD8E",
"V  c #CDC394",
"C  c #D1C797",
"Z  c #D2C993",
"A  c #D5CC9B",
"S  c #D7D090",
"D  c #D7CDA3",
"F  c #D9CFA3",
"G  c #DBD2A3",
"H  c #8B99C1",
"J  c #CCCECE",
"K  c #D5CFCC",
"L  c #D9D7C7",
"P  c #D7D2CE",
"I  c #D9D5CD",
"U  c #DBD8CE",
"Y  c #CDCED0",
"T  c #CFD1D2",
"R  c #D2D4D5",
"E  c #DAD6D1",
"W  c #D7D9D5",
"Q  c #DADBD4",
"!  c #D6D7D9",
"~  c #D6DBDC",
"^  c #DCDDDD",
"/  c #E0DFDE",
"(  c #DCE0D7",
")  c #DEE1DE",
"_  c #E1E3DD",
"`  c #D7DEE1",
"'  c #DDDFE1",
"]  c #E0DFE3",
"[  c #DEE1E2",
"{  c #E2E3E5",
"}  c #E6E7E9",
"|  c #E7E9EA",
" . c #E9EBEC",
".. c #EEF0EE",
"X. c #EBEEF0",
/* pixels */
"z z v v v z z z z z z v z z l z z z z l j f f f f g g g d l l k k k k k f f f f h g f f f k h k x l k k x c l k l x x h h k l k ",
"i p a a a a a a a a a a a a i a i i p i i i i p p i p p p i i p i i p i p p p p p p p p p a s s s p p s s s s s s s s p s s d d ",
"y y i i i i i i i i p i y y i y i y y i y y y u u u u u y y p i p u u u u p p p p u p p p p u s p u u u u u u p u u u u u u u u ",
"n n m m m m m m m m n n b b b b n n b n b b b n H b H H H H H n H H H H H H H H H H H H H H H H H H H H H H H H H H H H H H H H ",
"^ [ ( ) ) [ ( ) [ ) ) ( ) ( [ ` ( ) ) ) ` ` ` ` ` ` [ [ ` ` ) ` ` ` ~ ` ` ` ` ` ` ` ` [ [ [ [ [ [ [ [ ` [ [ [ [ [ [ ' ] ` ` ` ` ",
"| | .... .| | .... ... ...|  .|  . .| |  . . . . . . . .X.|  .X.| |  . .X.X. .X. .X. .X.X. .X.X.X.X. . . .X... .X...X... .X.X.X.",
"| | | | | |  . .| .. ....... . . .|  . . . . .|  . . . . .X. .X. . . . . . .X. . .X.X. .| |  .| | | X. . . .X. .X.X. .X.X. .X.X.",
"| |  .|  . . . .| |  . . . . . . .|  .}  .}  . . . . .X.| X. . .X. .X. .X.X. .X.X. . . . .X.| X.X.X.X.X.X.X.X.X.X.X.X. .X.X.X.X.",
"| | | ..| | | | |  .| ..| ....| }  . .| |  .|  . . . . . . .X.X. . .X. .X. .X.| X.X.X.| X.X.| X. . . .X. . . .X.X.X.X.X.X.X.X.X.",
"| .._ _ ..| | | | | ..| | | | |  . . . . .|  .| }  . . . . . . ... . . . . . . .|  . . . . . . . .X. ... .X. .X. .X. . . ... ...",
"| | | ..| | | | | | | ....| | |  .} } }  .| |  . . . . . . . . . . . .X. . . . . . . . . . . .X. . . . .X.X.X. . . . . .X. .X...",
"| | | | | |  .| | ..| | _ | ..|  . .X. . . . . . . . .X. . . . . . . . . . . . . . .X. . . . . .X.X.X. .X. .X. .X. .X.X.X.X. .X.",
"| | | |  .|  . . .| |  ...| | .. . . . . . . . . . . . . . . .}  . .X.| | X.| X. . . . .X. . . . . .X. . . .X. .X. . . . . .....",
"..| ..|  . . . .|  . . ...| | |  . .}  . . .}  . . . .}  . . .}  . .|  . . .X.|  .X. . . . . . . . . . .X. . . . . . . .X.X.X.X.",
" .| | | |  .| X. . . . .| ....|  . . .X.} X.}  . .}  . . . . . . . .| | |  . .X. .X. .X. .X.|  . .X.X. .X. . . . . . . . .X. .X.",
"| | | | X.|  .|  .|  . .| | | | }  . .} X.}  . . . . . . . . . . .|  . . . .X.|  . . . .X.| X. . . . . . . .X. .X. . . . . . . .",
"|  .| | .. . . . . .| X.|  . . . . . . . . . . .}  . . .}  . . . . . . . . . . .X. . . . . . . . . . . . . . . . . . . . . . . .",
"|  .| | | | | | |  .X.|  .X. .X. . . .} }  .X. . . . . .X. .}  . . . .}  . . . . . . . . . .X.X. . . . . . .X.X. . . .X.X. . . .",
"| | { { |  . .| | |  .} ] | | |  . . . .}  .} X.X.X.X.X. .X. .X. .X.X.X. . . . . . .|  .X. . .|  . . . . . . . .X. . .X. . . . .",
" .| | | | | |  . . .] }  . . . .}  .}  . . .] ] |  .|  . .}  .}  . . .} X. . .| X.] | |  . .] ]  . . . . . . . . .} }  . . . . .",
" . .| |  .|  .} | ] ] ]  .} }  . .} } } } ] ] ] }  . .| |  . .| } } ] ! ]  . . . . . . .| { ` `  .}  . . . . . .] ] ]  . . . .} ",
"| | | } }  .|  .| |  .} } } } } } }  . .} }  . .|  . . . . .} |  .} } ] |  .| | ]  . .] | } } }  .} }  . .}  . . .} ]  . . .}  .",
"} } { } |  .} | |  . .| } } |  .} } } }  .}  . . .}  . .|  .| } }  . . . . . . . . . .] } } } } } }  . .}  . .} }  . .}  .} }  .",
"| } { } } | } } | } } } | } } |  .} } } } } }  .} |  .|  .|  .| }  .}  . .]  .]  .]  . .} { } } } } } } } } } } } } } } } } } } ",
"} } } | | } } } } } } | } } } } } } } } | } } | | | |  .| |  .|  .] } } }  .}  .} } } } } { } } ] |  .] | | |  .} } } } }  .} } ",
"} } } } } } } | | } } } } } } } } } } } } } | } | } | } | | | | }  .}  .} } } ] } } } } { } } { | | | | |  .]  .} } } } } } } } ",
"} } } } | } } } } | { | } } } } } } } } } ] } } }  .| } } } } } }  .} } ]  . .] } } } } } } { } ]  .| | ] |  .] } } } } } } } } ",
"{ } { } { } { } { { } { } { } { } ] } } } } } } } } } } ] } } } } ] ] } ] } } } } } [ { ] } { } | ] ] | | ] ]  .} } ] } } } ] } ",
"{ { { { } } } { } } } { } } } } } } } } ] | } } } } } } } } } } ] } } | } } ] } { } { } { } { { ] } } ] ] } ] ] } } ] } ] } ] } ",
"{ { { { { { { } } { { } } { { } } ] ] } } ] ] } } } } ] { } } } | | ] ] } } } } } { ] { { { { } } ] ] }  .] ] | ] ] } ] ] } ] } ",
"{ { { { { { } { { } { } ] } { } ] } ] } ] } } } ] } } } { } ' } ] } ] | } } ] } { { { { { { { { ] } } ] } ] } ] } ] } ] ] } } ] ",
"{ { { { { { { { ] { { { { { { ] ] ] ] ] ] ] ] ] ] } ] } [ } } ' ] ] } ] ] ] } ] { { ] ] { ] { ] { { { ] ] ] ] ] } ] ] } ] ] ] ] ",
"{ ] { { { { { { { { { { { { { { { { ] { { { { ] { { { { { { { { ] } { { { ] { ' { ' [ ' { ' { { ' ' { ] ] ] ] ] { ] { ' { { ] { ",
"^ { ' ^ ] { ^ { / { ^ { ' { ^ [ ^ [ ^ { ^ ] ' ' ' { { { ' { ] ] ] ] ' [ ' { [ ] ' [ ' { { ] ' ' ] { ' { ] ] ] ] ' { ' { ' ' ' ' ",
"^ { ) { { ) { ^ ^ { ) ^ { _ _ { { ^ ^ ^ ^ ] ] ] ' { { ^ ' ] ] ' } ' ' [ [ ' [ ' ' ' ' ' ' ' ] ' ^ ] ' ' ' ' ' ] { ' ] ' ] ' ' ' ",
"^ _ { ) [ _ [ _ ) ^ ^ ^ ] [ ) { [ _ { ) ) ^ ` ' ] ' ] ' ' ' ] ' ' ' [ ' ' ' [ [ ' ' ^ ' ' ^ ^ ' ^ ' ' ' ' ' ' ' ^ ^ ' ' ^ ' ' ' ",
"^ [ ^ ) _ ( ^ ) ^ W J ! [ ^ ^ ) { ) ) ^ ] ~ K R ' { ^ ' ' ' ' ' [ ^ ~ T ~ ' ' ' ' ` ' ` ' ! T R ^ ' ' ' ' ' ' ' ! Y R ! ^ ' ' ^ ",
"^ ) ^ ^ ^ ^ ^ ^ ^ W R ~ ) ^ ^ ) ^ ^ ^ ) ^ ! Y ! ' ^ ^ ' ' ' ' ' ' ) ~ T ~ ` ^ ' ' ' ^ ^ ' ! R ! ^ ^ ^ ' ' ^ ! ^ ! T R ' ^ ' ^ ' ",
"^ ^ Q ' ^ ^ ^ ^ ~ Q Q ~ ^ ^ Q { ) ^ ^ ^ ^ ^ ^ ! ' ^ ' ^ ' ^ ' ^ ' ~ ~ ' ^ ~ ' ~ ^ ! ^ ' ^ ^ ` ^ ! ^ ` ^ ! ^ ! ' ' ! ^ ! ' ! ! ' ",
"^ ) ^ ^ / ^ ~ ^ ^ ^ ^ ^ ^ ^ ' ^ { [ ^ _ ^ ^ ' ^ ' ' ' ' ' ^ ' ^ [ [ ' [ [ ' ' ' ' ^ ` ! ' ' ' ' ' ' ^ ' ' ' ' ] ' ] ' ' ' ' ' ' ",
"^ ) ^ ) ^ ^ ^ ) ) ^ ^ ^ ) { ) ) ^ ) { ^ ^ ^ ^ ' [ ' ' [ ] [ ' ] [ [ ' [ [ [ [ [ ` ~ ) ~ ' ' ' ' ' [ [ [ [ [ [ [ ' ' ' ' ' ' ' ] ",
") ) ) [ { ^ ) ^ ^ ^ ) ^ ^ ) ) { { ) ^ ) ) ^ ^ { ) { { ' [ ] { ' [ [ [ [ [ [ [ [ ) [ ` [ ' ' ' ' [ [ [ [ ) [ [ [ ' ] ' ' ' ] ' ' ",
"[ ^ ) ^ ) ) _ [ [ ) _ ^ { [ [ ^ ^ ) ) ) ) ' ' ' [ [ [ ) ] [ ] ' [ [ [ [ [ [ [ [ [ ~ [ ~ ' ' [ [ ' [ [ | [ [ [ [ ] ] ] ] { [ { { ",
") { _ [ { [ _ { _ { [ ) ) _ { _ { _ { ^ [ ^ ' { [ { { { [ ] ) { [ [ [ [ [ [ [ [ [ [ [ [ [ ' [ [ [ [ [ [ [ [ { { ] { { { { ] { { ",
") { { [ { { _ { { ) ) ) ) { { { { { { [ _ ' { ' [ [ [ [ [ [ [ [ [ [ [ [ [ [ [ [ [ [ [ [ [ [ [ [ [ { { { [ | [ { [ [ | [ { { { { ",
") [ [ { ) [ ) [ { [ { ) ) ) ^ ^ [ [ [ [ ' [ [ ) [ [ [ [ [ [ [ [ [ [ [ [ [ [ [ ) ( [ ( [ ) ) [ [ [ [ ) ) { [ [ { | | [ [ [ { { [ ",
"' ' ' [ ' { [ [ [ [ [ ) ) ^ ' ' [ ' ' ' ' [ ) ) ) [ [ ) ) ) ) [ [ ) ) [ ) ) ) ) [ [ ( [ [ [ [ [ [ [ [ [ { [ [ [ [ | [ | [ [ [ [ ",
"' { ] ] { ] ] ] ] ] ] ] ] ' ' ' ] ] ' ' ' ^ ^ ^ ) ) ) ) ) ) ^ [ [ ) ) ) ) ) ) ) ( ` ' ` ` ' ` [ [ [ [ [ [ [ | { { [ [ | [ } [ } ",
"/ / / _ _ / ] / / / / / / / / Q / / ^ / ^ ^ ^ ^ ^ ^ ^ ^ ^ ^ ) ^ ^ ^ ^ ' ' ^ ) ^ ^ ^ ^ ^ ^ ^ [ _ } [ [ { _ { _ _ _ _ _ _ _ _ _ _ ",
"^ _ / _ _ _ _ _ _ _ _ _ / ^ / / _ ( / Q ^ Q ^ ^ ^ ~ ^ ^ ' ^ ' ^ ' ^ ' [ ^ ^ ~ ) ^ ^ ^ ^ ( ( _ _ [ { ) ) ) _ _ _ _ } _ { _ _ _ _ ",
"^ ^ ^ _ ) ) ) ) ^ ^ / ^ ^ ^ ( ^ ^ ^ ( ( Q Q Q Q ~ Q ~ ^ ( ) Q ^ Q ) ) Q ( ^ ( W Q Q Q ^ ( ( _ ( _ ) ( _ ) ) ) [ _ { } { | [ { { ",
"Q ~ Q ^ [ ^ Q ~ ^ ^ ^ ^ ' ' ^ Q ^ Q ^ ( Q Q Q W Q Q Q Q W W Q Q Q Q Q Q Q Q W W W Q Q Q ^ ~ ~ ^ ( Q Q ( ) Q ) ) [ { [ [ [ { [ [ ",
"U U I I U I P L U I E ! E E I U I L L L L I P E I P P I E E E E W E E I P P P P I E E P P P P E P P P P P E R P P I U Q ( U / U ",
"G G D G G F D D A D D D D F A G G A A A A A A A A C C C C C C A A C C C V V V V V C C C Z Z Z Z N N N N N N N M M M B B B B S S ",
"r : r t r e e t r t t > : : : t t r r r q r w w q ; ; 8 ; 8 q q q 8 8 8 = = ; ; ; 8 8 8 w w w 9 - - 7 7 7 7 7 9 0 7 9 9 7 7 4 0 ",
"# . % * 1 1 1 1 * * * & # # % 1 4 2 2 2 2 2 3 3 o o 1 1 1 2 1 1 3 1 1 1 X o o 1 @ 1 1 1 1 1 3 1 X @ , 1 1 3 3 3 3 3 1 1 @ o @ 1 ",
"    + o + + + + * * + o o o + + @ @ + 2 + + @ @ o o + @ + @ @ + * 1 + + O X + + + + + + @ @ @ @ o o o o @ @ 1 1 @ @ 1 1 @ @ 1 @ ",
"O X o + O O + + O % + + + + + @ @ + + + + @ @ @ + @ + @ + + + + o + O O O + + + + + + + + + + + o o o o o o o o o o o + o + o o ",
"+ o o o O O O O o + @ @ @ 3 @ @ @ 2 @ 2 @ @ 2 @ @ @ @ @ @ @ @ @ + + * + + + O + + + + + * + * + o o o o o + o o o o o o o o o o ",
"+ + + @ + + + * * + @ @ @ @ @ @ 2 2 2 @ @ @ @ @ @ @ @ @ @ @ @ @ * + + + + + + + + + + + * + * + + + + o * o + , 1 + + + * + + * ",
"+ + + + O * O * + 2 + * @ 2 + 2 2 * * * * @ @ @ @ @ + @ 2 @ @ + + + + + + O + + + + + + o @ o @ o o o X o o @ o @ o o X X o + X ",
"  + + + * * O * O + 2 * + 2 + 2 * * * * + + + + o o + + * * + + + + X o O O O O o o + o o o o . . o X o . @ @ @ @ @ . . . o o o ",
"O + 2 2 * * * * 2 * * 2 + + 2 2 1 * 2 2 2 2 2 + + 1 2 2 3 2 1 * 1 1 , % o o + @ , , $ , @ , , @ . o , , @ , , , , , , @ o o , , ",
"  O 2 + * * * * * 2 * * * * + 2 1 * * * * 2 1 $ o 1 6 6 6 6 6 6 6 0 0 7 < $ < 4 < 4 9 4 4 5 5 < $ < 4 < 4 5 5 5 5 5 4 < < < < < "
};
