/* XPM */
static char *result[] = {
/* columns rows colors chars-per-pixel */
"60 60 83 1 ",
"  c #000001",
". c #000018",
"X c #000024",
"o c #00002D",
"O c #000034",
"+ c #00023D",
"@ c #001142",
"# c #001F43",
"$ c #00254B",
"% c #002C4D",
"& c #04314D",
"* c #003553",
"= c #003856",
"- c #083E55",
"; c #133B54",
": c #1A3854",
"> c #203856",
", c #203E58",
"< c #2A3E5A",
"1 c #134159",
"2 c #20445C",
"3 c #2D445C",
"4 c #334C62",
"5 c #3E4E64",
"6 c #345064",
"7 c #3B5165",
"8 c #3F566B",
"9 c #3F5869",
"0 c #445269",
"q c #435A6C",
"w c #505C6E",
"e c #465B70",
"r c #4A5E72",
"t c #505C71",
"y c #4D6173",
"u c #526475",
"i c #536679",
"p c #5A6579",
"a c #56697A",
"s c #5C6C7D",
"d c #5E707F",
"f c #616D7F",
"g c #61707F",
"h c #5C6E80",
"j c #5E7181",
"k c #646E80",
"l c #647483",
"z c #697585",
"x c #687886",
"c c #667689",
"v c #6D7688",
"b c #6D7B8B",
"n c #727D8D",
"m c #727F90",
"M c #787F91",
"N c #72818E",
"B c #758491",
"V c #7A8594",
"C c #7C8996",
"Z c #7A8699",
"A c #7E8C99",
"S c #828D9B",
"D c #888F9F",
"F c #84919E",
"G c #88909F",
"H c #878FA0",
"J c #8794A0",
"K c #8B95A2",
"L c #8D99A6",
"P c #8F9BA8",
"I c #9096A5",
"U c #9099A7",
"Y c #939DAA",
"T c #989FAD",
"R c #95A1AD",
"E c #99A1AE",
"W c #9CA5B2",
"Q c #9EAAB5",
"! c #A0A7B5",
"~ c #A2AAB6",
"^ c #A4ACB9",
"/ c #A5B0BB",
"( c #AAB1BE",
/* pixels */
"DSIBNLSFFFRJBFFAPAAFLLAAAAAAAAAAPPAiNhBLCNAPWQQ~WRWW!ELBugVV",
"KLYUDLFFFALJCFFCLFFPLAARRAPANCAARAhahhNLNjNLLWLEESU~WGREnfNG",
"KYYWTLKLFFPRAPPCAFFLLLCLLAAABARQRCiNNAALa 69AERgFBCGUIS!WVnS",
"YUEETULLJALKJRPFAAALQRRPALPLAAARAAANjALALu+BULFLFCFGSEEWETIG",
"YIYTTYYYLDAANFLLJJJLPRPLQAAAQNZANNLdyNWBNRRQRFGUELSGYDUGvSIT",
"!KKTTUYIKGASFAJRRRPRRRNCAQAA/AAANLAPPLWQaxRPQWRSGGCGUKSgzMSG",
"!TIIYYUDLLYYFGJLQRRJPJdLAAaZQ//QPRARPRPRPFPARWFGDUSGYES-nfSG",
"!!YSIYTTYAFLNCWLRQLFJPAAAAiNAAAACLAARPLRAFPLLVAUIENNENBgpfMD",
"USnlSTYYLSlSNxRKQANARRAAAQBAAQAABAPLRNAQNcbbFlNLSGGGFsgB2ugz",
"SvwrlITIKIDSGELJBCyBAAAAAAAA///AyBJRACAQFjviCnaLDFSLS5ggXowN",
"gSLVSDSDSKYKFEWjBARAARAA/QAQA/QABBLRLPRQJjscJRnSGCSSUSgp7  n",
"YYWW!UULvSYRJJFdAQARAARAAAQQAAQALNAWWJLPljxAPWRGRdgVnTRMt  f",
"K!TTYUTWAKRLRLNCAAAAQAQAAAAR/RQAFqjPLLPJCBjAURRYC2gINNIYLw f",
"nlnDUIUYSFLRPVBFQBAANRQANNARQQRQPu1AAxRFANaBUGIFarSGSnNE!V%w",
",>nvDSKTYYFUFAxbRA99AQARANAQQRAARFjNJAFACNBFLCUFqabDGNNTEUVV",
"zU!YKVKDPYGCBRNdAANdAAQQAANQA/AALAPLFRPJBJLFLLPRq1NsNSSKEWRD",
"EFSFGKKSRRKNBLLAQAA/RAALRLdCLRRLLFFRdNFFBRRALRPPx &+nS6VW!Dn",
"GFCGNKURLGYRCBFQRRRQQAyALQANRRQLLPAJABJaNAPACPRFL3 0GzuUWYSn",
"KUUISgUUNKRYLFFQRAAQRQxNRRLLAQRLLLFAJBJaylCFjFAFGs wGpIIYTSz",
"gGUUUgURNSRRJNFQQRQAARAdARLLQRRRLPFCPFANyNNNNNNxUbsnE!USIIDV",
"CGUGGSL!RSSCNxAQRRRAARANNALRRRRLRFPLPFNNBPQRRFFxFWSuIYWDvIID",
"SGRIGGURQVwNNaCLQRRRAQRALLRRRRRLAFCAJNFAaARWRPUFFYGpGGIUSDID",
"SSYIGFURWGCRLy&CRQRQQQRAARAQNNRAARvALFFAaCRWRUGBCRUdGYSISMSV",
"SKYRFSUYRRRRRyXQAARARAARLACRxNQAARFRPPSNdCRWRISNCURqnGIDSSKn",
"DITRSNSKEEERUFJRRNLLRLLLLALAAARLlsFWRELCvSYUURClFLUu1AUUDvIv",
"DTEYKNBSLYYLRRFLRRLLRRLYLNBBAQCRGVFRREUBlD!UVPLsNRFSNFYUIvDV",
"IWEYULGSLYRJLLLLLRRLYRLLLCxNALdAKFIEE!YbvDEENnUBaRICDDGYDMSK",
"ITTILFVVJLLSUERRLRWLFRLLARx9xALLVgSYE!UbNCKTIFLLxLYgSSSDDDSK",
"VSRFFLBBFxSYLCRJFLRLLLULKJS3-FRJSvzVIYUsjbABUILJnLTSnGSVHYHI",
"KKERFLANYSSUJxJJJLSJLLGKUGGSdNLSnnCDSKKpNlnsUYISnURLFFIGIE!T",
"SEWFAFFBFCCJCJLLJCJJLJSGIGSSJJJJMnKISDKsxsnDRKPCuBYGFSGIKYWT",
"GEQFFFLASxxx7/RLLJJLLLSFKSSSSLULSnSUIHLl&pFYYJJB1jLRGLFGDKYT",
"EYDUGKKLFVglLRRRPWPPPPLLJJAFLGRRFSARRUUIgKUEESgS@zHT!YULKKUE",
"GSGTISSGVVREERRRRRRPPRRPLLLLPFLFSFLREERRYRURYKBSsAII^TTTTUIT",
"YTWTIGSSBARUPWRRLPPPPLRRRLLJFRLCNSFLRRRRILGKYIGNlBTKETYYTYII",
"ETTTYIISBFRFPRRRLLRLPALRQRLLLRRFBNFBGURLGLFGERLNpbLmUWIIYYYI",
"YTTTEEYSNCRFCRPRLFRLFBLRRRANPRWRLCLLLPPYGGSIEETg8bJHITILIETT",
"ITEYEETGaNPRRRPRPFLFFFARQRJFPRERLLRRLRLLSFBGIYES*lKWYYILASIW",
"IT!TTTYYNCPFRRRRLLLSLRLLLLFFPWWRFRWPFWLFFCgVYITY2eBY!IIYHnAI",
"HE!TIIIYJPLPAPRLPRLVLRPLLNCANLRLLRRRgFRFFFSSIIIWv+uS!YKITKzM",
"KE!WLHKLxALRQRYLPRLCRLLbNyxAslKYEUYWBNEERLISSGIEWp4JWUTYUYVz",
"YYIHYLKKhCYYWRPPFWAFWLFz6aNFzqSEERIERFGGREUSFLEE!!vKSBTYTYDv",
"nnkvLIPKALYRWLPYFRNC~RFYZFRs5rCREEREESSGGIESsSEETKKRklKvIUID",
"<kkZUKPJAPPRWPAYPPa9WWURCPLvNCRERERREFGERYSCu2SWTAvVAYVfDTYI",
"SkvILKJAJLYYYLBPRRCdNRWRxBAFERREEYGIESgEERVNF$g!PHkaGUYYSYTT",
"IIIUJLJABLTWWLAQPFBFgCRFlxAAREEWEEKVTS>YEGVVSSgBuVPbDSUEEEYE",
"HTYIJLLLZPTRWAAQRPCdgBFAxBFFPRRYDKYGEKDVGGgBGDSnllIWTSGTT!TD",
"TYHIAJLJJRTYWBZQWPLFNBCAaALARRRUWUDD!SGSSISSGIUEYVKTTDIHYU!I",
"YKDSALKJURLKYVxRRPJWLBRFdNJBRQUEESgv~DzIUIGSKUYUIVFLYKVfMYIE",
"IIIHSIAKWYASPANJPPxCFLQJgdABRRPEEGfEW!UTRGVAYRYUUKFUYTS0MTYD",
"UIYHKYZPWLRYYJBLJFFLUnFBNxVNRRPYRIEETY!WRLNSETYYLYLLYT!TWY!I",
"ITYSLRBJHYWWRKBZAALQEN 6gNCCPYLUUMGGKDSWIFxSYYYYUUUKKIT!!WWE",
"UTIHKWbchHWRWWKSCBLYKL X$wFLIYYYv$MvIYIYIGbSUTYRISGGDSUTW!!W",
"HUTILWKmBPYTRRRKBbGYKA:. CRLYYKf+vTII!TYEKNSYTIIDVSSVSUUY!W!",
"HT!ESR^YKYYYEEUJNaALl9u4xEEIDp 4vnDDSTTYUSVITIYITIIIDDSYYTT!",
"ZEEWWWWWILYIWTUFNyaNsdAFFGW5wfqBVv<ftSTDGKKTYYTRTYIHMDHVU!!!",
"MUH!!TTYIKIYWTUHNJZBKsBKSJEnN~UFVINSgSYYTKERYIIUTYKDGGYST!W!",
"ZDT!WIHSSIITTTUSNPRJRAnNAAWEBWQRR!(TGSSWTSTRTEYIETYIUT!ET!!T",
"DK!!E!UDVUTTTTLFARWPJJAdVGRLNB~(W~~TUSV~KgITYEESGTUKGTTTYTTW",
"SHEE^^~YBKWWETLFARRRFJBjBSGSVBNFRW^~WGVSSSSTRUIKDIKDSYKYUYYU"
};
