/* XPM */
static char *result[] = {
/* columns rows colors chars-per-pixel */
"60 60 50 1 ",
"  c #6C727B",
". c #707882",
"X c #828A94",
"o c #858E99",
"O c #87919A",
"+ c #89939D",
"@ c #8F97A1",
"# c #8F99A3",
"$ c #929BA6",
"% c #959DA8",
"& c #999FAB",
"* c #9AA3AE",
"= c #9DA6B1",
"- c #9EA8B3",
"; c #A1A7B3",
": c #A3ACB6",
"> c #A5ADB8",
", c #A8AEBA",
"< c #A7B1BB",
"1 c #AAB3BE",
"2 c #ACB6C1",
"3 c #AFB9C4",
"4 c #B1B6C2",
"5 c #B2BBC6",
"6 c #B4BEC9",
"7 c #B9BFCB",
"8 c #B7C1CB",
"9 c #BAC3CE",
"0 c #BDC6D1",
"q c #BEC8D3",
"w c #C1C7D3",
"e c #C2CBD6",
"r c #C5CED9",
"t c #C9CFDB",
"y c #C6D1DB",
"u c #CAD3DE",
"i c #CDD6E1",
"p c #CFD9E3",
"a c #D1D7E3",
"s c #D2DBE5",
"d c #D6DDE9",
"f c #D9DFEB",
"g c #D7E1EB",
"h c #DBE2ED",
"j c #DEE5F0",
"k c #DEE8F2",
"l c #E0E6F2",
"z c #E2EAF5",
"x c #E5EEF8",
"c c #E9EFFB",
/* pixels */
"uuswesuuusgpquuugyyuppppqppqypypssy388qgyqpgkkkkkdjjjfae1www",
"asfdusuiuuspyppyppugppuspugu8yypgp8388qpq8qyphdjdidkjafjw7wa",
"adfhfspduugguggquuupppqppqpuqypggq8q8yyp3O:<tjd8pqtidstlfwwt",
"fdhhfssdpyppugpuquupkkkgppgppgygupq98ppyp3$qdpppiriiejfljffa",
"ddffhfddsuuuqudsspppgggsgpyygqyp9qg83qgqqgkksppdhsyaftfawtaf",
"jaaffddsauuyurpgggggggqqygypkyypqppsspkk88ggkkdraiyifse7wwta",
"ljadfddtadgguapskggpgp8ppp3yggggkgusskgksipugkppudrpffr=w7ea",
"jlftsfflgyusqrkskkppppqppy36pppgqsqpgssguppppqydsfwwjer617wt",
"dtw7tfffau7uq9gugpqypgyyppqyggygqpppgqqk0800u9estaaui59e=189",
"tw1<7dffsaiypgdpqy<qgpqyppqgkkkq8qpgsqikp893yq4aautsu>59+#1w",
"6tsrtutuuafaukg8qgppppypgpggygkgqqpgpggkp868pgwysruusy84, Ow",
"ffjllffs9tfhpuu8ygpppqgpyppkpggypqpkkppg858yghhad56twhfw1X 5",
"alfffdfluagahp0yppqpgggyyypgkgkgp<8gppsiyq8usghgr=8swwdss1O7",
"w7wtdasfuudgdyyugqyyqggy8qygggggs2*qu9giy05qduau51yatwrhlt&1",
"*;wwitahgduguy99pp<<ygggpqykggyggp8qpuiyyqqigrgy139uuwwhhdet",
"9sldaraudfuregq8pg88ygpggyqgggyysugpiggpqppippsg<=e5ryralhfu",
"hiyaaaaiggueqgsugppkgpqpgp8qggggguug89uuqggugggg9 *%wt>wllaw",
"iuyawadfasggyqukpggggp3gggp8gggppgupuqp8qusurggus;X,a74dlftw",
"aasse9sseaggpuukpggppg88ggggpkkgpsuypqp828qp8uyya6X,a4ssfft7",
"7asai9sheygggqpkkggppgp8ygpgggggsguyspqq2qqqqqq9s95whlftafaw",
"eisaatalgrurq9ykgggppgp88pgggggggppsguqqqgkgguu9ult4sflt7faa",
"uafaaishlr1e98ypkgggpggppgpkgggguuyupeuu8ukgggguada4taaftuaa",
"utdsiushhpygs1*rgggpgggypgggqqgyyg9ypuuy2qkkgdiryga8adtstwtt",
"uaffaydggghhg1#zppgggppppyqg8qgpugpgpguq8qgkgsywrdd<0afsttaw",
"asffuwuahhjgguuggqgpgguggygypppp86ukghay9tdddgy8ppd3*ugstwaw",
"afhfawwasddsggusggpggggspqqqygqguruhdldw9ijdeds5qguywuddawaw",
"slhfdduusdgugssgggggggpgpq8qyp8pauahhldq9uhhwqdw5hdeaiadtwta",
"sffsaurridsysgggugggyggspgq<8upgr7tdhld9wtahsuss9ad8ttuuaata",
"ttgsusqru0uggqgpuggsssggiau;=ygpuw9tsfs579uesdaawahywaurafaf",
"aagsugu9guyguqupuguussuuauat8qgu99tutaa4q8w5sddyqghauuaashhf",
"uhkuyupquyypyuspuyusasuadauuaaiitwastai696wugage3ehaauaaaflh",
"ahksyugyy989<xggguugssuuauuuuasatwtdaas8*3ufdupe=8aguauauaff",
"hdidaaaaur88ahhgsksgsgpppuyuspgguuugdddswushhwwu#0iflfdaaadf",
"atafatiirtghkggggggggsggpgpsgusuuugghhfffsdhfaer5tsdzfffffdf",
"ffjfsittwyhddkkgsgggsgggggspugprqyupggggasiidsiw9efpjfddffaf",
"jffffdsuwyhupghgpsgggqpkggsggggsequrigdsaauahggw30s0sjddfffa",
"fffjfjft9ygurgggpugpurpkkgyqsgkggeguggggiiushhf9,0iidfssafff",
"dfjffffi8qgggggggusuuuygkgppggggssggggsguueasfhr=7pjffsattdf",
"aflfffff0yduggggpggypgpsssupghkgugkgyhsuuy9wfsfd;,rfjasfawtd",
"ajjfdaffpppgpggpggpyggsdgqquqpgggggg8uguiuttsasl0@2tlfasfa0w",
"ahllsipp9ysgkhgsggpygdd0q19y56sdhgslwwhfhssuuaahl4:ilsffsft7",
"ffsafsas8yddjhssukuuhsu8>5eu9<uhhgshhiauhhsuushjll0iuwffffa7",
"7w67ssspipghjsggug9yzgudrug6>1yhhhhhguuaasht5thlhaaf76a0afaa",
";76tsapiqsggjgqggg3<kkddrga9erghhhghluahfsut1;rlht9rtfr6affa",
"t77fpppyidgdgpysggq8qghg8yyuhhghhdaahtwhlsywa*8lsa64affftfff",
"faaspppiqsgjjpijguyy8ygs88yyghhjhhatht*shaeetuww4td9atshhhfl",
"iffaipspydghjiikhgy88quyqquudgfdtasifsarua8euaww77shftafhhfa",
"hfaaipsppggdkqqhggsuqqqy8upughddlfiultatuattaadhfeaffaaaffha",
"fauutaaadfapge7ghdpkpygu50pqkkdgfu7wlt7saaauiddsstisdaw5wfaf",
"aaaaufupjfyisuqpsd9yipkp88uqggdhha5hllslharyghfssaudfhi,tffa",
"ffsuadrshsffgurspiippqueq8ewggddfaffffllhswuhfdfsdssffljhfff",
"ajftsheiadjjgpqyyypkgqo>9qeygdsdfwaaaathsu9tdfdfdadissfllllh",
"sfduaj706ihhjhaty0sgsdo@%2udddff7&w7sfaffawrsfffatiautffllll",
"affapksqqdffhjfae0pgpy*+Ordddfi6&7lfslhffawtfffsatttttfsfhhl",
"iflhtfkdadffhhfu06ys6<2-6fjfu4o;7wattfffdutasffsfssstttffhhl",
"tfhlllkldsddhffu023066ypiaj;262et7;71tfauaafdfffhfsatattdlll",
"wfajlhffaaffjffuqieyp3epuph0qzdptswtwwsffahgddsdffataastflll",
"tthljaattfsfhfftqggpdyqqyukhqjjdflcfatujfahffffalffsffllfllf",
"talljjfiefffhfsuugggppy6qadsqykxlzzfsutzawsffjjuafdaaffffffl",
"tahhzzlfwijjhhsiygggipe6ytuuqrqpflzzluttettfddsatsaatfsfsffs"
};
